M48
; DRILL file KiCad 10.0.1 date 2026-06-06T14:36:42
; FORMAT={-:-/ absolute / metric / decimal}
; #@! TF.CreationDate,2026-06-06T14:36:42-04:00
; #@! TF.GenerationSoftware,Kicad,Pcbnew,10.0.1
; #@! TF.FileFunction,Plated,1,2,PTH
FMAT,2
METRIC
; #@! TA.AperFunction,Plated,PTH,ViaDrill
T1C0.300
; #@! TA.AperFunction,Plated,PTH,ComponentDrill
T2C0.600
; #@! TA.AperFunction,Plated,PTH,ComponentDrill
T3C0.700
; #@! TA.AperFunction,Plated,PTH,ComponentDrill
T4C0.800
; #@! TA.AperFunction,Plated,PTH,ComponentDrill
T5C0.900
; #@! TA.AperFunction,Plated,PTH,ComponentDrill
T6C1.000
; #@! TA.AperFunction,Plated,PTH,ComponentDrill
T7C1.100
; #@! TA.AperFunction,Plated,PTH,ComponentDrill
T8C1.200
; #@! TA.AperFunction,Plated,PTH,ComponentDrill
T9C1.600
%
G90
G05
T1
X110.0Y-90.5
X112.5Y-84.5
X124.5Y-80.5
X163.0Y-97.0
T2
X103.027Y-97.0
X105.027Y-97.0
T3
X145.92Y-67.0
X148.46Y-67.0
X151.0Y-67.0
T4
X102.2Y-109.5
X106.0Y-109.5
X115.84Y-110.0
X126.0Y-110.0
X130.5Y-80.75
X130.5Y-83.25
X139.11Y-76.19
X139.11Y-83.81
X140.3Y-94.0
X140.3Y-101.62
X141.65Y-76.19
X141.65Y-83.81
X142.84Y-94.0
X142.84Y-101.62
X144.19Y-76.19
X144.19Y-83.81
X145.38Y-94.0
X145.38Y-101.62
X146.73Y-76.19
X146.73Y-83.81
X147.92Y-94.0
X147.92Y-101.62
X149.27Y-76.19
X149.27Y-83.81
X150.46Y-94.0
X150.46Y-101.62
X151.81Y-76.19
X151.81Y-83.81
X153.0Y-94.0
X153.0Y-101.62
X154.35Y-76.19
X154.35Y-83.81
X155.54Y-94.0
X155.54Y-101.62
X156.89Y-76.19
X156.89Y-83.81
X164.0Y-80.5
X164.0Y-83.0
X168.42Y-110.0
X172.5Y-82.0
X173.197Y-94.0
X174.5Y-82.0
X176.997Y-94.0
X178.58Y-110.0
X183.197Y-101.0
X186.997Y-101.0
T5
X147.5Y-121.73
X147.5Y-124.27
T6
X133.5Y-64.5
X133.5Y-67.04
X133.5Y-69.58
T7
X105.0Y-73.84
X105.0Y-84.0
X117.46Y-80.73
X120.0Y-80.73
X122.54Y-80.73
T8
X116.5Y-124.5
X121.5Y-124.5
X126.5Y-124.5
X169.0Y-124.5
X174.0Y-124.5
X179.0Y-124.5
T9
X190.0Y-75.6
X190.0Y-78.7
X190.0Y-87.0
T6
G00X162.757Y-68.5
M15
G01X162.757Y-70.5
M16
G05
G00X168.457Y-66.5
M15
G01X166.457Y-66.5
M16
G05
G00X168.457Y-72.5
M15
G01X166.457Y-72.5
M16
G05
G00X175.392Y-68.5
M15
G01X175.392Y-70.5
M16
G05
G00X181.093Y-66.5
M15
G01X179.093Y-66.5
M16
G05
G00X181.093Y-72.5
M15
G01X179.093Y-72.5
M16
G05
M30
