%TF.GenerationSoftware,KiCad,Pcbnew,10.0.1*%
%TF.CreationDate,2026-06-06T14:36:39-04:00*%
%TF.ProjectId,g-03-osc-01-rev-a,672d3033-2d6f-4736-932d-30312d726576,rev?*%
%TF.SameCoordinates,Original*%
%TF.FileFunction,Copper,L1,Top*%
%TF.FilePolarity,Positive*%
%FSLAX46Y46*%
G04 Gerber Fmt 4.6, Leading zero omitted, Abs format (unit mm)*
G04 Created by KiCad (PCBNEW 10.0.1) date 2026-06-06 14:36:39*
%MOMM*%
%LPD*%
G01*
G04 APERTURE LIST*
G04 Aperture macros list*
%AMRoundRect*
0 Rectangle with rounded corners*
0 $1 Rounding radius*
0 $2 $3 $4 $5 $6 $7 $8 $9 X,Y pos of 4 corners*
0 Add a 4 corners polygon primitive as box body*
4,1,4,$2,$3,$4,$5,$6,$7,$8,$9,$2,$3,0*
0 Add four circle primitives for the rounded corners*
1,1,$1+$1,$2,$3*
1,1,$1+$1,$4,$5*
1,1,$1+$1,$6,$7*
1,1,$1+$1,$8,$9*
0 Add four rect primitives between the rounded corners*
20,1,$1+$1,$2,$3,$4,$5,0*
20,1,$1+$1,$4,$5,$6,$7,0*
20,1,$1+$1,$6,$7,$8,$9,0*
20,1,$1+$1,$8,$9,$2,$3,0*%
G04 Aperture macros list end*
%TA.AperFunction,ComponentPad*%
%ADD10C,1.600000*%
%TD*%
%TA.AperFunction,ComponentPad*%
%ADD11RoundRect,0.250000X-0.550000X-0.550000X0.550000X-0.550000X0.550000X0.550000X-0.550000X0.550000X0*%
%TD*%
%TA.AperFunction,ComponentPad*%
%ADD12R,3.000000X3.000000*%
%TD*%
%TA.AperFunction,ComponentPad*%
%ADD13C,3.000000*%
%TD*%
%TA.AperFunction,ComponentPad*%
%ADD14R,3.500000X3.500000*%
%TD*%
%TA.AperFunction,ComponentPad*%
%ADD15RoundRect,0.750000X-1.000000X0.750000X-1.000000X-0.750000X1.000000X-0.750000X1.000000X0.750000X0*%
%TD*%
%TA.AperFunction,ComponentPad*%
%ADD16RoundRect,0.875000X-0.875000X0.875000X-0.875000X-0.875000X0.875000X-0.875000X0.875000X0.875000X0*%
%TD*%
%TA.AperFunction,ComponentPad*%
%ADD17RoundRect,0.249999X-0.850001X0.850001X-0.850001X-0.850001X0.850001X-0.850001X0.850001X0.850001X0*%
%TD*%
%TA.AperFunction,ComponentPad*%
%ADD18C,2.200000*%
%TD*%
%TA.AperFunction,ComponentPad*%
%ADD19R,1.700000X1.700000*%
%TD*%
%TA.AperFunction,ComponentPad*%
%ADD20C,1.700000*%
%TD*%
%TA.AperFunction,ComponentPad*%
%ADD21C,1.800000*%
%TD*%
%TA.AperFunction,ComponentPad*%
%ADD22R,1.800000X1.800000*%
%TD*%
%TA.AperFunction,ComponentPad*%
%ADD23RoundRect,0.250000X-0.550000X0.950000X-0.550000X-0.950000X0.550000X-0.950000X0.550000X0.950000X0*%
%TD*%
%TA.AperFunction,ComponentPad*%
%ADD24O,1.600000X2.400000*%
%TD*%
%TA.AperFunction,ComponentPad*%
%ADD25R,1.500000X1.500000*%
%TD*%
%TA.AperFunction,ComponentPad*%
%ADD26R,1.905000X2.000000*%
%TD*%
%TA.AperFunction,ComponentPad*%
%ADD27O,1.905000X2.000000*%
%TD*%
%TA.AperFunction,ComponentPad*%
%ADD28RoundRect,0.250000X-0.350000X-0.350000X0.350000X-0.350000X0.350000X0.350000X-0.350000X0.350000X0*%
%TD*%
%TA.AperFunction,ComponentPad*%
%ADD29C,1.200000*%
%TD*%
%TA.AperFunction,ComponentPad*%
%ADD30RoundRect,0.250000X0.550000X-0.950000X0.550000X0.950000X-0.550000X0.950000X-0.550000X-0.950000X0*%
%TD*%
%TA.AperFunction,ViaPad*%
%ADD31C,0.600000*%
%TD*%
%TA.AperFunction,Conductor*%
%ADD32C,0.400000*%
%TD*%
%TA.AperFunction,Conductor*%
%ADD33C,0.800000*%
%TD*%
%TA.AperFunction,Conductor*%
%ADD34C,0.200000*%
%TD*%
G04 APERTURE END LIST*
D10*
%TO.P,C7,2*%
%TO.N,GND*%
X186997349Y-101000000D03*
D11*
%TO.P,C7,1*%
%TO.N,Net-(U1-VCOin)*%
X183197349Y-101000000D03*
%TD*%
D10*
%TO.P,C6,2*%
%TO.N,GND*%
X176997349Y-94000000D03*
D11*
%TO.P,C6,1*%
%TO.N,Net-(U1-VCOin)*%
X173197349Y-94000000D03*
%TD*%
D10*
%TO.P,C1,1*%
%TO.N,Net-(U1-C2)*%
X164000000Y-83000000D03*
%TO.P,C1,2*%
%TO.N,Net-(U1-C1)*%
X164000000Y-80500000D03*
%TD*%
D11*
%TO.P,C2,1*%
%TO.N,+12V*%
X102200000Y-109500000D03*
D10*
%TO.P,C2,2*%
%TO.N,GND*%
X106000000Y-109500000D03*
%TD*%
%TO.P,R1,1*%
%TO.N,Net-(U1-R1)*%
X168420000Y-110000000D03*
%TO.P,R1,2*%
%TO.N,GND*%
X178580000Y-110000000D03*
%TD*%
D12*
%TO.P,RV1,1,1_1*%
%TO.N,Net-(U1-VCOin)*%
X116500000Y-124500000D03*
D13*
%TO.P,RV1,2,2_2*%
%TO.N,Net-(RV1-Pad2)*%
X121500000Y-124500000D03*
%TO.P,RV1,3,3_3*%
%TO.N,unconnected-(RV1-Pad3)*%
X126500000Y-124500000D03*
%TD*%
D10*
%TO.P,R2,1*%
%TO.N,GND*%
X115840000Y-110000000D03*
%TO.P,R2,2*%
%TO.N,Net-(D2-K)*%
X126000000Y-110000000D03*
%TD*%
D12*
%TO.P,RV2,1,1_1*%
%TO.N,Net-(U1-VCOin)*%
X169000000Y-124500000D03*
D13*
%TO.P,RV2,2,2_2*%
%TO.N,Net-(RV2-Pad2)*%
X174000000Y-124500000D03*
%TO.P,RV2,3,3_3*%
%TO.N,unconnected-(RV2-Pad3)*%
X179000000Y-124500000D03*
%TD*%
D14*
%TO.P,J2,1*%
%TO.N,Net-(SW1-A)*%
X180092500Y-72500000D03*
D15*
%TO.P,J2,2*%
%TO.N,GND*%
X180092500Y-66500000D03*
D16*
%TO.P,J2,3*%
%TO.N,unconnected-(J2-Pad3)*%
X175392500Y-69500000D03*
%TD*%
D17*
%TO.P,D1,1,K_1*%
%TO.N,+12V*%
X105000000Y-73840000D03*
D18*
%TO.P,D1,2,A_2*%
%TO.N,Net-(D1-A)*%
X105000000Y-84000000D03*
%TD*%
D10*
%TO.P,C5,1*%
%TO.N,+5V*%
X130500000Y-80750000D03*
%TO.P,C5,2*%
%TO.N,GND*%
X130500000Y-83250000D03*
%TD*%
D11*
%TO.P,C4,1*%
%TO.N,Net-(U1-FOUT)*%
X172500000Y-82000000D03*
D10*
%TO.P,C4,2*%
%TO.N,Net-(C4-Pad2)*%
X174500000Y-82000000D03*
%TD*%
D14*
%TO.P,J3,1*%
%TO.N,Net-(SW1-A)*%
X167457500Y-72500000D03*
D15*
%TO.P,J3,2*%
%TO.N,GND*%
X167457500Y-66500000D03*
D16*
%TO.P,J3,3*%
%TO.N,unconnected-(J3-Pad3)*%
X162757500Y-69500000D03*
%TD*%
D19*
%TO.P,J4,1,Pin_1_1*%
%TO.N,GND*%
X133500000Y-69580000D03*
D20*
%TO.P,J4,2,Pin_2_2*%
%TO.N,+5V*%
X133500000Y-67040000D03*
%TO.P,J4,3,Pin_3_3*%
%TO.N,+12V*%
X133500000Y-64500000D03*
%TD*%
D21*
%TO.P,J1,1*%
%TO.N,GND*%
X190000000Y-75600000D03*
%TO.P,J1,2*%
%TO.N,unconnected-(J1-Pad2)*%
X190000000Y-87000000D03*
%TO.P,J1,3*%
%TO.N,Net-(C4-Pad2)*%
X190000000Y-78700000D03*
%TD*%
D22*
%TO.P,D2,1,K_1*%
%TO.N,Net-(D2-K)*%
X147500000Y-124270000D03*
D21*
%TO.P,D2,2,A_2*%
%TO.N,+5V*%
X147500000Y-121730000D03*
%TD*%
D23*
%TO.P,U1,1,PCP_1*%
%TO.N,unconnected-(U1-PCP-Pad1)*%
X156890000Y-76190000D03*
D24*
%TO.P,U1,2,PC1_2*%
%TO.N,unconnected-(U1-PC1-Pad2)*%
X154350000Y-76190000D03*
%TO.P,U1,3,RefIn_3*%
%TO.N,unconnected-(U1-RefIn-Pad3)*%
X151810000Y-76190000D03*
%TO.P,U1,4,FOUT_4*%
%TO.N,Net-(U1-FOUT)*%
X149270000Y-76190000D03*
%TO.P,U1,5,Inh_5*%
%TO.N,GND*%
X146730000Y-76190000D03*
%TO.P,U1,6,C1_6*%
%TO.N,Net-(U1-C1)*%
X144190000Y-76190000D03*
%TO.P,U1,7,C2_7*%
%TO.N,Net-(U1-C2)*%
X141650000Y-76190000D03*
%TO.P,U1,8,VSS_8*%
%TO.N,GND*%
X139110000Y-76190000D03*
%TO.P,U1,9,VCOin_9*%
%TO.N,Net-(U1-VCOin)*%
X139110000Y-83810000D03*
%TO.P,U1,10,SFout_10*%
%TO.N,unconnected-(U1-SFout-Pad10)*%
X141650000Y-83810000D03*
%TO.P,U1,11,R1_11*%
%TO.N,Net-(U1-R1)*%
X144190000Y-83810000D03*
%TO.P,U1,12,R2_12*%
%TO.N,unconnected-(U1-R2-Pad12)*%
X146730000Y-83810000D03*
%TO.P,U1,13,PC2_13*%
%TO.N,unconnected-(U1-PC2-Pad13)*%
X149270000Y-83810000D03*
%TO.P,U1,14,SigIn_14*%
%TO.N,unconnected-(U1-SigIn-Pad14)*%
X151810000Y-83810000D03*
%TO.P,U1,15,ZOUT_15*%
%TO.N,unconnected-(U1-ZOUT-Pad15)*%
X154350000Y-83810000D03*
%TO.P,U1,16,VDD_16*%
%TO.N,+5V*%
X156890000Y-83810000D03*
%TD*%
D25*
%TO.P,SW1,1,A_1*%
%TO.N,Net-(SW1-A)*%
X145920000Y-67000000D03*
%TO.P,SW1,2,B_2*%
%TO.N,Net-(D1-A)*%
X148460000Y-67000000D03*
%TO.P,SW1,3,C_3*%
%TO.N,unconnected-(SW1-C-Pad3)*%
X151000000Y-67000000D03*
%TD*%
D26*
%TO.P,U2,1,IN_1*%
%TO.N,+12V*%
X117460000Y-80730000D03*
D27*
%TO.P,U2,2,GND_2*%
%TO.N,GND*%
X120000000Y-80730000D03*
%TO.P,U2,3,OUT_3*%
%TO.N,+5V*%
X122540000Y-80730000D03*
%TD*%
D28*
%TO.P,C3,1*%
%TO.N,+5V*%
X103027401Y-97000000D03*
D29*
%TO.P,C3,2*%
%TO.N,GND*%
X105027401Y-97000000D03*
%TD*%
D30*
%TO.P,U4,1*%
%TO.N,Net-(U1-VCOin)*%
X140300000Y-101620000D03*
D24*
%TO.P,U4,2*%
%TO.N,Net-(RV1-Pad2)*%
X142840000Y-101620000D03*
%TO.P,U4,3*%
%TO.N,Net-(U1-VCOin)*%
X145380000Y-101620000D03*
%TO.P,U4,4*%
%TO.N,Net-(RV2-Pad2)*%
X147920000Y-101620000D03*
%TO.P,U4,5*%
%TO.N,GND*%
X150460000Y-101620000D03*
%TO.P,U4,6*%
%TO.N,unconnected-(U4-Pad6)*%
X153000000Y-101620000D03*
%TO.P,U4,7,VSS_7*%
%TO.N,GND*%
X155540000Y-101620000D03*
%TO.P,U4,8*%
%TO.N,unconnected-(U4-Pad8)*%
X155540000Y-94000000D03*
%TO.P,U4,9*%
%TO.N,GND*%
X153000000Y-94000000D03*
%TO.P,U4,10*%
%TO.N,unconnected-(U4-Pad10)*%
X150460000Y-94000000D03*
%TO.P,U4,11*%
%TO.N,GND*%
X147920000Y-94000000D03*
%TO.P,U4,12*%
%TO.N,unconnected-(U4-Pad12)*%
X145380000Y-94000000D03*
%TO.P,U4,13*%
%TO.N,GND*%
X142840000Y-94000000D03*
%TO.P,U4,14,VDD_14*%
%TO.N,+5V*%
X140300000Y-94000000D03*
%TD*%
D31*
%TO.N,Net-(U1-R1)*%
X163000000Y-97000000D03*
%TO.N,+12V*%
X110000000Y-90500000D03*
%TO.N,+5V*%
X112500000Y-84500000D03*
X124500000Y-80500000D03*
%TD*%
%TO.N,Net-(U1-R1)*%
D32*
X163000000Y-97000000D02*
X163000000Y-98000000D01*
X168420000Y-103420000D02*
X168420000Y-110000000D01*
X163000000Y-98000000D02*
X168420000Y-103420000D01*
%TO.N,Net-(U1-VCOin)*%
X177000000Y-103000000D02*
X182000000Y-103000000D01*
X171000000Y-109000000D02*
X177000000Y-103000000D01*
X171000000Y-115000000D02*
X171000000Y-109000000D01*
X169000000Y-117000000D02*
X171000000Y-115000000D01*
X169000000Y-124500000D02*
X169000000Y-117000000D01*
X182000000Y-103000000D02*
X183197349Y-101802651D01*
X183197349Y-101802651D02*
X183197349Y-101000000D01*
%TO.N,+5V*%
X153000000Y-91000000D02*
X157000000Y-87000000D01*
X137000000Y-91000000D02*
X153000000Y-91000000D01*
X157000000Y-87000000D02*
X156890000Y-86890000D01*
X156890000Y-86890000D02*
X156890000Y-83810000D01*
X137000000Y-94000000D02*
X137000000Y-91000000D01*
X137000000Y-91000000D02*
X134000000Y-88000000D01*
X134000000Y-88000000D02*
X134000000Y-83000000D01*
X134000000Y-83000000D02*
X131750000Y-80750000D01*
X131750000Y-80750000D02*
X130500000Y-80750000D01*
X147500000Y-121730000D02*
X133000000Y-107230000D01*
X133000000Y-107230000D02*
X133000000Y-98000000D01*
X133000000Y-98000000D02*
X137000000Y-94000000D01*
X137000000Y-94000000D02*
X140300000Y-94000000D01*
%TO.N,Net-(D2-K)*%
X147500000Y-124270000D02*
X140270000Y-124270000D01*
X140270000Y-124270000D02*
X126000000Y-110000000D01*
%TO.N,Net-(U1-VCOin)*%
X139110000Y-83810000D02*
X139000000Y-83920000D01*
%TO.N,+12V*%
D33*
X102200000Y-109500000D02*
X102200000Y-106800000D01*
X117000000Y-71500000D02*
X117000000Y-72500000D01*
X108000000Y-92500000D02*
X110000000Y-90500000D01*
X117000000Y-72500000D02*
X117460000Y-72960000D01*
X105000000Y-73840000D02*
X110570000Y-73840000D01*
X117460000Y-72960000D02*
X117460000Y-80730000D01*
X108000000Y-101000000D02*
X108000000Y-92500000D01*
X102200000Y-106800000D02*
X108000000Y-101000000D01*
X126500000Y-71500000D02*
X117000000Y-71500000D01*
X110570000Y-73840000D02*
X117460000Y-80730000D01*
X133500000Y-64500000D02*
X126500000Y-71500000D01*
%TO.N,Net-(RV2-Pad2)*%
D34*
X174000000Y-124500000D02*
X174600000Y-123900000D01*
%TO.N,+5V*%
D33*
X122500000Y-84500000D02*
X112500000Y-84500000D01*
X122540000Y-80730000D02*
X124270000Y-80730000D01*
D34*
X130480000Y-80730000D02*
X130500000Y-80750000D01*
D33*
X122540000Y-80730000D02*
X122540000Y-84460000D01*
X124270000Y-80730000D02*
X124500000Y-80500000D01*
X122540000Y-84460000D02*
X122500000Y-84500000D01*
%TO.N,Net-(SW1-A)*%
D32*
X180092500Y-72500000D02*
X167457500Y-72500000D01*
X155547080Y-65850000D02*
X162197080Y-72500000D01*
X147070000Y-65850000D02*
X155547080Y-65850000D01*
X162197080Y-72500000D02*
X167457500Y-72500000D01*
X145920000Y-67000000D02*
X147070000Y-65850000D01*
%TO.N,Net-(D1-A)*%
X148460000Y-67000000D02*
X142460000Y-73000000D01*
X125500000Y-79500000D02*
X125500000Y-84500000D01*
X142460000Y-73000000D02*
X132000000Y-73000000D01*
X109000000Y-88000000D02*
X105000000Y-84000000D01*
X132000000Y-73000000D02*
X125500000Y-79500000D01*
X122000000Y-88000000D02*
X109000000Y-88000000D01*
X125500000Y-84500000D02*
X122000000Y-88000000D01*
%TO.N,Net-(U1-FOUT)*%
X165090000Y-74590000D02*
X150870000Y-74590000D01*
X150870000Y-74590000D02*
X149270000Y-76190000D01*
X172500000Y-82000000D02*
X165090000Y-74590000D01*
%TD*%
%TA.AperFunction,Conductor*%
%TO.N,GND*%
G36*
X192502702Y-59000617D02*
G01*
X192886773Y-59017386D01*
X192897505Y-59018326D01*
X193275963Y-59068150D01*
X193286601Y-59070025D01*
X193659279Y-59152647D01*
X193669720Y-59155445D01*
X194033765Y-59270227D01*
X194043911Y-59273920D01*
X194396578Y-59420000D01*
X194406369Y-59424566D01*
X194744942Y-59600816D01*
X194754310Y-59606224D01*
X195076244Y-59811318D01*
X195085105Y-59817523D01*
X195387930Y-60049889D01*
X195396217Y-60056843D01*
X195677635Y-60314715D01*
X195685284Y-60322364D01*
X195943156Y-60603782D01*
X195950110Y-60612069D01*
X196182476Y-60914894D01*
X196188681Y-60923755D01*
X196393775Y-61245689D01*
X196399183Y-61255057D01*
X196575430Y-61593623D01*
X196580002Y-61603427D01*
X196726075Y-61956078D01*
X196729775Y-61966244D01*
X196844553Y-62330276D01*
X196847353Y-62340724D01*
X196929972Y-62713390D01*
X196931850Y-62724044D01*
X196981671Y-63102472D01*
X196982613Y-63113247D01*
X196985672Y-63183299D01*
X196999382Y-63497297D01*
X196999500Y-63502706D01*
X196999500Y-123497293D01*
X196999382Y-123502702D01*
X196982614Y-123886751D01*
X196981671Y-123897527D01*
X196931850Y-124275955D01*
X196929972Y-124286609D01*
X196847353Y-124659275D01*
X196844553Y-124669723D01*
X196729775Y-125033755D01*
X196726075Y-125043921D01*
X196580002Y-125396572D01*
X196575430Y-125406376D01*
X196399183Y-125744942D01*
X196393775Y-125754310D01*
X196188681Y-126076244D01*
X196182476Y-126085105D01*
X195950110Y-126387930D01*
X195943156Y-126396217D01*
X195685284Y-126677635D01*
X195677635Y-126685284D01*
X195396217Y-126943156D01*
X195387930Y-126950110D01*
X195085105Y-127182476D01*
X195076244Y-127188681D01*
X194754310Y-127393775D01*
X194744942Y-127399183D01*
X194406376Y-127575430D01*
X194396572Y-127580002D01*
X194043921Y-127726075D01*
X194033755Y-127729775D01*
X193669723Y-127844553D01*
X193659275Y-127847353D01*
X193286609Y-127929972D01*
X193275955Y-127931850D01*
X192897527Y-127981671D01*
X192886751Y-127982614D01*
X192502703Y-127999382D01*
X192497294Y-127999500D01*
X102502706Y-127999500D01*
X102497297Y-127999382D01*
X102113248Y-127982614D01*
X102102474Y-127981671D01*
X102040007Y-127973447D01*
X101724044Y-127931850D01*
X101713390Y-127929972D01*
X101340724Y-127847353D01*
X101330276Y-127844553D01*
X100966244Y-127729775D01*
X100956078Y-127726075D01*
X100603427Y-127580002D01*
X100593623Y-127575430D01*
X100255057Y-127399183D01*
X100245689Y-127393775D01*
X99923755Y-127188681D01*
X99914894Y-127182476D01*
X99612069Y-126950110D01*
X99603782Y-126943156D01*
X99322364Y-126685284D01*
X99314715Y-126677635D01*
X99056843Y-126396217D01*
X99049889Y-126387930D01*
X98817523Y-126085105D01*
X98811318Y-126076244D01*
X98767384Y-126007282D01*
X98606223Y-125754309D01*
X98600816Y-125744942D01*
X98562063Y-125670498D01*
X98424566Y-125406369D01*
X98419997Y-125396572D01*
X98415904Y-125386690D01*
X98273920Y-125043911D01*
X98270224Y-125033755D01*
X98241792Y-124943581D01*
X98155445Y-124669720D01*
X98152646Y-124659275D01*
X98088268Y-124368886D01*
X98070025Y-124286601D01*
X98068149Y-124275955D01*
X98046154Y-124108884D01*
X98018326Y-123897505D01*
X98017386Y-123886773D01*
X98000618Y-123502702D01*
X98000500Y-123497293D01*
X98000500Y-123378711D01*
X100649500Y-123378711D01*
X100649500Y-123621288D01*
X100681161Y-123861785D01*
X100743947Y-124096104D01*
X100822857Y-124286609D01*
X100836776Y-124320212D01*
X100958064Y-124530289D01*
X100958066Y-124530292D01*
X100958067Y-124530293D01*
X101105733Y-124722736D01*
X101105739Y-124722743D01*
X101277256Y-124894260D01*
X101277262Y-124894265D01*
X101469711Y-125041936D01*
X101679788Y-125163224D01*
X101903900Y-125256054D01*
X102138211Y-125318838D01*
X102318586Y-125342584D01*
X102378711Y-125350500D01*
X102378712Y-125350500D01*
X102621289Y-125350500D01*
X102669388Y-125344167D01*
X102861789Y-125318838D01*
X103096100Y-125256054D01*
X103320212Y-125163224D01*
X103530289Y-125041936D01*
X103722738Y-124894265D01*
X103894265Y-124722738D01*
X104041936Y-124530289D01*
X104163224Y-124320212D01*
X104256054Y-124096100D01*
X104318838Y-123861789D01*
X104350500Y-123621288D01*
X104350500Y-123378712D01*
X104318838Y-123138211D01*
X104268979Y-122952135D01*
X114499500Y-122952135D01*
X114499500Y-126047870D01*
X114499501Y-126047876D01*
X114505908Y-126107483D01*
X114556202Y-126242328D01*
X114556206Y-126242335D01*
X114642452Y-126357544D01*
X114642455Y-126357547D01*
X114757664Y-126443793D01*
X114757671Y-126443797D01*
X114892517Y-126494091D01*
X114892516Y-126494091D01*
X114899444Y-126494835D01*
X114952127Y-126500500D01*
X118047872Y-126500499D01*
X118107483Y-126494091D01*
X118242331Y-126443796D01*
X118357546Y-126357546D01*
X118443796Y-126242331D01*
X118494091Y-126107483D01*
X118500500Y-126047873D01*
X118500499Y-124368872D01*
X119499500Y-124368872D01*
X119499500Y-124631127D01*
X119523592Y-124814111D01*
X119533730Y-124891116D01*
X119601602Y-125144418D01*
X119601605Y-125144428D01*
X119701953Y-125386690D01*
X119701958Y-125386700D01*
X119833075Y-125613803D01*
X119992718Y-125821851D01*
X119992726Y-125821860D01*
X120178140Y-126007274D01*
X120178148Y-126007281D01*
X120386196Y-126166924D01*
X120613299Y-126298041D01*
X120613309Y-126298046D01*
X120855571Y-126398394D01*
X120855581Y-126398398D01*
X121108884Y-126466270D01*
X121357188Y-126498960D01*
X121368864Y-126500498D01*
X121368880Y-126500500D01*
X121368887Y-126500500D01*
X121631113Y-126500500D01*
X121631120Y-126500500D01*
X121891116Y-126466270D01*
X122144419Y-126398398D01*
X122386697Y-126298043D01*
X122613803Y-126166924D01*
X122821851Y-126007282D01*
X122821855Y-126007277D01*
X122821860Y-126007274D01*
X123007274Y-125821860D01*
X123007277Y-125821855D01*
X123007282Y-125821851D01*
X123166924Y-125613803D01*
X123298043Y-125386697D01*
X123398398Y-125144419D01*
X123466270Y-124891116D01*
X123500500Y-124631120D01*
X123500500Y-124368880D01*
X123500499Y-124368872D01*
X124499500Y-124368872D01*
X124499500Y-124631127D01*
X124523592Y-124814111D01*
X124533730Y-124891116D01*
X124601602Y-125144418D01*
X124601605Y-125144428D01*
X124701953Y-125386690D01*
X124701958Y-125386700D01*
X124833075Y-125613803D01*
X124992718Y-125821851D01*
X124992726Y-125821860D01*
X125178140Y-126007274D01*
X125178148Y-126007281D01*
X125386196Y-126166924D01*
X125613299Y-126298041D01*
X125613309Y-126298046D01*
X125855571Y-126398394D01*
X125855581Y-126398398D01*
X126108884Y-126466270D01*
X126357188Y-126498960D01*
X126368864Y-126500498D01*
X126368880Y-126500500D01*
X126368887Y-126500500D01*
X126631113Y-126500500D01*
X126631120Y-126500500D01*
X126891116Y-126466270D01*
X127144419Y-126398398D01*
X127386697Y-126298043D01*
X127613803Y-126166924D01*
X127821851Y-126007282D01*
X127821855Y-126007277D01*
X127821860Y-126007274D01*
X128007274Y-125821860D01*
X128007277Y-125821855D01*
X128007282Y-125821851D01*
X128166924Y-125613803D01*
X128298043Y-125386697D01*
X128398398Y-125144419D01*
X128466270Y-124891116D01*
X128500500Y-124631120D01*
X128500500Y-124368880D01*
X128466270Y-124108884D01*
X128398398Y-123855581D01*
X128301351Y-123621288D01*
X128298046Y-123613309D01*
X128298041Y-123613299D01*
X128166924Y-123386196D01*
X128007281Y-123178148D01*
X128007274Y-123178140D01*
X127821860Y-122992726D01*
X127821851Y-122992718D01*
X127613803Y-122833075D01*
X127386700Y-122701958D01*
X127386690Y-122701953D01*
X127144428Y-122601605D01*
X127144421Y-122601603D01*
X127144419Y-122601602D01*
X126891116Y-122533730D01*
X126833339Y-122526123D01*
X126631127Y-122499500D01*
X126631120Y-122499500D01*
X126368880Y-122499500D01*
X126368872Y-122499500D01*
X126137772Y-122529926D01*
X126108884Y-122533730D01*
X125855581Y-122601602D01*
X125855571Y-122601605D01*
X125613309Y-122701953D01*
X125613299Y-122701958D01*
X125386196Y-122833075D01*
X125178148Y-122992718D01*
X124992718Y-123178148D01*
X124833075Y-123386196D01*
X124701958Y-123613299D01*
X124701953Y-123613309D01*
X124601605Y-123855571D01*
X124601602Y-123855581D01*
X124537155Y-124096104D01*
X124533730Y-124108885D01*
X124499500Y-124368872D01*
X123500499Y-124368872D01*
X123466270Y-124108884D01*
X123398398Y-123855581D01*
X123301351Y-123621288D01*
X123298046Y-123613309D01*
X123298041Y-123613299D01*
X123166924Y-123386196D01*
X123007281Y-123178148D01*
X123007274Y-123178140D01*
X122821860Y-122992726D01*
X122821851Y-122992718D01*
X122613803Y-122833075D01*
X122386700Y-122701958D01*
X122386690Y-122701953D01*
X122144428Y-122601605D01*
X122144421Y-122601603D01*
X122144419Y-122601602D01*
X121891116Y-122533730D01*
X121833339Y-122526123D01*
X121631127Y-122499500D01*
X121631120Y-122499500D01*
X121368880Y-122499500D01*
X121368872Y-122499500D01*
X121137772Y-122529926D01*
X121108884Y-122533730D01*
X120855581Y-122601602D01*
X120855571Y-122601605D01*
X120613309Y-122701953D01*
X120613299Y-122701958D01*
X120386196Y-122833075D01*
X120178148Y-122992718D01*
X119992718Y-123178148D01*
X119833075Y-123386196D01*
X119701958Y-123613299D01*
X119701953Y-123613309D01*
X119601605Y-123855571D01*
X119601602Y-123855581D01*
X119537155Y-124096104D01*
X119533730Y-124108885D01*
X119499500Y-124368872D01*
X118500499Y-124368872D01*
X118500499Y-122952128D01*
X118494091Y-122892517D01*
X118485506Y-122869500D01*
X118443797Y-122757671D01*
X118443793Y-122757664D01*
X118357547Y-122642455D01*
X118357544Y-122642452D01*
X118242335Y-122556206D01*
X118242328Y-122556202D01*
X118107482Y-122505908D01*
X118107483Y-122505908D01*
X118047883Y-122499501D01*
X118047881Y-122499500D01*
X118047873Y-122499500D01*
X118047864Y-122499500D01*
X114952129Y-122499500D01*
X114952123Y-122499501D01*
X114892516Y-122505908D01*
X114757671Y-122556202D01*
X114757664Y-122556206D01*
X114642455Y-122642452D01*
X114642452Y-122642455D01*
X114556206Y-122757664D01*
X114556202Y-122757671D01*
X114505908Y-122892517D01*
X114499501Y-122952116D01*
X114499501Y-122952123D01*
X114499500Y-122952135D01*
X104268979Y-122952135D01*
X104256054Y-122903900D01*
X104163224Y-122679788D01*
X104041936Y-122469711D01*
X103894265Y-122277262D01*
X103894260Y-122277256D01*
X103722743Y-122105739D01*
X103722736Y-122105733D01*
X103530293Y-121958067D01*
X103530292Y-121958066D01*
X103530289Y-121958064D01*
X103320212Y-121836776D01*
X103320205Y-121836773D01*
X103096104Y-121743947D01*
X102861785Y-121681161D01*
X102621289Y-121649500D01*
X102621288Y-121649500D01*
X102378712Y-121649500D01*
X102378711Y-121649500D01*
X102138214Y-121681161D01*
X101903895Y-121743947D01*
X101679794Y-121836773D01*
X101679785Y-121836777D01*
X101469706Y-121958067D01*
X101277263Y-122105733D01*
X101277256Y-122105739D01*
X101105739Y-122277256D01*
X101105733Y-122277263D01*
X100958067Y-122469706D01*
X100958064Y-122469710D01*
X100958064Y-122469711D01*
X100947335Y-122488294D01*
X100836777Y-122679785D01*
X100836773Y-122679794D01*
X100743947Y-122903895D01*
X100681161Y-123138214D01*
X100649500Y-123378711D01*
X98000500Y-123378711D01*
X98000500Y-108899983D01*
X100899500Y-108899983D01*
X100899500Y-110100001D01*
X100899501Y-110100018D01*
X100910000Y-110202796D01*
X100910001Y-110202799D01*
X100959957Y-110353553D01*
X100965186Y-110369334D01*
X101057288Y-110518656D01*
X101181344Y-110642712D01*
X101330666Y-110734814D01*
X101497203Y-110789999D01*
X101599991Y-110800500D01*
X102800008Y-110800499D01*
X102902797Y-110789999D01*
X103069334Y-110734814D01*
X103218656Y-110642712D01*
X103342712Y-110518656D01*
X103434814Y-110369334D01*
X103489999Y-110202797D01*
X103500500Y-110100009D01*
X103500499Y-109397682D01*
X104700000Y-109397682D01*
X104700000Y-109602317D01*
X104732009Y-109804417D01*
X104795244Y-109999031D01*
X104888141Y-110181350D01*
X104888147Y-110181359D01*
X104920523Y-110225921D01*
X104920524Y-110225922D01*
X105600000Y-109546446D01*
X105600000Y-109552661D01*
X105627259Y-109654394D01*
X105679920Y-109745606D01*
X105754394Y-109820080D01*
X105845606Y-109872741D01*
X105947339Y-109900000D01*
X105953553Y-109900000D01*
X105274076Y-110579474D01*
X105318650Y-110611859D01*
X105500968Y-110704755D01*
X105695582Y-110767990D01*
X105897683Y-110800000D01*
X106102317Y-110800000D01*
X106304417Y-110767990D01*
X106499031Y-110704755D01*
X106681349Y-110611859D01*
X106725921Y-110579474D01*
X106046447Y-109900000D01*
X106052661Y-109900000D01*
X106154394Y-109872741D01*
X106245606Y-109820080D01*
X106320080Y-109745606D01*
X106372741Y-109654394D01*
X106400000Y-109552661D01*
X106400000Y-109546447D01*
X107079474Y-110225921D01*
X107111859Y-110181349D01*
X107204755Y-109999031D01*
X107237686Y-109897682D01*
X114540000Y-109897682D01*
X114540000Y-110102317D01*
X114572009Y-110304417D01*
X114635244Y-110499031D01*
X114728141Y-110681350D01*
X114728147Y-110681359D01*
X114760523Y-110725921D01*
X114760524Y-110725922D01*
X115440000Y-110046446D01*
X115440000Y-110052661D01*
X115467259Y-110154394D01*
X115519920Y-110245606D01*
X115594394Y-110320080D01*
X115685606Y-110372741D01*
X115787339Y-110400000D01*
X115793553Y-110400000D01*
X115114076Y-111079474D01*
X115158650Y-111111859D01*
X115340968Y-111204755D01*
X115535582Y-111267990D01*
X115737683Y-111300000D01*
X115942317Y-111300000D01*
X116144417Y-111267990D01*
X116339031Y-111204755D01*
X116521349Y-111111859D01*
X116565921Y-111079474D01*
X115886447Y-110400000D01*
X115892661Y-110400000D01*
X115994394Y-110372741D01*
X116085606Y-110320080D01*
X116160080Y-110245606D01*
X116212741Y-110154394D01*
X116240000Y-110052661D01*
X116240000Y-110046448D01*
X116919474Y-110725922D01*
X116919474Y-110725921D01*
X116951859Y-110681349D01*
X117044755Y-110499031D01*
X117107990Y-110304417D01*
X117140000Y-110102317D01*
X117140000Y-109897682D01*
X117139995Y-109897648D01*
X124699500Y-109897648D01*
X124699500Y-110102351D01*
X124731522Y-110304534D01*
X124794781Y-110499223D01*
X124835672Y-110579474D01*
X124887585Y-110681359D01*
X124887715Y-110681613D01*
X125008028Y-110847213D01*
X125152786Y-110991971D01*
X125273226Y-111079474D01*
X125318390Y-111112287D01*
X125434607Y-111171503D01*
X125500776Y-111205218D01*
X125500778Y-111205218D01*
X125500781Y-111205220D01*
X125605137Y-111239127D01*
X125695465Y-111268477D01*
X125796557Y-111284488D01*
X125897648Y-111300500D01*
X125897649Y-111300500D01*
X126102350Y-111300500D01*
X126102352Y-111300500D01*
X126219068Y-111282013D01*
X126288362Y-111290967D01*
X126326148Y-111316805D01*
X139823453Y-124814111D01*
X139823454Y-124814112D01*
X139938192Y-124890777D01*
X140065667Y-124943578D01*
X140065672Y-124943580D01*
X140065676Y-124943580D01*
X140065677Y-124943581D01*
X140201004Y-124970500D01*
X140201007Y-124970500D01*
X140338994Y-124970500D01*
X145975501Y-124970500D01*
X146042540Y-124990185D01*
X146088295Y-125042989D01*
X146099501Y-125094500D01*
X146099501Y-125217876D01*
X146105908Y-125277483D01*
X146156202Y-125412328D01*
X146156206Y-125412335D01*
X146242452Y-125527544D01*
X146242455Y-125527547D01*
X146357664Y-125613793D01*
X146357671Y-125613797D01*
X146492517Y-125664091D01*
X146492516Y-125664091D01*
X146499444Y-125664835D01*
X146552127Y-125670500D01*
X148447872Y-125670499D01*
X148507483Y-125664091D01*
X148642331Y-125613796D01*
X148757546Y-125527546D01*
X148843796Y-125412331D01*
X148894091Y-125277483D01*
X148900500Y-125217873D01*
X148900499Y-123322128D01*
X148894091Y-123262517D01*
X148862623Y-123178148D01*
X148843797Y-123127671D01*
X148843796Y-123127669D01*
X148765528Y-123023117D01*
X148757546Y-123012454D01*
X148757544Y-123012453D01*
X148757544Y-123012452D01*
X148676971Y-122952135D01*
X166999500Y-122952135D01*
X166999500Y-126047870D01*
X166999501Y-126047876D01*
X167005908Y-126107483D01*
X167056202Y-126242328D01*
X167056206Y-126242335D01*
X167142452Y-126357544D01*
X167142455Y-126357547D01*
X167257664Y-126443793D01*
X167257671Y-126443797D01*
X167392517Y-126494091D01*
X167392516Y-126494091D01*
X167399444Y-126494835D01*
X167452127Y-126500500D01*
X170547872Y-126500499D01*
X170607483Y-126494091D01*
X170742331Y-126443796D01*
X170857546Y-126357546D01*
X170943796Y-126242331D01*
X170994091Y-126107483D01*
X171000500Y-126047873D01*
X171000499Y-124368872D01*
X171999500Y-124368872D01*
X171999500Y-124631127D01*
X172023592Y-124814111D01*
X172033730Y-124891116D01*
X172101602Y-125144418D01*
X172101605Y-125144428D01*
X172201953Y-125386690D01*
X172201958Y-125386700D01*
X172333075Y-125613803D01*
X172492718Y-125821851D01*
X172492726Y-125821860D01*
X172678140Y-126007274D01*
X172678148Y-126007281D01*
X172886196Y-126166924D01*
X173113299Y-126298041D01*
X173113309Y-126298046D01*
X173355571Y-126398394D01*
X173355581Y-126398398D01*
X173608884Y-126466270D01*
X173857188Y-126498960D01*
X173868864Y-126500498D01*
X173868880Y-126500500D01*
X173868887Y-126500500D01*
X174131113Y-126500500D01*
X174131120Y-126500500D01*
X174391116Y-126466270D01*
X174644419Y-126398398D01*
X174886697Y-126298043D01*
X175113803Y-126166924D01*
X175321851Y-126007282D01*
X175321855Y-126007277D01*
X175321860Y-126007274D01*
X175507274Y-125821860D01*
X175507277Y-125821855D01*
X175507282Y-125821851D01*
X175666924Y-125613803D01*
X175798043Y-125386697D01*
X175898398Y-125144419D01*
X175966270Y-124891116D01*
X176000500Y-124631120D01*
X176000500Y-124368880D01*
X176000499Y-124368872D01*
X176999500Y-124368872D01*
X176999500Y-124631127D01*
X177023592Y-124814111D01*
X177033730Y-124891116D01*
X177101602Y-125144418D01*
X177101605Y-125144428D01*
X177201953Y-125386690D01*
X177201958Y-125386700D01*
X177333075Y-125613803D01*
X177492718Y-125821851D01*
X177492726Y-125821860D01*
X177678140Y-126007274D01*
X177678148Y-126007281D01*
X177886196Y-126166924D01*
X178113299Y-126298041D01*
X178113309Y-126298046D01*
X178355571Y-126398394D01*
X178355581Y-126398398D01*
X178608884Y-126466270D01*
X178857188Y-126498960D01*
X178868864Y-126500498D01*
X178868880Y-126500500D01*
X178868887Y-126500500D01*
X179131113Y-126500500D01*
X179131120Y-126500500D01*
X179391116Y-126466270D01*
X179644419Y-126398398D01*
X179886697Y-126298043D01*
X180113803Y-126166924D01*
X180321851Y-126007282D01*
X180321855Y-126007277D01*
X180321860Y-126007274D01*
X180507274Y-125821860D01*
X180507277Y-125821855D01*
X180507282Y-125821851D01*
X180666924Y-125613803D01*
X180798043Y-125386697D01*
X180898398Y-125144419D01*
X180966270Y-124891116D01*
X181000500Y-124631120D01*
X181000500Y-124368880D01*
X180966270Y-124108884D01*
X180898398Y-123855581D01*
X180801351Y-123621288D01*
X180798046Y-123613309D01*
X180798041Y-123613299D01*
X180696055Y-123436653D01*
X180666924Y-123386196D01*
X180661180Y-123378711D01*
X190649500Y-123378711D01*
X190649500Y-123621288D01*
X190681161Y-123861785D01*
X190743947Y-124096104D01*
X190822857Y-124286609D01*
X190836776Y-124320212D01*
X190958064Y-124530289D01*
X190958066Y-124530292D01*
X190958067Y-124530293D01*
X191105733Y-124722736D01*
X191105739Y-124722743D01*
X191277256Y-124894260D01*
X191277262Y-124894265D01*
X191469711Y-125041936D01*
X191679788Y-125163224D01*
X191903900Y-125256054D01*
X192138211Y-125318838D01*
X192318586Y-125342584D01*
X192378711Y-125350500D01*
X192378712Y-125350500D01*
X192621289Y-125350500D01*
X192669388Y-125344167D01*
X192861789Y-125318838D01*
X193096100Y-125256054D01*
X193320212Y-125163224D01*
X193530289Y-125041936D01*
X193722738Y-124894265D01*
X193894265Y-124722738D01*
X194041936Y-124530289D01*
X194163224Y-124320212D01*
X194256054Y-124096100D01*
X194318838Y-123861789D01*
X194350500Y-123621288D01*
X194350500Y-123378712D01*
X194318838Y-123138211D01*
X194256054Y-122903900D01*
X194163224Y-122679788D01*
X194041936Y-122469711D01*
X193894265Y-122277262D01*
X193894260Y-122277256D01*
X193722743Y-122105739D01*
X193722736Y-122105733D01*
X193530293Y-121958067D01*
X193530292Y-121958066D01*
X193530289Y-121958064D01*
X193320212Y-121836776D01*
X193320205Y-121836773D01*
X193096104Y-121743947D01*
X192861785Y-121681161D01*
X192621289Y-121649500D01*
X192621288Y-121649500D01*
X192378712Y-121649500D01*
X192378711Y-121649500D01*
X192138214Y-121681161D01*
X191903895Y-121743947D01*
X191679794Y-121836773D01*
X191679785Y-121836777D01*
X191469706Y-121958067D01*
X191277263Y-122105733D01*
X191277256Y-122105739D01*
X191105739Y-122277256D01*
X191105733Y-122277263D01*
X190958067Y-122469706D01*
X190958064Y-122469710D01*
X190958064Y-122469711D01*
X190947335Y-122488294D01*
X190836777Y-122679785D01*
X190836773Y-122679794D01*
X190743947Y-122903895D01*
X190681161Y-123138214D01*
X190649500Y-123378711D01*
X180661180Y-123378711D01*
X180507281Y-123178148D01*
X180507274Y-123178140D01*
X180321860Y-122992726D01*
X180321851Y-122992718D01*
X180113803Y-122833075D01*
X179886700Y-122701958D01*
X179886690Y-122701953D01*
X179644428Y-122601605D01*
X179644421Y-122601603D01*
X179644419Y-122601602D01*
X179391116Y-122533730D01*
X179333339Y-122526123D01*
X179131127Y-122499500D01*
X179131120Y-122499500D01*
X178868880Y-122499500D01*
X178868872Y-122499500D01*
X178637772Y-122529926D01*
X178608884Y-122533730D01*
X178355581Y-122601602D01*
X178355571Y-122601605D01*
X178113309Y-122701953D01*
X178113299Y-122701958D01*
X177886196Y-122833075D01*
X177678148Y-122992718D01*
X177492718Y-123178148D01*
X177333075Y-123386196D01*
X177201958Y-123613299D01*
X177201953Y-123613309D01*
X177101605Y-123855571D01*
X177101602Y-123855581D01*
X177037155Y-124096104D01*
X177033730Y-124108885D01*
X176999500Y-124368872D01*
X176000499Y-124368872D01*
X175966270Y-124108884D01*
X175898398Y-123855581D01*
X175801351Y-123621288D01*
X175798046Y-123613309D01*
X175798041Y-123613299D01*
X175666924Y-123386196D01*
X175507281Y-123178148D01*
X175507274Y-123178140D01*
X175321860Y-122992726D01*
X175321851Y-122992718D01*
X175113803Y-122833075D01*
X174886700Y-122701958D01*
X174886690Y-122701953D01*
X174644428Y-122601605D01*
X174644421Y-122601603D01*
X174644419Y-122601602D01*
X174391116Y-122533730D01*
X174333339Y-122526123D01*
X174131127Y-122499500D01*
X174131120Y-122499500D01*
X173868880Y-122499500D01*
X173868872Y-122499500D01*
X173637772Y-122529926D01*
X173608884Y-122533730D01*
X173355581Y-122601602D01*
X173355571Y-122601605D01*
X173113309Y-122701953D01*
X173113299Y-122701958D01*
X172886196Y-122833075D01*
X172678148Y-122992718D01*
X172492718Y-123178148D01*
X172333075Y-123386196D01*
X172201958Y-123613299D01*
X172201953Y-123613309D01*
X172101605Y-123855571D01*
X172101602Y-123855581D01*
X172037155Y-124096104D01*
X172033730Y-124108885D01*
X171999500Y-124368872D01*
X171000499Y-124368872D01*
X171000499Y-122952128D01*
X170994091Y-122892517D01*
X170985506Y-122869500D01*
X170943797Y-122757671D01*
X170943793Y-122757664D01*
X170857547Y-122642455D01*
X170857544Y-122642452D01*
X170742335Y-122556206D01*
X170742328Y-122556202D01*
X170607482Y-122505908D01*
X170607483Y-122505908D01*
X170547883Y-122499501D01*
X170547881Y-122499500D01*
X170547873Y-122499500D01*
X170547865Y-122499500D01*
X169824500Y-122499500D01*
X169757461Y-122479815D01*
X169711706Y-122427011D01*
X169700500Y-122375500D01*
X169700500Y-117341519D01*
X169720185Y-117274480D01*
X169736819Y-117253838D01*
X171544112Y-115446545D01*
X171544114Y-115446543D01*
X171620775Y-115331811D01*
X171673580Y-115204328D01*
X171700500Y-115068993D01*
X171700500Y-109897682D01*
X177280000Y-109897682D01*
X177280000Y-110102317D01*
X177312009Y-110304417D01*
X177375244Y-110499031D01*
X177468141Y-110681350D01*
X177468147Y-110681359D01*
X177500523Y-110725921D01*
X177500524Y-110725922D01*
X178180000Y-110046446D01*
X178180000Y-110052661D01*
X178207259Y-110154394D01*
X178259920Y-110245606D01*
X178334394Y-110320080D01*
X178425606Y-110372741D01*
X178527339Y-110400000D01*
X178533553Y-110400000D01*
X177854076Y-111079474D01*
X177898650Y-111111859D01*
X178080968Y-111204755D01*
X178275582Y-111267990D01*
X178477683Y-111300000D01*
X178682317Y-111300000D01*
X178884417Y-111267990D01*
X179079031Y-111204755D01*
X179261349Y-111111859D01*
X179305921Y-111079474D01*
X178626447Y-110400000D01*
X178632661Y-110400000D01*
X178734394Y-110372741D01*
X178825606Y-110320080D01*
X178900080Y-110245606D01*
X178952741Y-110154394D01*
X178980000Y-110052661D01*
X178980000Y-110046448D01*
X179659474Y-110725922D01*
X179659474Y-110725921D01*
X179691859Y-110681349D01*
X179784755Y-110499031D01*
X179847990Y-110304417D01*
X179880000Y-110102317D01*
X179880000Y-109897682D01*
X179847990Y-109695582D01*
X179784755Y-109500968D01*
X179691859Y-109318650D01*
X179659474Y-109274077D01*
X179659474Y-109274076D01*
X178980000Y-109953551D01*
X178980000Y-109947339D01*
X178952741Y-109845606D01*
X178900080Y-109754394D01*
X178825606Y-109679920D01*
X178734394Y-109627259D01*
X178632661Y-109600000D01*
X178626446Y-109600000D01*
X179305922Y-108920524D01*
X179305921Y-108920523D01*
X179261359Y-108888147D01*
X179261350Y-108888141D01*
X179079031Y-108795244D01*
X178884417Y-108732009D01*
X178682317Y-108700000D01*
X178477683Y-108700000D01*
X178275582Y-108732009D01*
X178080968Y-108795244D01*
X177898644Y-108888143D01*
X177854077Y-108920523D01*
X177854077Y-108920524D01*
X178533554Y-109600000D01*
X178527339Y-109600000D01*
X178425606Y-109627259D01*
X178334394Y-109679920D01*
X178259920Y-109754394D01*
X178207259Y-109845606D01*
X178180000Y-109947339D01*
X178180000Y-109953553D01*
X177500524Y-109274077D01*
X177500523Y-109274077D01*
X177468143Y-109318644D01*
X177375244Y-109500968D01*
X177312009Y-109695582D01*
X177280000Y-109897682D01*
X171700500Y-109897682D01*
X171700500Y-109341518D01*
X171720185Y-109274479D01*
X171736819Y-109253837D01*
X177253837Y-103736819D01*
X177315160Y-103703334D01*
X177341518Y-103700500D01*
X182068996Y-103700500D01*
X182160040Y-103682389D01*
X182204328Y-103673580D01*
X182268069Y-103647177D01*
X182331807Y-103620777D01*
X182331808Y-103620776D01*
X182331811Y-103620775D01*
X182446543Y-103544114D01*
X183653838Y-102336817D01*
X183715161Y-102303333D01*
X183741519Y-102300499D01*
X183797351Y-102300499D01*
X183797357Y-102300499D01*
X183900146Y-102289999D01*
X184066683Y-102234814D01*
X184216005Y-102142712D01*
X184340061Y-102018656D01*
X184432163Y-101869334D01*
X184487348Y-101702797D01*
X184497849Y-101600009D01*
X184497848Y-100897682D01*
X185697349Y-100897682D01*
X185697349Y-101102317D01*
X185729358Y-101304417D01*
X185792593Y-101499031D01*
X185885490Y-101681350D01*
X185885496Y-101681359D01*
X185917872Y-101725921D01*
X185917873Y-101725922D01*
X186597349Y-101046446D01*
X186597349Y-101052661D01*
X186624608Y-101154394D01*
X186677269Y-101245606D01*
X186751743Y-101320080D01*
X186842955Y-101372741D01*
X186944688Y-101400000D01*
X186950902Y-101400000D01*
X186271425Y-102079474D01*
X186315999Y-102111859D01*
X186498317Y-102204755D01*
X186692931Y-102267990D01*
X186895032Y-102300000D01*
X187099666Y-102300000D01*
X187301766Y-102267990D01*
X187496380Y-102204755D01*
X187678698Y-102111859D01*
X187723270Y-102079474D01*
X187043796Y-101400000D01*
X187050010Y-101400000D01*
X187151743Y-101372741D01*
X187242955Y-101320080D01*
X187317429Y-101245606D01*
X187370090Y-101154394D01*
X187397349Y-101052661D01*
X187397349Y-101046447D01*
X188076823Y-101725921D01*
X188109208Y-101681349D01*
X188202104Y-101499031D01*
X188265339Y-101304417D01*
X188297349Y-101102317D01*
X188297349Y-100897682D01*
X188265339Y-100695582D01*
X188202104Y-100500968D01*
X188109208Y-100318650D01*
X188076823Y-100274077D01*
X188076823Y-100274076D01*
X187397349Y-100953551D01*
X187397349Y-100947339D01*
X187370090Y-100845606D01*
X187317429Y-100754394D01*
X187242955Y-100679920D01*
X187151743Y-100627259D01*
X187050010Y-100600000D01*
X187043795Y-100600000D01*
X187723271Y-99920524D01*
X187723270Y-99920523D01*
X187678708Y-99888147D01*
X187678699Y-99888141D01*
X187496380Y-99795244D01*
X187301766Y-99732009D01*
X187099666Y-99700000D01*
X186895032Y-99700000D01*
X186692931Y-99732009D01*
X186498317Y-99795244D01*
X186315993Y-99888143D01*
X186271426Y-99920523D01*
X186271426Y-99920524D01*
X186950903Y-100600000D01*
X186944688Y-100600000D01*
X186842955Y-100627259D01*
X186751743Y-100679920D01*
X186677269Y-100754394D01*
X186624608Y-100845606D01*
X186597349Y-100947339D01*
X186597349Y-100953553D01*
X185917873Y-100274077D01*
X185917872Y-100274077D01*
X185885492Y-100318644D01*
X185792593Y-100500968D01*
X185729358Y-100695582D01*
X185697349Y-100897682D01*
X184497848Y-100897682D01*
X184497848Y-100399992D01*
X184495101Y-100373105D01*
X184487348Y-100297203D01*
X184487347Y-100297200D01*
X184479684Y-100274076D01*
X184432163Y-100130666D01*
X184340061Y-99981344D01*
X184216005Y-99857288D01*
X184066683Y-99765186D01*
X183900146Y-99710001D01*
X183900144Y-99710000D01*
X183797359Y-99699500D01*
X182597347Y-99699500D01*
X182597330Y-99699501D01*
X182494552Y-99710000D01*
X182494549Y-99710001D01*
X182328017Y-99765185D01*
X182328012Y-99765187D01*
X182178691Y-99857289D01*
X182054638Y-99981342D01*
X181962536Y-100130663D01*
X181962535Y-100130666D01*
X181907350Y-100297203D01*
X181907350Y-100297204D01*
X181907349Y-100297204D01*
X181896849Y-100399983D01*
X181896849Y-101600001D01*
X181896850Y-101600018D01*
X181907349Y-101702796D01*
X181907350Y-101702799D01*
X181962534Y-101869331D01*
X181962538Y-101869340D01*
X181978769Y-101895654D01*
X181997209Y-101963046D01*
X181976286Y-102029710D01*
X181960911Y-102048431D01*
X181746162Y-102263181D01*
X181684839Y-102296666D01*
X181658481Y-102299500D01*
X176931005Y-102299500D01*
X176837546Y-102318090D01*
X176837540Y-102318091D01*
X176830642Y-102319464D01*
X176795671Y-102326420D01*
X176746555Y-102346765D01*
X176741812Y-102348729D01*
X176741795Y-102348735D01*
X176668192Y-102379222D01*
X176658038Y-102386008D01*
X176658035Y-102386010D01*
X176553456Y-102455886D01*
X176553453Y-102455889D01*
X170455888Y-108553453D01*
X170455887Y-108553454D01*
X170379222Y-108668192D01*
X170326421Y-108795667D01*
X170326418Y-108795679D01*
X170305670Y-108899989D01*
X170305670Y-108899991D01*
X170304615Y-108905294D01*
X170299500Y-108931006D01*
X170299500Y-114658480D01*
X170279815Y-114725519D01*
X170263181Y-114746161D01*
X168455888Y-116553453D01*
X168455887Y-116553454D01*
X168379222Y-116668192D01*
X168326421Y-116795667D01*
X168326418Y-116795677D01*
X168299500Y-116931004D01*
X168299500Y-122375500D01*
X168279815Y-122442539D01*
X168227011Y-122488294D01*
X168175500Y-122499500D01*
X167452129Y-122499500D01*
X167452123Y-122499501D01*
X167392516Y-122505908D01*
X167257671Y-122556202D01*
X167257664Y-122556206D01*
X167142455Y-122642452D01*
X167142452Y-122642455D01*
X167056206Y-122757664D01*
X167056202Y-122757671D01*
X167005908Y-122892517D01*
X166999501Y-122952116D01*
X166999501Y-122952123D01*
X166999500Y-122952135D01*
X148676971Y-122952135D01*
X148642335Y-122926206D01*
X148642328Y-122926202D01*
X148562419Y-122896398D01*
X148506485Y-122854527D01*
X148482068Y-122789062D01*
X148496920Y-122720789D01*
X148518069Y-122692537D01*
X148568242Y-122642365D01*
X148697815Y-122464022D01*
X148797895Y-122267606D01*
X148866015Y-122057951D01*
X148900500Y-121840222D01*
X148900500Y-121619778D01*
X148866015Y-121402049D01*
X148797895Y-121192394D01*
X148797895Y-121192393D01*
X148763237Y-121124375D01*
X148697815Y-120995978D01*
X148681260Y-120973192D01*
X148568247Y-120817641D01*
X148568243Y-120817636D01*
X148412363Y-120661756D01*
X148412358Y-120661752D01*
X148234025Y-120532187D01*
X148234024Y-120532186D01*
X148234022Y-120532185D01*
X148171096Y-120500122D01*
X148037606Y-120432104D01*
X148037603Y-120432103D01*
X147827952Y-120363985D01*
X147719086Y-120346742D01*
X147610222Y-120329500D01*
X147389778Y-120329500D01*
X147304877Y-120342946D01*
X147193527Y-120360583D01*
X147124233Y-120351628D01*
X147086448Y-120325791D01*
X133736819Y-106976162D01*
X133703334Y-106914839D01*
X133700500Y-106888481D01*
X133700500Y-100619983D01*
X138999500Y-100619983D01*
X138999500Y-102620001D01*
X138999501Y-102620018D01*
X139010000Y-102722796D01*
X139010001Y-102722799D01*
X139026818Y-102773548D01*
X139065186Y-102889334D01*
X139157288Y-103038656D01*
X139281344Y-103162712D01*
X139430666Y-103254814D01*
X139597203Y-103309999D01*
X139699991Y-103320500D01*
X140900008Y-103320499D01*
X141002797Y-103309999D01*
X141169334Y-103254814D01*
X141318656Y-103162712D01*
X141442712Y-103038656D01*
X141534814Y-102889334D01*
X141561955Y-102807427D01*
X141601726Y-102749984D01*
X141666242Y-102723161D01*
X141735018Y-102735476D01*
X141779977Y-102773547D01*
X141847798Y-102866894D01*
X141848034Y-102867219D01*
X141992786Y-103011971D01*
X142147749Y-103124556D01*
X142158390Y-103132287D01*
X142274607Y-103191503D01*
X142340776Y-103225218D01*
X142340778Y-103225218D01*
X142340781Y-103225220D01*
X142431856Y-103254812D01*
X142535465Y-103288477D01*
X142636557Y-103304488D01*
X142737648Y-103320500D01*
X142737649Y-103320500D01*
X142942351Y-103320500D01*
X142942352Y-103320500D01*
X143144534Y-103288477D01*
X143339219Y-103225220D01*
X143521610Y-103132287D01*
X143650482Y-103038657D01*
X143687213Y-103011971D01*
X143687215Y-103011968D01*
X143687219Y-103011966D01*
X143831966Y-102867219D01*
X143831968Y-102867215D01*
X143831971Y-102867213D01*
X143952284Y-102701614D01*
X143952286Y-102701611D01*
X143952287Y-102701610D01*
X143999516Y-102608917D01*
X144047489Y-102558123D01*
X144115310Y-102541328D01*
X144181445Y-102563865D01*
X144220483Y-102608917D01*
X144226140Y-102620018D01*
X144267715Y-102701614D01*
X144388028Y-102867213D01*
X144532786Y-103011971D01*
X144687749Y-103124556D01*
X144698390Y-103132287D01*
X144814607Y-103191503D01*
X144880776Y-103225218D01*
X144880778Y-103225218D01*
X144880781Y-103225220D01*
X144971856Y-103254812D01*
X145075465Y-103288477D01*
X145176557Y-103304488D01*
X145277648Y-103320500D01*
X145277649Y-103320500D01*
X145482351Y-103320500D01*
X145482352Y-103320500D01*
X145684534Y-103288477D01*
X145879219Y-103225220D01*
X146061610Y-103132287D01*
X146190482Y-103038657D01*
X146227213Y-103011971D01*
X146227215Y-103011968D01*
X146227219Y-103011966D01*
X146371966Y-102867219D01*
X146371968Y-102867215D01*
X146371971Y-102867213D01*
X146492284Y-102701614D01*
X146492286Y-102701611D01*
X146492287Y-102701610D01*
X146539516Y-102608917D01*
X146587489Y-102558123D01*
X146655310Y-102541328D01*
X146721445Y-102563865D01*
X146760483Y-102608917D01*
X146766140Y-102620018D01*
X146807715Y-102701614D01*
X146928028Y-102867213D01*
X147072786Y-103011971D01*
X147227749Y-103124556D01*
X147238390Y-103132287D01*
X147354607Y-103191503D01*
X147420776Y-103225218D01*
X147420778Y-103225218D01*
X147420781Y-103225220D01*
X147511856Y-103254812D01*
X147615465Y-103288477D01*
X147716557Y-103304488D01*
X147817648Y-103320500D01*
X147817649Y-103320500D01*
X148022351Y-103320500D01*
X148022352Y-103320500D01*
X148224534Y-103288477D01*
X148419219Y-103225220D01*
X148601610Y-103132287D01*
X148730482Y-103038657D01*
X148767213Y-103011971D01*
X148767215Y-103011968D01*
X148767219Y-103011966D01*
X148911966Y-102867219D01*
X148911968Y-102867215D01*
X148911971Y-102867213D01*
X149032284Y-102701614D01*
X149032286Y-102701611D01*
X149032287Y-102701610D01*
X149079795Y-102608369D01*
X149127770Y-102557574D01*
X149195591Y-102540779D01*
X149261725Y-102563316D01*
X149300765Y-102608370D01*
X149348140Y-102701349D01*
X149468417Y-102866894D01*
X149468417Y-102866895D01*
X149613104Y-103011582D01*
X149778650Y-103131859D01*
X149960968Y-103224754D01*
X150155578Y-103287988D01*
X150210000Y-103296607D01*
X150210000Y-101935686D01*
X150214394Y-101940080D01*
X150305606Y-101992741D01*
X150407339Y-102020000D01*
X150512661Y-102020000D01*
X150614394Y-101992741D01*
X150705606Y-101940080D01*
X150710000Y-101935686D01*
X150710000Y-103296606D01*
X150764421Y-103287988D01*
X150959031Y-103224754D01*
X151141349Y-103131859D01*
X151306894Y-103011582D01*
X151306895Y-103011582D01*
X151451582Y-102866895D01*
X151451582Y-102866894D01*
X151571861Y-102701347D01*
X151619234Y-102608371D01*
X151667208Y-102557575D01*
X151735028Y-102540779D01*
X151801164Y-102563316D01*
X151840203Y-102608369D01*
X151887713Y-102701611D01*
X152008028Y-102867213D01*
X152152786Y-103011971D01*
X152307749Y-103124556D01*
X152318390Y-103132287D01*
X152434607Y-103191503D01*
X152500776Y-103225218D01*
X152500778Y-103225218D01*
X152500781Y-103225220D01*
X152591856Y-103254812D01*
X152695465Y-103288477D01*
X152796557Y-103304488D01*
X152897648Y-103320500D01*
X152897649Y-103320500D01*
X153102351Y-103320500D01*
X153102352Y-103320500D01*
X153304534Y-103288477D01*
X153499219Y-103225220D01*
X153681610Y-103132287D01*
X153810482Y-103038657D01*
X153847213Y-103011971D01*
X153847215Y-103011968D01*
X153847219Y-103011966D01*
X153991966Y-102867219D01*
X153991968Y-102867215D01*
X153991971Y-102867213D01*
X154112284Y-102701614D01*
X154112286Y-102701611D01*
X154112287Y-102701610D01*
X154159795Y-102608369D01*
X154207770Y-102557574D01*
X154275591Y-102540779D01*
X154341725Y-102563316D01*
X154380765Y-102608370D01*
X154428140Y-102701349D01*
X154548417Y-102866894D01*
X154548417Y-102866895D01*
X154693104Y-103011582D01*
X154858650Y-103131859D01*
X155040968Y-103224754D01*
X155235578Y-103287988D01*
X155290000Y-103296607D01*
X155290000Y-101935686D01*
X155294394Y-101940080D01*
X155385606Y-101992741D01*
X155487339Y-102020000D01*
X155592661Y-102020000D01*
X155694394Y-101992741D01*
X155785606Y-101940080D01*
X155790000Y-101935686D01*
X155790000Y-103296606D01*
X155844421Y-103287988D01*
X156039031Y-103224754D01*
X156221349Y-103131859D01*
X156386894Y-103011582D01*
X156386895Y-103011582D01*
X156531582Y-102866895D01*
X156531582Y-102866894D01*
X156651859Y-102701349D01*
X156744755Y-102519031D01*
X156807990Y-102324417D01*
X156840000Y-102122317D01*
X156840000Y-101870000D01*
X155855686Y-101870000D01*
X155860080Y-101865606D01*
X155912741Y-101774394D01*
X155940000Y-101672661D01*
X155940000Y-101567339D01*
X155912741Y-101465606D01*
X155860080Y-101374394D01*
X155855686Y-101370000D01*
X156840000Y-101370000D01*
X156840000Y-101117682D01*
X156807990Y-100915582D01*
X156744755Y-100720968D01*
X156651859Y-100538650D01*
X156531582Y-100373105D01*
X156531582Y-100373104D01*
X156386895Y-100228417D01*
X156221349Y-100108140D01*
X156039029Y-100015244D01*
X155844413Y-99952009D01*
X155790000Y-99943390D01*
X155790000Y-101304314D01*
X155785606Y-101299920D01*
X155694394Y-101247259D01*
X155592661Y-101220000D01*
X155487339Y-101220000D01*
X155385606Y-101247259D01*
X155294394Y-101299920D01*
X155290000Y-101304314D01*
X155290000Y-99943390D01*
X155235586Y-99952009D01*
X155040970Y-100015244D01*
X154858650Y-100108140D01*
X154693105Y-100228417D01*
X154693104Y-100228417D01*
X154548417Y-100373104D01*
X154548417Y-100373105D01*
X154428140Y-100538650D01*
X154380765Y-100631629D01*
X154332790Y-100682425D01*
X154264969Y-100699220D01*
X154198834Y-100676682D01*
X154159795Y-100631629D01*
X154112419Y-100538650D01*
X154112287Y-100538390D01*
X154060021Y-100466451D01*
X153991971Y-100372786D01*
X153847213Y-100228028D01*
X153681613Y-100107715D01*
X153681612Y-100107714D01*
X153681610Y-100107713D01*
X153621898Y-100077288D01*
X153499223Y-100014781D01*
X153304534Y-99951522D01*
X153129995Y-99923878D01*
X153102352Y-99919500D01*
X152897648Y-99919500D01*
X152873329Y-99923351D01*
X152695465Y-99951522D01*
X152500776Y-100014781D01*
X152318386Y-100107715D01*
X152152786Y-100228028D01*
X152008028Y-100372786D01*
X151887713Y-100538388D01*
X151840203Y-100631630D01*
X151792228Y-100682426D01*
X151724407Y-100699220D01*
X151658272Y-100676682D01*
X151619234Y-100631628D01*
X151571861Y-100538652D01*
X151451582Y-100373105D01*
X151451582Y-100373104D01*
X151306895Y-100228417D01*
X151141349Y-100108140D01*
X150959029Y-100015244D01*
X150764413Y-99952009D01*
X150710000Y-99943390D01*
X150710000Y-101304314D01*
X150705606Y-101299920D01*
X150614394Y-101247259D01*
X150512661Y-101220000D01*
X150407339Y-101220000D01*
X150305606Y-101247259D01*
X150214394Y-101299920D01*
X150210000Y-101304314D01*
X150210000Y-99943390D01*
X150155586Y-99952009D01*
X149960970Y-100015244D01*
X149778650Y-100108140D01*
X149613105Y-100228417D01*
X149613104Y-100228417D01*
X149468417Y-100373104D01*
X149468417Y-100373105D01*
X149348140Y-100538650D01*
X149300765Y-100631629D01*
X149252790Y-100682425D01*
X149184969Y-100699220D01*
X149118834Y-100676682D01*
X149079795Y-100631629D01*
X149032419Y-100538650D01*
X149032287Y-100538390D01*
X148980021Y-100466451D01*
X148911971Y-100372786D01*
X148767213Y-100228028D01*
X148601613Y-100107715D01*
X148601612Y-100107714D01*
X148601610Y-100107713D01*
X148541898Y-100077288D01*
X148419223Y-100014781D01*
X148224534Y-99951522D01*
X148049995Y-99923878D01*
X148022352Y-99919500D01*
X147817648Y-99919500D01*
X147793329Y-99923351D01*
X147615465Y-99951522D01*
X147420776Y-100014781D01*
X147238386Y-100107715D01*
X147072786Y-100228028D01*
X146928028Y-100372786D01*
X146807715Y-100538386D01*
X146760485Y-100631080D01*
X146712510Y-100681876D01*
X146644689Y-100698671D01*
X146578554Y-100676134D01*
X146539515Y-100631080D01*
X146492419Y-100538650D01*
X146492287Y-100538390D01*
X146440021Y-100466451D01*
X146371971Y-100372786D01*
X146227213Y-100228028D01*
X146061613Y-100107715D01*
X146061612Y-100107714D01*
X146061610Y-100107713D01*
X146001898Y-100077288D01*
X145879223Y-100014781D01*
X145684534Y-99951522D01*
X145509995Y-99923878D01*
X145482352Y-99919500D01*
X145277648Y-99919500D01*
X145253329Y-99923351D01*
X145075465Y-99951522D01*
X144880776Y-100014781D01*
X144698386Y-100107715D01*
X144532786Y-100228028D01*
X144388028Y-100372786D01*
X144267715Y-100538386D01*
X144220485Y-100631080D01*
X144172510Y-100681876D01*
X144104689Y-100698671D01*
X144038554Y-100676134D01*
X143999515Y-100631080D01*
X143952419Y-100538650D01*
X143952287Y-100538390D01*
X143900021Y-100466451D01*
X143831971Y-100372786D01*
X143687213Y-100228028D01*
X143521613Y-100107715D01*
X143521612Y-100107714D01*
X143521610Y-100107713D01*
X143461898Y-100077288D01*
X143339223Y-100014781D01*
X143144534Y-99951522D01*
X142969995Y-99923878D01*
X142942352Y-99919500D01*
X142737648Y-99919500D01*
X142713329Y-99923351D01*
X142535465Y-99951522D01*
X142340776Y-100014781D01*
X142158386Y-100107715D01*
X141992786Y-100228028D01*
X141848032Y-100372782D01*
X141848028Y-100372787D01*
X141779978Y-100466451D01*
X141724648Y-100509117D01*
X141655035Y-100515096D01*
X141593240Y-100482490D01*
X141561954Y-100432570D01*
X141551159Y-100399992D01*
X141534814Y-100350666D01*
X141442712Y-100201344D01*
X141318656Y-100077288D01*
X141169334Y-99985186D01*
X141002797Y-99930001D01*
X141002795Y-99930000D01*
X140900010Y-99919500D01*
X139699998Y-99919500D01*
X139699981Y-99919501D01*
X139597203Y-99930000D01*
X139597200Y-99930001D01*
X139430668Y-99985185D01*
X139430663Y-99985187D01*
X139281342Y-100077289D01*
X139157289Y-100201342D01*
X139065187Y-100350663D01*
X139065185Y-100350668D01*
X139048844Y-100399983D01*
X139010001Y-100517203D01*
X139010001Y-100517204D01*
X139010000Y-100517204D01*
X138999500Y-100619983D01*
X133700500Y-100619983D01*
X133700500Y-98341519D01*
X133720185Y-98274480D01*
X133736819Y-98253838D01*
X135069504Y-96921153D01*
X162199500Y-96921153D01*
X162199500Y-97078846D01*
X162230261Y-97233489D01*
X162230264Y-97233501D01*
X162290061Y-97377864D01*
X162299500Y-97425316D01*
X162299500Y-97931006D01*
X162299500Y-98068994D01*
X162299500Y-98068996D01*
X162299499Y-98068996D01*
X162326418Y-98204322D01*
X162326421Y-98204332D01*
X162379222Y-98331807D01*
X162455887Y-98446545D01*
X162455888Y-98446546D01*
X167683181Y-103673838D01*
X167716666Y-103735161D01*
X167719500Y-103761519D01*
X167719500Y-108838255D01*
X167699815Y-108905294D01*
X167668385Y-108938573D01*
X167572787Y-109008028D01*
X167572782Y-109008032D01*
X167428028Y-109152786D01*
X167307715Y-109318386D01*
X167214781Y-109500776D01*
X167151522Y-109695465D01*
X167119500Y-109897648D01*
X167119500Y-110102351D01*
X167151522Y-110304534D01*
X167214781Y-110499223D01*
X167255672Y-110579474D01*
X167307585Y-110681359D01*
X167307715Y-110681613D01*
X167428028Y-110847213D01*
X167572786Y-110991971D01*
X167693226Y-111079474D01*
X167738390Y-111112287D01*
X167854607Y-111171503D01*
X167920776Y-111205218D01*
X167920778Y-111205218D01*
X167920781Y-111205220D01*
X168025137Y-111239127D01*
X168115465Y-111268477D01*
X168216557Y-111284488D01*
X168317648Y-111300500D01*
X168317649Y-111300500D01*
X168522351Y-111300500D01*
X168522352Y-111300500D01*
X168724534Y-111268477D01*
X168919219Y-111205220D01*
X169101610Y-111112287D01*
X169194590Y-111044732D01*
X169267213Y-110991971D01*
X169267215Y-110991968D01*
X169267219Y-110991966D01*
X169411966Y-110847219D01*
X169411968Y-110847215D01*
X169411971Y-110847213D01*
X169493632Y-110734814D01*
X169532287Y-110681610D01*
X169625220Y-110499219D01*
X169688477Y-110304534D01*
X169720500Y-110102352D01*
X169720500Y-109897648D01*
X169705733Y-109804417D01*
X169688477Y-109695465D01*
X169642077Y-109552661D01*
X169625220Y-109500781D01*
X169625218Y-109500778D01*
X169625218Y-109500776D01*
X169532419Y-109318650D01*
X169532287Y-109318390D01*
X169500092Y-109274077D01*
X169411971Y-109152786D01*
X169267217Y-109008032D01*
X169267212Y-109008028D01*
X169171615Y-108938573D01*
X169128949Y-108883243D01*
X169120500Y-108838255D01*
X169120500Y-103351004D01*
X169093581Y-103215677D01*
X169093580Y-103215676D01*
X169093580Y-103215672D01*
X169093578Y-103215667D01*
X169040778Y-103088195D01*
X169040774Y-103088188D01*
X169007678Y-103038656D01*
X169007678Y-103038655D01*
X168964115Y-102973458D01*
X168964109Y-102973451D01*
X163736819Y-97746161D01*
X163722115Y-97719233D01*
X163705523Y-97693415D01*
X163704631Y-97687214D01*
X163703334Y-97684838D01*
X163700500Y-97658480D01*
X163700500Y-97425316D01*
X163709939Y-97377864D01*
X163759760Y-97257584D01*
X163769737Y-97233497D01*
X163800500Y-97078842D01*
X163800500Y-96921158D01*
X163800500Y-96921155D01*
X163800499Y-96921153D01*
X163769738Y-96766510D01*
X163769737Y-96766503D01*
X163767019Y-96759940D01*
X163709397Y-96620827D01*
X163709390Y-96620814D01*
X163621789Y-96489711D01*
X163621786Y-96489707D01*
X163510292Y-96378213D01*
X163510288Y-96378210D01*
X163379185Y-96290609D01*
X163379172Y-96290602D01*
X163233501Y-96230264D01*
X163233489Y-96230261D01*
X163078845Y-96199500D01*
X163078842Y-96199500D01*
X162921158Y-96199500D01*
X162921155Y-96199500D01*
X162766510Y-96230261D01*
X162766498Y-96230264D01*
X162620827Y-96290602D01*
X162620814Y-96290609D01*
X162489711Y-96378210D01*
X162489707Y-96378213D01*
X162378213Y-96489707D01*
X162378210Y-96489711D01*
X162290609Y-96620814D01*
X162290602Y-96620827D01*
X162230264Y-96766498D01*
X162230261Y-96766510D01*
X162199500Y-96921153D01*
X135069504Y-96921153D01*
X137253838Y-94736819D01*
X137315161Y-94703334D01*
X137341519Y-94700500D01*
X138940121Y-94700500D01*
X139007160Y-94720185D01*
X139052915Y-94772989D01*
X139058052Y-94786182D01*
X139094780Y-94899219D01*
X139155636Y-95018656D01*
X139187715Y-95081613D01*
X139308028Y-95247213D01*
X139452786Y-95391971D01*
X139607749Y-95504556D01*
X139618390Y-95512287D01*
X139734607Y-95571503D01*
X139800776Y-95605218D01*
X139800778Y-95605218D01*
X139800781Y-95605220D01*
X139905137Y-95639127D01*
X139995465Y-95668477D01*
X140096557Y-95684488D01*
X140197648Y-95700500D01*
X140197649Y-95700500D01*
X140402351Y-95700500D01*
X140402352Y-95700500D01*
X140604534Y-95668477D01*
X140799219Y-95605220D01*
X140981610Y-95512287D01*
X141074590Y-95444732D01*
X141147213Y-95391971D01*
X141147215Y-95391968D01*
X141147219Y-95391966D01*
X141291966Y-95247219D01*
X141291968Y-95247215D01*
X141291971Y-95247213D01*
X141412284Y-95081614D01*
X141412286Y-95081611D01*
X141412287Y-95081610D01*
X141459795Y-94988369D01*
X141507770Y-94937574D01*
X141575591Y-94920779D01*
X141641725Y-94943316D01*
X141680765Y-94988370D01*
X141728140Y-95081349D01*
X141848417Y-95246894D01*
X141848417Y-95246895D01*
X141993104Y-95391582D01*
X142158650Y-95511859D01*
X142340968Y-95604754D01*
X142535578Y-95667988D01*
X142590000Y-95676607D01*
X142590000Y-94315686D01*
X142594394Y-94320080D01*
X142685606Y-94372741D01*
X142787339Y-94400000D01*
X142892661Y-94400000D01*
X142994394Y-94372741D01*
X143085606Y-94320080D01*
X143090000Y-94315686D01*
X143090000Y-95676606D01*
X143144421Y-95667988D01*
X143339031Y-95604754D01*
X143521349Y-95511859D01*
X143686894Y-95391582D01*
X143686895Y-95391582D01*
X143831582Y-95246895D01*
X143831582Y-95246894D01*
X143951861Y-95081347D01*
X143999234Y-94988371D01*
X144047208Y-94937575D01*
X144115028Y-94920779D01*
X144181164Y-94943316D01*
X144220203Y-94988369D01*
X144267713Y-95081611D01*
X144388028Y-95247213D01*
X144532786Y-95391971D01*
X144687749Y-95504556D01*
X144698390Y-95512287D01*
X144814607Y-95571503D01*
X144880776Y-95605218D01*
X144880778Y-95605218D01*
X144880781Y-95605220D01*
X144985137Y-95639127D01*
X145075465Y-95668477D01*
X145176557Y-95684488D01*
X145277648Y-95700500D01*
X145277649Y-95700500D01*
X145482351Y-95700500D01*
X145482352Y-95700500D01*
X145684534Y-95668477D01*
X145879219Y-95605220D01*
X146061610Y-95512287D01*
X146154590Y-95444732D01*
X146227213Y-95391971D01*
X146227215Y-95391968D01*
X146227219Y-95391966D01*
X146371966Y-95247219D01*
X146371968Y-95247215D01*
X146371971Y-95247213D01*
X146492284Y-95081614D01*
X146492286Y-95081611D01*
X146492287Y-95081610D01*
X146539795Y-94988369D01*
X146587770Y-94937574D01*
X146655591Y-94920779D01*
X146721725Y-94943316D01*
X146760765Y-94988370D01*
X146808140Y-95081349D01*
X146928417Y-95246894D01*
X146928417Y-95246895D01*
X147073104Y-95391582D01*
X147238650Y-95511859D01*
X147420968Y-95604754D01*
X147615578Y-95667988D01*
X147670000Y-95676607D01*
X147670000Y-94315686D01*
X147674394Y-94320080D01*
X147765606Y-94372741D01*
X147867339Y-94400000D01*
X147972661Y-94400000D01*
X148074394Y-94372741D01*
X148165606Y-94320080D01*
X148170000Y-94315686D01*
X148170000Y-95676606D01*
X148224421Y-95667988D01*
X148419031Y-95604754D01*
X148601349Y-95511859D01*
X148766894Y-95391582D01*
X148766895Y-95391582D01*
X148911582Y-95246895D01*
X148911582Y-95246894D01*
X149031861Y-95081347D01*
X149079234Y-94988371D01*
X149127208Y-94937575D01*
X149195028Y-94920779D01*
X149261164Y-94943316D01*
X149300203Y-94988369D01*
X149347713Y-95081611D01*
X149468028Y-95247213D01*
X149612786Y-95391971D01*
X149767749Y-95504556D01*
X149778390Y-95512287D01*
X149894607Y-95571503D01*
X149960776Y-95605218D01*
X149960778Y-95605218D01*
X149960781Y-95605220D01*
X150065137Y-95639127D01*
X150155465Y-95668477D01*
X150256557Y-95684488D01*
X150357648Y-95700500D01*
X150357649Y-95700500D01*
X150562351Y-95700500D01*
X150562352Y-95700500D01*
X150764534Y-95668477D01*
X150959219Y-95605220D01*
X151141610Y-95512287D01*
X151234590Y-95444732D01*
X151307213Y-95391971D01*
X151307215Y-95391968D01*
X151307219Y-95391966D01*
X151451966Y-95247219D01*
X151451968Y-95247215D01*
X151451971Y-95247213D01*
X151572284Y-95081614D01*
X151572286Y-95081611D01*
X151572287Y-95081610D01*
X151619795Y-94988369D01*
X151667770Y-94937574D01*
X151735591Y-94920779D01*
X151801725Y-94943316D01*
X151840765Y-94988370D01*
X151888140Y-95081349D01*
X152008417Y-95246894D01*
X152008417Y-95246895D01*
X152153104Y-95391582D01*
X152318650Y-95511859D01*
X152500968Y-95604754D01*
X152695578Y-95667988D01*
X152750000Y-95676607D01*
X152750000Y-94315686D01*
X152754394Y-94320080D01*
X152845606Y-94372741D01*
X152947339Y-94400000D01*
X153052661Y-94400000D01*
X153154394Y-94372741D01*
X153245606Y-94320080D01*
X153250000Y-94315686D01*
X153250000Y-95676606D01*
X153304421Y-95667988D01*
X153499031Y-95604754D01*
X153681349Y-95511859D01*
X153846894Y-95391582D01*
X153846895Y-95391582D01*
X153991582Y-95246895D01*
X153991582Y-95246894D01*
X154111861Y-95081347D01*
X154159234Y-94988371D01*
X154207208Y-94937575D01*
X154275028Y-94920779D01*
X154341164Y-94943316D01*
X154380203Y-94988369D01*
X154427713Y-95081611D01*
X154548028Y-95247213D01*
X154692786Y-95391971D01*
X154847749Y-95504556D01*
X154858390Y-95512287D01*
X154974607Y-95571503D01*
X155040776Y-95605218D01*
X155040778Y-95605218D01*
X155040781Y-95605220D01*
X155145137Y-95639127D01*
X155235465Y-95668477D01*
X155336557Y-95684488D01*
X155437648Y-95700500D01*
X155437649Y-95700500D01*
X155642351Y-95700500D01*
X155642352Y-95700500D01*
X155844534Y-95668477D01*
X156039219Y-95605220D01*
X156221610Y-95512287D01*
X156314590Y-95444732D01*
X156387213Y-95391971D01*
X156387215Y-95391968D01*
X156387219Y-95391966D01*
X156531966Y-95247219D01*
X156531968Y-95247215D01*
X156531971Y-95247213D01*
X156607894Y-95142712D01*
X156652287Y-95081610D01*
X156745220Y-94899219D01*
X156808477Y-94704534D01*
X156840500Y-94502352D01*
X156840500Y-93497648D01*
X156825032Y-93399991D01*
X156825031Y-93399983D01*
X171896849Y-93399983D01*
X171896849Y-94600001D01*
X171896850Y-94600018D01*
X171907349Y-94702796D01*
X171907350Y-94702799D01*
X171962534Y-94869331D01*
X171962536Y-94869336D01*
X171994266Y-94920779D01*
X172054637Y-95018656D01*
X172178693Y-95142712D01*
X172328015Y-95234814D01*
X172494552Y-95289999D01*
X172597340Y-95300500D01*
X173797357Y-95300499D01*
X173900146Y-95289999D01*
X174066683Y-95234814D01*
X174216005Y-95142712D01*
X174340061Y-95018656D01*
X174432163Y-94869334D01*
X174487348Y-94702797D01*
X174497849Y-94600009D01*
X174497848Y-93897682D01*
X175697349Y-93897682D01*
X175697349Y-94102317D01*
X175729358Y-94304417D01*
X175792593Y-94499031D01*
X175885490Y-94681350D01*
X175885496Y-94681359D01*
X175917872Y-94725921D01*
X175917873Y-94725922D01*
X176597349Y-94046446D01*
X176597349Y-94052661D01*
X176624608Y-94154394D01*
X176677269Y-94245606D01*
X176751743Y-94320080D01*
X176842955Y-94372741D01*
X176944688Y-94400000D01*
X176950902Y-94400000D01*
X176271425Y-95079474D01*
X176315999Y-95111859D01*
X176498317Y-95204755D01*
X176692931Y-95267990D01*
X176895032Y-95300000D01*
X177099666Y-95300000D01*
X177301766Y-95267990D01*
X177496380Y-95204755D01*
X177678698Y-95111859D01*
X177723271Y-95079474D01*
X177043796Y-94400000D01*
X177050010Y-94400000D01*
X177151743Y-94372741D01*
X177242955Y-94320080D01*
X177317429Y-94245606D01*
X177370090Y-94154394D01*
X177397349Y-94052661D01*
X177397349Y-94046448D01*
X178076823Y-94725922D01*
X178076823Y-94725921D01*
X178109208Y-94681349D01*
X178202104Y-94499031D01*
X178265339Y-94304417D01*
X178297349Y-94102317D01*
X178297349Y-93897682D01*
X178265339Y-93695582D01*
X178202104Y-93500968D01*
X178109208Y-93318650D01*
X178076823Y-93274077D01*
X178076823Y-93274076D01*
X177397349Y-93953551D01*
X177397349Y-93947339D01*
X177370090Y-93845606D01*
X177317429Y-93754394D01*
X177242955Y-93679920D01*
X177151743Y-93627259D01*
X177050010Y-93600000D01*
X177043795Y-93600000D01*
X177723271Y-92920524D01*
X177723270Y-92920523D01*
X177678708Y-92888147D01*
X177678699Y-92888141D01*
X177496380Y-92795244D01*
X177301766Y-92732009D01*
X177099666Y-92700000D01*
X176895032Y-92700000D01*
X176692931Y-92732009D01*
X176498317Y-92795244D01*
X176315993Y-92888143D01*
X176271426Y-92920523D01*
X176271426Y-92920524D01*
X176950903Y-93600000D01*
X176944688Y-93600000D01*
X176842955Y-93627259D01*
X176751743Y-93679920D01*
X176677269Y-93754394D01*
X176624608Y-93845606D01*
X176597349Y-93947339D01*
X176597349Y-93953553D01*
X175917873Y-93274077D01*
X175917872Y-93274077D01*
X175885492Y-93318644D01*
X175792593Y-93500968D01*
X175729358Y-93695582D01*
X175697349Y-93897682D01*
X174497848Y-93897682D01*
X174497848Y-93399992D01*
X174487348Y-93297203D01*
X174432163Y-93130666D01*
X174390072Y-93062426D01*
X174371849Y-93032881D01*
X174371848Y-93032880D01*
X174358741Y-93011630D01*
X174340061Y-92981344D01*
X174216005Y-92857288D01*
X174066683Y-92765186D01*
X173900146Y-92710001D01*
X173900144Y-92710000D01*
X173797359Y-92699500D01*
X172597347Y-92699500D01*
X172597330Y-92699501D01*
X172494552Y-92710000D01*
X172494549Y-92710001D01*
X172328017Y-92765185D01*
X172328012Y-92765187D01*
X172178691Y-92857289D01*
X172054638Y-92981342D01*
X171962536Y-93130663D01*
X171962535Y-93130666D01*
X171907350Y-93297203D01*
X171907350Y-93297204D01*
X171907349Y-93297204D01*
X171896849Y-93399983D01*
X156825031Y-93399983D01*
X156808477Y-93295465D01*
X156745218Y-93100776D01*
X156699794Y-93011628D01*
X156652287Y-92918390D01*
X156644556Y-92907749D01*
X156531971Y-92752786D01*
X156387213Y-92608028D01*
X156221613Y-92487715D01*
X156221612Y-92487714D01*
X156221610Y-92487713D01*
X156164653Y-92458691D01*
X156039223Y-92394781D01*
X155844534Y-92331522D01*
X155669995Y-92303878D01*
X155642352Y-92299500D01*
X155437648Y-92299500D01*
X155413329Y-92303351D01*
X155235465Y-92331522D01*
X155040776Y-92394781D01*
X154858386Y-92487715D01*
X154692786Y-92608028D01*
X154548028Y-92752786D01*
X154427713Y-92918388D01*
X154380203Y-93011630D01*
X154332228Y-93062426D01*
X154264407Y-93079220D01*
X154198272Y-93056682D01*
X154159234Y-93011628D01*
X154111861Y-92918652D01*
X153991582Y-92753105D01*
X153991582Y-92753104D01*
X153846895Y-92608417D01*
X153681349Y-92488140D01*
X153499029Y-92395244D01*
X153304413Y-92332009D01*
X153250000Y-92323390D01*
X153250000Y-93684314D01*
X153245606Y-93679920D01*
X153154394Y-93627259D01*
X153052661Y-93600000D01*
X152947339Y-93600000D01*
X152845606Y-93627259D01*
X152754394Y-93679920D01*
X152750000Y-93684314D01*
X152750000Y-92323390D01*
X152695586Y-92332009D01*
X152500970Y-92395244D01*
X152318650Y-92488140D01*
X152153105Y-92608417D01*
X152153104Y-92608417D01*
X152008417Y-92753104D01*
X152008417Y-92753105D01*
X151888140Y-92918650D01*
X151840765Y-93011629D01*
X151792790Y-93062425D01*
X151724969Y-93079220D01*
X151658834Y-93056682D01*
X151619795Y-93011629D01*
X151604363Y-92981342D01*
X151572287Y-92918390D01*
X151564556Y-92907749D01*
X151451971Y-92752786D01*
X151307213Y-92608028D01*
X151141613Y-92487715D01*
X151141612Y-92487714D01*
X151141610Y-92487713D01*
X151084653Y-92458691D01*
X150959223Y-92394781D01*
X150764534Y-92331522D01*
X150589995Y-92303878D01*
X150562352Y-92299500D01*
X150357648Y-92299500D01*
X150333329Y-92303351D01*
X150155465Y-92331522D01*
X149960776Y-92394781D01*
X149778386Y-92487715D01*
X149612786Y-92608028D01*
X149468028Y-92752786D01*
X149347713Y-92918388D01*
X149300203Y-93011630D01*
X149252228Y-93062426D01*
X149184407Y-93079220D01*
X149118272Y-93056682D01*
X149079234Y-93011628D01*
X149031861Y-92918652D01*
X148911582Y-92753105D01*
X148911582Y-92753104D01*
X148766895Y-92608417D01*
X148601349Y-92488140D01*
X148419029Y-92395244D01*
X148224413Y-92332009D01*
X148170000Y-92323390D01*
X148170000Y-93684314D01*
X148165606Y-93679920D01*
X148074394Y-93627259D01*
X147972661Y-93600000D01*
X147867339Y-93600000D01*
X147765606Y-93627259D01*
X147674394Y-93679920D01*
X147670000Y-93684314D01*
X147670000Y-92323390D01*
X147615586Y-92332009D01*
X147420970Y-92395244D01*
X147238650Y-92488140D01*
X147073105Y-92608417D01*
X147073104Y-92608417D01*
X146928417Y-92753104D01*
X146928417Y-92753105D01*
X146808140Y-92918650D01*
X146760765Y-93011629D01*
X146712790Y-93062425D01*
X146644969Y-93079220D01*
X146578834Y-93056682D01*
X146539795Y-93011629D01*
X146524363Y-92981342D01*
X146492287Y-92918390D01*
X146484556Y-92907749D01*
X146371971Y-92752786D01*
X146227213Y-92608028D01*
X146061613Y-92487715D01*
X146061612Y-92487714D01*
X146061610Y-92487713D01*
X146004653Y-92458691D01*
X145879223Y-92394781D01*
X145684534Y-92331522D01*
X145509995Y-92303878D01*
X145482352Y-92299500D01*
X145277648Y-92299500D01*
X145253329Y-92303351D01*
X145075465Y-92331522D01*
X144880776Y-92394781D01*
X144698386Y-92487715D01*
X144532786Y-92608028D01*
X144388028Y-92752786D01*
X144267713Y-92918388D01*
X144220203Y-93011630D01*
X144172228Y-93062426D01*
X144104407Y-93079220D01*
X144038272Y-93056682D01*
X143999234Y-93011628D01*
X143951861Y-92918652D01*
X143831582Y-92753105D01*
X143831582Y-92753104D01*
X143686895Y-92608417D01*
X143521349Y-92488140D01*
X143339029Y-92395244D01*
X143144413Y-92332009D01*
X143090000Y-92323390D01*
X143090000Y-93684314D01*
X143085606Y-93679920D01*
X142994394Y-93627259D01*
X142892661Y-93600000D01*
X142787339Y-93600000D01*
X142685606Y-93627259D01*
X142594394Y-93679920D01*
X142590000Y-93684314D01*
X142590000Y-92323390D01*
X142535586Y-92332009D01*
X142340970Y-92395244D01*
X142158650Y-92488140D01*
X141993105Y-92608417D01*
X141993104Y-92608417D01*
X141848417Y-92753104D01*
X141848417Y-92753105D01*
X141728140Y-92918650D01*
X141680765Y-93011629D01*
X141632790Y-93062425D01*
X141564969Y-93079220D01*
X141498834Y-93056682D01*
X141459795Y-93011629D01*
X141444363Y-92981342D01*
X141412287Y-92918390D01*
X141404556Y-92907749D01*
X141291971Y-92752786D01*
X141147213Y-92608028D01*
X140981613Y-92487715D01*
X140981612Y-92487714D01*
X140981610Y-92487713D01*
X140924653Y-92458691D01*
X140799223Y-92394781D01*
X140604534Y-92331522D01*
X140429995Y-92303878D01*
X140402352Y-92299500D01*
X140197648Y-92299500D01*
X140173329Y-92303351D01*
X139995465Y-92331522D01*
X139800776Y-92394781D01*
X139618386Y-92487715D01*
X139452786Y-92608028D01*
X139308028Y-92752786D01*
X139187715Y-92918386D01*
X139094781Y-93100778D01*
X139058052Y-93213818D01*
X139018614Y-93271494D01*
X138954256Y-93298692D01*
X138940121Y-93299500D01*
X137824500Y-93299500D01*
X137757461Y-93279815D01*
X137711706Y-93227011D01*
X137700500Y-93175500D01*
X137700500Y-91824500D01*
X137720185Y-91757461D01*
X137772989Y-91711706D01*
X137824500Y-91700500D01*
X153068996Y-91700500D01*
X153160040Y-91682389D01*
X153204328Y-91673580D01*
X153268069Y-91647177D01*
X153331807Y-91620777D01*
X153331808Y-91620776D01*
X153331811Y-91620775D01*
X153446543Y-91544114D01*
X157544114Y-87446543D01*
X157620775Y-87331811D01*
X157673580Y-87204329D01*
X157700499Y-87068994D01*
X157700499Y-86931006D01*
X157696141Y-86909095D01*
X157696141Y-86909092D01*
X157692299Y-86889778D01*
X188599500Y-86889778D01*
X188599500Y-87110221D01*
X188633985Y-87327952D01*
X188702103Y-87537603D01*
X188702104Y-87537606D01*
X188802187Y-87734025D01*
X188931752Y-87912358D01*
X188931756Y-87912363D01*
X189087636Y-88068243D01*
X189087641Y-88068247D01*
X189243192Y-88181260D01*
X189265978Y-88197815D01*
X189394375Y-88263237D01*
X189462393Y-88297895D01*
X189462396Y-88297896D01*
X189566766Y-88331807D01*
X189672049Y-88366015D01*
X189889778Y-88400500D01*
X189889779Y-88400500D01*
X190110221Y-88400500D01*
X190110222Y-88400500D01*
X190327951Y-88366015D01*
X190537606Y-88297895D01*
X190734022Y-88197815D01*
X190912365Y-88068242D01*
X191068242Y-87912365D01*
X191197815Y-87734022D01*
X191297895Y-87537606D01*
X191366015Y-87327951D01*
X191400500Y-87110222D01*
X191400500Y-86889778D01*
X191366015Y-86672049D01*
X191297895Y-86462394D01*
X191297895Y-86462393D01*
X191263237Y-86394375D01*
X191197815Y-86265978D01*
X191181260Y-86243192D01*
X191068247Y-86087641D01*
X191068243Y-86087636D01*
X190912363Y-85931756D01*
X190912358Y-85931752D01*
X190734025Y-85802187D01*
X190734024Y-85802186D01*
X190734022Y-85802185D01*
X190671096Y-85770122D01*
X190537606Y-85702104D01*
X190537603Y-85702103D01*
X190327952Y-85633985D01*
X190219086Y-85616742D01*
X190110222Y-85599500D01*
X189889778Y-85599500D01*
X189817201Y-85610995D01*
X189672047Y-85633985D01*
X189462396Y-85702103D01*
X189462393Y-85702104D01*
X189265974Y-85802187D01*
X189087641Y-85931752D01*
X189087636Y-85931756D01*
X188931756Y-86087636D01*
X188931752Y-86087641D01*
X188802187Y-86265974D01*
X188702104Y-86462393D01*
X188702103Y-86462396D01*
X188633985Y-86672047D01*
X188599500Y-86889778D01*
X157692299Y-86889778D01*
X157678388Y-86819843D01*
X157673580Y-86795672D01*
X157620775Y-86668189D01*
X157611396Y-86654152D01*
X157590520Y-86587476D01*
X157590500Y-86585264D01*
X157590500Y-85371744D01*
X157610185Y-85304705D01*
X157641615Y-85271426D01*
X157737215Y-85201969D01*
X157737215Y-85201968D01*
X157737219Y-85201966D01*
X157881966Y-85057219D01*
X157881968Y-85057215D01*
X157881971Y-85057213D01*
X157962377Y-84946542D01*
X158002287Y-84891610D01*
X158095220Y-84709219D01*
X158158477Y-84514534D01*
X158190500Y-84312352D01*
X158190500Y-83307648D01*
X158181977Y-83253838D01*
X158158477Y-83105465D01*
X158110351Y-82957350D01*
X158095220Y-82910781D01*
X158095218Y-82910778D01*
X158095218Y-82910776D01*
X158036566Y-82795667D01*
X158002287Y-82728390D01*
X157968300Y-82681610D01*
X157881971Y-82562786D01*
X157737213Y-82418028D01*
X157571613Y-82297715D01*
X157571612Y-82297714D01*
X157571610Y-82297713D01*
X157514653Y-82268691D01*
X157389223Y-82204781D01*
X157194534Y-82141522D01*
X157019995Y-82113878D01*
X156992352Y-82109500D01*
X156787648Y-82109500D01*
X156763329Y-82113351D01*
X156585465Y-82141522D01*
X156390776Y-82204781D01*
X156208386Y-82297715D01*
X156042786Y-82418028D01*
X155898028Y-82562786D01*
X155777715Y-82728386D01*
X155730485Y-82821080D01*
X155682510Y-82871876D01*
X155614689Y-82888671D01*
X155548554Y-82866134D01*
X155509515Y-82821080D01*
X155496566Y-82795667D01*
X155462287Y-82728390D01*
X155428300Y-82681610D01*
X155341971Y-82562786D01*
X155197213Y-82418028D01*
X155031613Y-82297715D01*
X155031612Y-82297714D01*
X155031610Y-82297713D01*
X154974653Y-82268691D01*
X154849223Y-82204781D01*
X154654534Y-82141522D01*
X154479995Y-82113878D01*
X154452352Y-82109500D01*
X154247648Y-82109500D01*
X154223329Y-82113351D01*
X154045465Y-82141522D01*
X153850776Y-82204781D01*
X153668386Y-82297715D01*
X153502786Y-82418028D01*
X153358028Y-82562786D01*
X153237715Y-82728386D01*
X153190485Y-82821080D01*
X153142510Y-82871876D01*
X153074689Y-82888671D01*
X153008554Y-82866134D01*
X152969515Y-82821080D01*
X152956566Y-82795667D01*
X152922287Y-82728390D01*
X152888300Y-82681610D01*
X152801971Y-82562786D01*
X152657213Y-82418028D01*
X152491613Y-82297715D01*
X152491612Y-82297714D01*
X152491610Y-82297713D01*
X152434653Y-82268691D01*
X152309223Y-82204781D01*
X152114534Y-82141522D01*
X151939995Y-82113878D01*
X151912352Y-82109500D01*
X151707648Y-82109500D01*
X151683329Y-82113351D01*
X151505465Y-82141522D01*
X151310776Y-82204781D01*
X151128386Y-82297715D01*
X150962786Y-82418028D01*
X150818028Y-82562786D01*
X150697715Y-82728386D01*
X150650485Y-82821080D01*
X150602510Y-82871876D01*
X150534689Y-82888671D01*
X150468554Y-82866134D01*
X150429515Y-82821080D01*
X150416566Y-82795667D01*
X150382287Y-82728390D01*
X150348300Y-82681610D01*
X150261971Y-82562786D01*
X150117213Y-82418028D01*
X149951613Y-82297715D01*
X149951612Y-82297714D01*
X149951610Y-82297713D01*
X149894653Y-82268691D01*
X149769223Y-82204781D01*
X149574534Y-82141522D01*
X149399995Y-82113878D01*
X149372352Y-82109500D01*
X149167648Y-82109500D01*
X149143329Y-82113351D01*
X148965465Y-82141522D01*
X148770776Y-82204781D01*
X148588386Y-82297715D01*
X148422786Y-82418028D01*
X148278028Y-82562786D01*
X148157715Y-82728386D01*
X148110485Y-82821080D01*
X148062510Y-82871876D01*
X147994689Y-82888671D01*
X147928554Y-82866134D01*
X147889515Y-82821080D01*
X147876566Y-82795667D01*
X147842287Y-82728390D01*
X147808300Y-82681610D01*
X147721971Y-82562786D01*
X147577213Y-82418028D01*
X147411613Y-82297715D01*
X147411612Y-82297714D01*
X147411610Y-82297713D01*
X147354653Y-82268691D01*
X147229223Y-82204781D01*
X147034534Y-82141522D01*
X146859995Y-82113878D01*
X146832352Y-82109500D01*
X146627648Y-82109500D01*
X146603329Y-82113351D01*
X146425465Y-82141522D01*
X146230776Y-82204781D01*
X146048386Y-82297715D01*
X145882786Y-82418028D01*
X145738028Y-82562786D01*
X145617715Y-82728386D01*
X145570485Y-82821080D01*
X145522510Y-82871876D01*
X145454689Y-82888671D01*
X145388554Y-82866134D01*
X145349515Y-82821080D01*
X145336566Y-82795667D01*
X145302287Y-82728390D01*
X145268300Y-82681610D01*
X145181971Y-82562786D01*
X145037213Y-82418028D01*
X144871613Y-82297715D01*
X144871612Y-82297714D01*
X144871610Y-82297713D01*
X144814653Y-82268691D01*
X144689223Y-82204781D01*
X144494534Y-82141522D01*
X144319995Y-82113878D01*
X144292352Y-82109500D01*
X144087648Y-82109500D01*
X144063329Y-82113351D01*
X143885465Y-82141522D01*
X143690776Y-82204781D01*
X143508386Y-82297715D01*
X143342786Y-82418028D01*
X143198028Y-82562786D01*
X143077715Y-82728386D01*
X143030485Y-82821080D01*
X142982510Y-82871876D01*
X142914689Y-82888671D01*
X142848554Y-82866134D01*
X142809515Y-82821080D01*
X142796566Y-82795667D01*
X142762287Y-82728390D01*
X142728300Y-82681610D01*
X142641971Y-82562786D01*
X142497213Y-82418028D01*
X142331613Y-82297715D01*
X142331612Y-82297714D01*
X142331610Y-82297713D01*
X142274653Y-82268691D01*
X142149223Y-82204781D01*
X141954534Y-82141522D01*
X141779995Y-82113878D01*
X141752352Y-82109500D01*
X141547648Y-82109500D01*
X141523329Y-82113351D01*
X141345465Y-82141522D01*
X141150776Y-82204781D01*
X140968386Y-82297715D01*
X140802786Y-82418028D01*
X140658028Y-82562786D01*
X140537715Y-82728386D01*
X140490485Y-82821080D01*
X140442510Y-82871876D01*
X140374689Y-82888671D01*
X140308554Y-82866134D01*
X140269515Y-82821080D01*
X140256566Y-82795667D01*
X140222287Y-82728390D01*
X140188300Y-82681610D01*
X140101971Y-82562786D01*
X139957213Y-82418028D01*
X139791613Y-82297715D01*
X139791612Y-82297714D01*
X139791610Y-82297713D01*
X139734653Y-82268691D01*
X139609223Y-82204781D01*
X139414534Y-82141522D01*
X139239995Y-82113878D01*
X139212352Y-82109500D01*
X139007648Y-82109500D01*
X138983329Y-82113351D01*
X138805465Y-82141522D01*
X138610776Y-82204781D01*
X138428386Y-82297715D01*
X138262786Y-82418028D01*
X138118028Y-82562786D01*
X137997715Y-82728386D01*
X137904781Y-82910776D01*
X137841522Y-83105465D01*
X137809500Y-83307648D01*
X137809500Y-84312351D01*
X137841522Y-84514534D01*
X137904781Y-84709223D01*
X137955524Y-84808810D01*
X137995133Y-84886547D01*
X137997715Y-84891613D01*
X138118028Y-85057213D01*
X138262786Y-85201971D01*
X138404190Y-85304705D01*
X138428390Y-85322287D01*
X138525455Y-85371744D01*
X138610776Y-85415218D01*
X138610778Y-85415218D01*
X138610781Y-85415220D01*
X138715137Y-85449127D01*
X138805465Y-85478477D01*
X138835544Y-85483241D01*
X139007648Y-85510500D01*
X139007649Y-85510500D01*
X139212351Y-85510500D01*
X139212352Y-85510500D01*
X139414534Y-85478477D01*
X139609219Y-85415220D01*
X139791610Y-85322287D01*
X139906334Y-85238936D01*
X139957213Y-85201971D01*
X139957215Y-85201968D01*
X139957219Y-85201966D01*
X140101966Y-85057219D01*
X140101968Y-85057215D01*
X140101971Y-85057213D01*
X140222284Y-84891614D01*
X140222285Y-84891613D01*
X140222287Y-84891610D01*
X140269516Y-84798917D01*
X140317489Y-84748123D01*
X140385310Y-84731328D01*
X140451445Y-84753865D01*
X140490483Y-84798917D01*
X140531379Y-84879178D01*
X140537715Y-84891614D01*
X140658028Y-85057213D01*
X140802786Y-85201971D01*
X140944190Y-85304705D01*
X140968390Y-85322287D01*
X141065455Y-85371744D01*
X141150776Y-85415218D01*
X141150778Y-85415218D01*
X141150781Y-85415220D01*
X141255137Y-85449127D01*
X141345465Y-85478477D01*
X141375544Y-85483241D01*
X141547648Y-85510500D01*
X141547649Y-85510500D01*
X141752351Y-85510500D01*
X141752352Y-85510500D01*
X141954534Y-85478477D01*
X142149219Y-85415220D01*
X142331610Y-85322287D01*
X142446334Y-85238936D01*
X142497213Y-85201971D01*
X142497215Y-85201968D01*
X142497219Y-85201966D01*
X142641966Y-85057219D01*
X142641968Y-85057215D01*
X142641971Y-85057213D01*
X142762284Y-84891614D01*
X142762285Y-84891613D01*
X142762287Y-84891610D01*
X142809516Y-84798917D01*
X142857489Y-84748123D01*
X142925310Y-84731328D01*
X142991445Y-84753865D01*
X143030483Y-84798917D01*
X143071379Y-84879178D01*
X143077715Y-84891614D01*
X143198028Y-85057213D01*
X143342786Y-85201971D01*
X143484190Y-85304705D01*
X143508390Y-85322287D01*
X143605455Y-85371744D01*
X143690776Y-85415218D01*
X143690778Y-85415218D01*
X143690781Y-85415220D01*
X143795137Y-85449127D01*
X143885465Y-85478477D01*
X143915544Y-85483241D01*
X144087648Y-85510500D01*
X144087649Y-85510500D01*
X144292351Y-85510500D01*
X144292352Y-85510500D01*
X144494534Y-85478477D01*
X144689219Y-85415220D01*
X144871610Y-85322287D01*
X144986334Y-85238936D01*
X145037213Y-85201971D01*
X145037215Y-85201968D01*
X145037219Y-85201966D01*
X145181966Y-85057219D01*
X145181968Y-85057215D01*
X145181971Y-85057213D01*
X145302284Y-84891614D01*
X145302285Y-84891613D01*
X145302287Y-84891610D01*
X145349516Y-84798917D01*
X145397489Y-84748123D01*
X145465310Y-84731328D01*
X145531445Y-84753865D01*
X145570483Y-84798917D01*
X145611379Y-84879178D01*
X145617715Y-84891614D01*
X145738028Y-85057213D01*
X145882786Y-85201971D01*
X146024190Y-85304705D01*
X146048390Y-85322287D01*
X146145455Y-85371744D01*
X146230776Y-85415218D01*
X146230778Y-85415218D01*
X146230781Y-85415220D01*
X146335137Y-85449127D01*
X146425465Y-85478477D01*
X146455544Y-85483241D01*
X146627648Y-85510500D01*
X146627649Y-85510500D01*
X146832351Y-85510500D01*
X146832352Y-85510500D01*
X147034534Y-85478477D01*
X147229219Y-85415220D01*
X147411610Y-85322287D01*
X147526334Y-85238936D01*
X147577213Y-85201971D01*
X147577215Y-85201968D01*
X147577219Y-85201966D01*
X147721966Y-85057219D01*
X147721968Y-85057215D01*
X147721971Y-85057213D01*
X147842284Y-84891614D01*
X147842285Y-84891613D01*
X147842287Y-84891610D01*
X147889516Y-84798917D01*
X147937489Y-84748123D01*
X148005310Y-84731328D01*
X148071445Y-84753865D01*
X148110483Y-84798917D01*
X148151379Y-84879178D01*
X148157715Y-84891614D01*
X148278028Y-85057213D01*
X148422786Y-85201971D01*
X148564190Y-85304705D01*
X148588390Y-85322287D01*
X148685455Y-85371744D01*
X148770776Y-85415218D01*
X148770778Y-85415218D01*
X148770781Y-85415220D01*
X148875137Y-85449127D01*
X148965465Y-85478477D01*
X148995544Y-85483241D01*
X149167648Y-85510500D01*
X149167649Y-85510500D01*
X149372351Y-85510500D01*
X149372352Y-85510500D01*
X149574534Y-85478477D01*
X149769219Y-85415220D01*
X149951610Y-85322287D01*
X150066334Y-85238936D01*
X150117213Y-85201971D01*
X150117215Y-85201968D01*
X150117219Y-85201966D01*
X150261966Y-85057219D01*
X150261968Y-85057215D01*
X150261971Y-85057213D01*
X150382284Y-84891614D01*
X150382285Y-84891613D01*
X150382287Y-84891610D01*
X150429516Y-84798917D01*
X150477489Y-84748123D01*
X150545310Y-84731328D01*
X150611445Y-84753865D01*
X150650483Y-84798917D01*
X150691379Y-84879178D01*
X150697715Y-84891614D01*
X150818028Y-85057213D01*
X150962786Y-85201971D01*
X151104190Y-85304705D01*
X151128390Y-85322287D01*
X151225455Y-85371744D01*
X151310776Y-85415218D01*
X151310778Y-85415218D01*
X151310781Y-85415220D01*
X151415137Y-85449127D01*
X151505465Y-85478477D01*
X151535544Y-85483241D01*
X151707648Y-85510500D01*
X151707649Y-85510500D01*
X151912351Y-85510500D01*
X151912352Y-85510500D01*
X152114534Y-85478477D01*
X152309219Y-85415220D01*
X152491610Y-85322287D01*
X152606334Y-85238936D01*
X152657213Y-85201971D01*
X152657215Y-85201968D01*
X152657219Y-85201966D01*
X152801966Y-85057219D01*
X152801968Y-85057215D01*
X152801971Y-85057213D01*
X152922284Y-84891614D01*
X152922285Y-84891613D01*
X152922287Y-84891610D01*
X152969516Y-84798917D01*
X153017489Y-84748123D01*
X153085310Y-84731328D01*
X153151445Y-84753865D01*
X153190483Y-84798917D01*
X153231379Y-84879178D01*
X153237715Y-84891614D01*
X153358028Y-85057213D01*
X153502786Y-85201971D01*
X153644190Y-85304705D01*
X153668390Y-85322287D01*
X153765455Y-85371744D01*
X153850776Y-85415218D01*
X153850778Y-85415218D01*
X153850781Y-85415220D01*
X153955137Y-85449127D01*
X154045465Y-85478477D01*
X154075544Y-85483241D01*
X154247648Y-85510500D01*
X154247649Y-85510500D01*
X154452351Y-85510500D01*
X154452352Y-85510500D01*
X154654534Y-85478477D01*
X154849219Y-85415220D01*
X155031610Y-85322287D01*
X155146334Y-85238936D01*
X155197213Y-85201971D01*
X155197215Y-85201968D01*
X155197219Y-85201966D01*
X155341966Y-85057219D01*
X155341968Y-85057215D01*
X155341971Y-85057213D01*
X155462284Y-84891614D01*
X155462285Y-84891613D01*
X155462287Y-84891610D01*
X155509516Y-84798917D01*
X155557489Y-84748123D01*
X155625310Y-84731328D01*
X155691445Y-84753865D01*
X155730483Y-84798917D01*
X155771379Y-84879178D01*
X155777715Y-84891614D01*
X155898028Y-85057213D01*
X156042784Y-85201969D01*
X156138385Y-85271426D01*
X156181051Y-85326755D01*
X156189500Y-85371744D01*
X156189500Y-86768481D01*
X156169815Y-86835520D01*
X156153181Y-86856162D01*
X152746162Y-90263181D01*
X152684839Y-90296666D01*
X152658481Y-90299500D01*
X137341519Y-90299500D01*
X137274480Y-90279815D01*
X137253838Y-90263181D01*
X134736819Y-87746162D01*
X134703334Y-87684839D01*
X134700500Y-87658481D01*
X134700500Y-82931004D01*
X134673581Y-82795677D01*
X134673580Y-82795676D01*
X134673580Y-82795672D01*
X134645711Y-82728390D01*
X134620778Y-82668195D01*
X134620774Y-82668188D01*
X134596013Y-82631130D01*
X134544114Y-82553457D01*
X134544112Y-82553454D01*
X132388306Y-80397648D01*
X162699500Y-80397648D01*
X162699500Y-80602351D01*
X162731522Y-80804534D01*
X162794781Y-80999223D01*
X162855172Y-81117745D01*
X162881853Y-81170110D01*
X162887715Y-81181613D01*
X163008028Y-81347213D01*
X163152786Y-81491971D01*
X163318388Y-81612286D01*
X163371828Y-81639516D01*
X163422623Y-81687490D01*
X163439418Y-81755312D01*
X163416880Y-81821446D01*
X163371828Y-81860484D01*
X163318388Y-81887713D01*
X163152786Y-82008028D01*
X163008028Y-82152786D01*
X162887715Y-82318386D01*
X162794781Y-82500776D01*
X162731522Y-82695465D01*
X162703984Y-82869336D01*
X162699500Y-82897648D01*
X162699500Y-83102352D01*
X162701074Y-83112287D01*
X162731522Y-83304534D01*
X162794781Y-83499223D01*
X162840166Y-83588294D01*
X162863508Y-83634106D01*
X162887715Y-83681613D01*
X163008028Y-83847213D01*
X163152786Y-83991971D01*
X163264939Y-84073453D01*
X163318390Y-84112287D01*
X163409051Y-84158481D01*
X163500776Y-84205218D01*
X163500778Y-84205218D01*
X163500781Y-84205220D01*
X163563258Y-84225520D01*
X163695465Y-84268477D01*
X163796557Y-84284488D01*
X163897648Y-84300500D01*
X163897649Y-84300500D01*
X164102351Y-84300500D01*
X164102352Y-84300500D01*
X164304534Y-84268477D01*
X164499219Y-84205220D01*
X164681610Y-84112287D01*
X164774590Y-84044732D01*
X164847213Y-83991971D01*
X164847215Y-83991968D01*
X164847219Y-83991966D01*
X164991966Y-83847219D01*
X164991968Y-83847215D01*
X164991971Y-83847213D01*
X165097485Y-83701983D01*
X165112287Y-83681610D01*
X165205220Y-83499219D01*
X165268477Y-83304534D01*
X165300500Y-83102352D01*
X165300500Y-82897648D01*
X165284348Y-82795667D01*
X165268477Y-82695465D01*
X165227270Y-82568644D01*
X165205220Y-82500781D01*
X165205218Y-82500778D01*
X165205218Y-82500776D01*
X165163055Y-82418028D01*
X165112287Y-82318390D01*
X165048432Y-82230500D01*
X164991971Y-82152786D01*
X164847213Y-82008028D01*
X164681613Y-81887715D01*
X164681612Y-81887714D01*
X164681610Y-81887713D01*
X164628171Y-81860484D01*
X164577376Y-81812510D01*
X164560581Y-81744689D01*
X164583118Y-81678554D01*
X164628172Y-81639515D01*
X164629283Y-81638949D01*
X164681610Y-81612287D01*
X164774590Y-81544732D01*
X164847213Y-81491971D01*
X164847215Y-81491968D01*
X164847219Y-81491966D01*
X164991966Y-81347219D01*
X164991968Y-81347215D01*
X164991971Y-81347213D01*
X165044732Y-81274590D01*
X165112287Y-81181610D01*
X165205220Y-80999219D01*
X165268477Y-80804534D01*
X165300500Y-80602352D01*
X165300500Y-80397648D01*
X165299652Y-80392292D01*
X165268477Y-80195465D01*
X165221050Y-80049500D01*
X165205220Y-80000781D01*
X165205218Y-80000778D01*
X165205218Y-80000776D01*
X165152756Y-79897815D01*
X165112287Y-79818390D01*
X165080385Y-79774480D01*
X164991971Y-79652786D01*
X164847213Y-79508028D01*
X164681613Y-79387715D01*
X164681612Y-79387714D01*
X164681610Y-79387713D01*
X164624653Y-79358691D01*
X164499223Y-79294781D01*
X164304534Y-79231522D01*
X164129995Y-79203878D01*
X164102352Y-79199500D01*
X163897648Y-79199500D01*
X163873329Y-79203351D01*
X163695465Y-79231522D01*
X163500776Y-79294781D01*
X163318386Y-79387715D01*
X163152786Y-79508028D01*
X163008028Y-79652786D01*
X162887715Y-79818386D01*
X162794781Y-80000776D01*
X162731522Y-80195465D01*
X162699500Y-80397648D01*
X132388306Y-80397648D01*
X132196545Y-80205887D01*
X132081807Y-80129222D01*
X131954332Y-80076421D01*
X131954322Y-80076418D01*
X131818996Y-80049500D01*
X131818994Y-80049500D01*
X131818993Y-80049500D01*
X131661744Y-80049500D01*
X131594705Y-80029815D01*
X131561425Y-79998384D01*
X131561070Y-79997896D01*
X131544769Y-79975458D01*
X131491969Y-79902784D01*
X131347213Y-79758028D01*
X131181613Y-79637715D01*
X131181612Y-79637714D01*
X131181610Y-79637713D01*
X131106613Y-79599500D01*
X130999223Y-79544781D01*
X130804534Y-79481522D01*
X130629995Y-79453878D01*
X130602352Y-79449500D01*
X130397648Y-79449500D01*
X130373329Y-79453351D01*
X130195465Y-79481522D01*
X130000776Y-79544781D01*
X129818386Y-79637715D01*
X129652786Y-79758028D01*
X129508028Y-79902786D01*
X129387715Y-80068386D01*
X129294781Y-80250776D01*
X129231522Y-80445465D01*
X129199500Y-80647648D01*
X129199500Y-80852351D01*
X129231522Y-81054534D01*
X129294781Y-81249223D01*
X129387715Y-81431613D01*
X129508028Y-81597213D01*
X129652786Y-81741971D01*
X129818385Y-81862284D01*
X129818387Y-81862285D01*
X129818390Y-81862287D01*
X129872378Y-81889795D01*
X129923174Y-81937769D01*
X129939969Y-82005590D01*
X129917432Y-82071725D01*
X129872378Y-82110765D01*
X129818644Y-82138143D01*
X129774077Y-82170523D01*
X129774077Y-82170524D01*
X130453554Y-82850000D01*
X130447339Y-82850000D01*
X130345606Y-82877259D01*
X130254394Y-82929920D01*
X130179920Y-83004394D01*
X130127259Y-83095606D01*
X130100000Y-83197339D01*
X130100000Y-83203553D01*
X129420524Y-82524077D01*
X129420523Y-82524077D01*
X129388143Y-82568644D01*
X129295244Y-82750968D01*
X129232009Y-82945582D01*
X129200000Y-83147682D01*
X129200000Y-83352317D01*
X129232009Y-83554417D01*
X129295244Y-83749031D01*
X129388141Y-83931350D01*
X129388147Y-83931359D01*
X129420523Y-83975921D01*
X129420524Y-83975922D01*
X130100000Y-83296446D01*
X130100000Y-83302661D01*
X130127259Y-83404394D01*
X130179920Y-83495606D01*
X130254394Y-83570080D01*
X130345606Y-83622741D01*
X130447339Y-83650000D01*
X130453553Y-83650000D01*
X129774076Y-84329474D01*
X129818650Y-84361859D01*
X130000968Y-84454755D01*
X130195582Y-84517990D01*
X130397683Y-84550000D01*
X130602317Y-84550000D01*
X130804417Y-84517990D01*
X130999031Y-84454755D01*
X131181349Y-84361859D01*
X131225921Y-84329474D01*
X130546447Y-83650000D01*
X130552661Y-83650000D01*
X130654394Y-83622741D01*
X130745606Y-83570080D01*
X130820080Y-83495606D01*
X130872741Y-83404394D01*
X130900000Y-83302661D01*
X130900000Y-83296448D01*
X131579474Y-83975922D01*
X131579474Y-83975921D01*
X131611859Y-83931349D01*
X131704755Y-83749031D01*
X131767990Y-83554417D01*
X131800000Y-83352317D01*
X131800000Y-83147682D01*
X131767990Y-82945582D01*
X131704755Y-82750968D01*
X131611859Y-82568650D01*
X131579474Y-82524077D01*
X131579474Y-82524076D01*
X130900000Y-83203551D01*
X130900000Y-83197339D01*
X130872741Y-83095606D01*
X130820080Y-83004394D01*
X130745606Y-82929920D01*
X130654394Y-82877259D01*
X130552661Y-82850000D01*
X130546446Y-82850000D01*
X131225922Y-82170524D01*
X131225921Y-82170523D01*
X131181359Y-82138147D01*
X131181350Y-82138141D01*
X131127621Y-82110765D01*
X131076825Y-82062791D01*
X131060030Y-81994970D01*
X131082567Y-81928835D01*
X131127621Y-81889795D01*
X131181610Y-81862287D01*
X131250123Y-81812510D01*
X131347213Y-81741971D01*
X131347215Y-81741968D01*
X131347219Y-81741966D01*
X131461583Y-81627602D01*
X131522906Y-81594117D01*
X131592598Y-81599101D01*
X131636945Y-81627602D01*
X133263181Y-83253838D01*
X133296666Y-83315161D01*
X133299500Y-83341519D01*
X133299500Y-87931006D01*
X133299500Y-88068994D01*
X133299500Y-88068996D01*
X133299499Y-88068996D01*
X133326418Y-88204322D01*
X133326421Y-88204332D01*
X133379222Y-88331807D01*
X133455887Y-88446545D01*
X133455888Y-88446546D01*
X136263181Y-91253838D01*
X136296666Y-91315161D01*
X136299500Y-91341519D01*
X136299500Y-93658480D01*
X136279815Y-93725519D01*
X136263181Y-93746161D01*
X132455888Y-97553453D01*
X132455887Y-97553454D01*
X132431763Y-97589558D01*
X132407748Y-97625501D01*
X132393437Y-97646918D01*
X132379223Y-97668191D01*
X132326421Y-97795667D01*
X132326418Y-97795677D01*
X132299500Y-97931004D01*
X132299500Y-97931006D01*
X132299500Y-97931007D01*
X132299500Y-107161006D01*
X132299500Y-107298994D01*
X132299500Y-107298996D01*
X132299499Y-107298996D01*
X132326418Y-107434322D01*
X132326421Y-107434332D01*
X132379222Y-107561807D01*
X132455887Y-107676545D01*
X132455888Y-107676546D01*
X146095791Y-121316448D01*
X146129276Y-121377771D01*
X146130583Y-121423527D01*
X146099500Y-121619778D01*
X146099500Y-121840221D01*
X146133985Y-122057952D01*
X146202103Y-122267603D01*
X146202104Y-122267606D01*
X146302187Y-122464025D01*
X146431752Y-122642358D01*
X146431756Y-122642363D01*
X146481928Y-122692535D01*
X146515413Y-122753858D01*
X146510429Y-122823550D01*
X146468557Y-122879483D01*
X146437581Y-122896398D01*
X146357669Y-122926203D01*
X146357664Y-122926206D01*
X146242455Y-123012452D01*
X146242452Y-123012455D01*
X146156206Y-123127664D01*
X146156202Y-123127671D01*
X146105908Y-123262517D01*
X146099501Y-123322116D01*
X146099501Y-123322123D01*
X146099500Y-123322135D01*
X146099500Y-123445500D01*
X146079815Y-123512539D01*
X146027011Y-123558294D01*
X145975500Y-123569500D01*
X140611519Y-123569500D01*
X140544480Y-123549815D01*
X140523838Y-123533181D01*
X127316805Y-110326148D01*
X127283320Y-110264825D01*
X127282013Y-110219068D01*
X127284590Y-110202797D01*
X127300500Y-110102352D01*
X127300500Y-109897648D01*
X127285733Y-109804417D01*
X127268477Y-109695465D01*
X127222077Y-109552661D01*
X127205220Y-109500781D01*
X127205218Y-109500778D01*
X127205218Y-109500776D01*
X127112419Y-109318650D01*
X127112287Y-109318390D01*
X127080092Y-109274077D01*
X126991971Y-109152786D01*
X126847213Y-109008028D01*
X126681613Y-108887715D01*
X126681612Y-108887714D01*
X126681610Y-108887713D01*
X126624653Y-108858691D01*
X126499223Y-108794781D01*
X126304534Y-108731522D01*
X126129995Y-108703878D01*
X126102352Y-108699500D01*
X125897648Y-108699500D01*
X125873329Y-108703351D01*
X125695465Y-108731522D01*
X125500776Y-108794781D01*
X125318386Y-108887715D01*
X125152786Y-109008028D01*
X125008028Y-109152786D01*
X124887715Y-109318386D01*
X124794781Y-109500776D01*
X124731522Y-109695465D01*
X124699500Y-109897648D01*
X117139995Y-109897648D01*
X117107990Y-109695582D01*
X117044755Y-109500968D01*
X116951859Y-109318650D01*
X116919474Y-109274077D01*
X116919474Y-109274076D01*
X116240000Y-109953551D01*
X116240000Y-109947339D01*
X116212741Y-109845606D01*
X116160080Y-109754394D01*
X116085606Y-109679920D01*
X115994394Y-109627259D01*
X115892661Y-109600000D01*
X115886446Y-109600000D01*
X116565922Y-108920524D01*
X116565921Y-108920523D01*
X116521359Y-108888147D01*
X116521350Y-108888141D01*
X116339031Y-108795244D01*
X116144417Y-108732009D01*
X115942317Y-108700000D01*
X115737683Y-108700000D01*
X115535582Y-108732009D01*
X115340968Y-108795244D01*
X115158644Y-108888143D01*
X115114077Y-108920523D01*
X115114077Y-108920524D01*
X115793554Y-109600000D01*
X115787339Y-109600000D01*
X115685606Y-109627259D01*
X115594394Y-109679920D01*
X115519920Y-109754394D01*
X115467259Y-109845606D01*
X115440000Y-109947339D01*
X115440000Y-109953553D01*
X114760524Y-109274077D01*
X114760523Y-109274077D01*
X114728143Y-109318644D01*
X114635244Y-109500968D01*
X114572009Y-109695582D01*
X114540000Y-109897682D01*
X107237686Y-109897682D01*
X107251718Y-109854497D01*
X107267990Y-109804417D01*
X107300000Y-109602317D01*
X107300000Y-109397682D01*
X107267990Y-109195582D01*
X107206423Y-109006102D01*
X107204754Y-109000967D01*
X107111859Y-108818650D01*
X107079474Y-108774077D01*
X107079474Y-108774076D01*
X106400000Y-109453551D01*
X106400000Y-109447339D01*
X106372741Y-109345606D01*
X106320080Y-109254394D01*
X106245606Y-109179920D01*
X106154394Y-109127259D01*
X106052661Y-109100000D01*
X106046446Y-109100000D01*
X106725922Y-108420524D01*
X106725921Y-108420523D01*
X106681359Y-108388147D01*
X106681350Y-108388141D01*
X106499031Y-108295244D01*
X106304417Y-108232009D01*
X106102317Y-108200000D01*
X105897683Y-108200000D01*
X105695582Y-108232009D01*
X105500968Y-108295244D01*
X105318644Y-108388143D01*
X105274077Y-108420523D01*
X105274077Y-108420524D01*
X105953554Y-109100000D01*
X105947339Y-109100000D01*
X105845606Y-109127259D01*
X105754394Y-109179920D01*
X105679920Y-109254394D01*
X105627259Y-109345606D01*
X105600000Y-109447339D01*
X105600000Y-109453553D01*
X104920524Y-108774077D01*
X104920523Y-108774077D01*
X104888143Y-108818644D01*
X104795244Y-109000968D01*
X104732009Y-109195582D01*
X104700000Y-109397682D01*
X103500499Y-109397682D01*
X103500499Y-108899992D01*
X103499288Y-108888141D01*
X103489999Y-108797203D01*
X103489998Y-108797200D01*
X103468396Y-108732009D01*
X103434814Y-108630666D01*
X103342712Y-108481344D01*
X103218656Y-108357288D01*
X103218655Y-108357287D01*
X103159402Y-108320739D01*
X103112678Y-108268791D01*
X103100500Y-108215201D01*
X103100500Y-107224361D01*
X103120185Y-107157322D01*
X103136819Y-107136680D01*
X108699461Y-101574038D01*
X108699464Y-101574035D01*
X108768417Y-101470840D01*
X108798013Y-101426547D01*
X108826682Y-101357334D01*
X108865895Y-101262666D01*
X108900500Y-101088691D01*
X108900500Y-100911308D01*
X108900500Y-92924362D01*
X108920185Y-92857323D01*
X108936819Y-92836681D01*
X110699459Y-91074041D01*
X110699464Y-91074036D01*
X110798012Y-90926547D01*
X110865895Y-90762666D01*
X110900500Y-90588692D01*
X110900500Y-90411308D01*
X110865895Y-90237334D01*
X110798012Y-90073453D01*
X110699464Y-89925964D01*
X110699459Y-89925958D01*
X110574041Y-89800540D01*
X110574034Y-89800534D01*
X110426548Y-89701988D01*
X110262666Y-89634105D01*
X110262658Y-89634103D01*
X110088696Y-89599500D01*
X110088692Y-89599500D01*
X109911308Y-89599500D01*
X109911303Y-89599500D01*
X109737341Y-89634103D01*
X109737333Y-89634105D01*
X109573451Y-89701988D01*
X109425965Y-89800534D01*
X109425958Y-89800540D01*
X107300537Y-91925961D01*
X107261064Y-91985039D01*
X107261063Y-91985040D01*
X107201985Y-92073455D01*
X107168046Y-92155393D01*
X107134106Y-92237330D01*
X107134103Y-92237342D01*
X107102787Y-92394781D01*
X107102787Y-92394782D01*
X107099500Y-92411306D01*
X107099500Y-100575637D01*
X107079815Y-100642676D01*
X107063181Y-100663318D01*
X101500538Y-106225960D01*
X101500537Y-106225961D01*
X101461064Y-106285039D01*
X101461063Y-106285040D01*
X101401985Y-106373455D01*
X101368046Y-106455393D01*
X101334106Y-106537330D01*
X101334103Y-106537342D01*
X101304556Y-106685884D01*
X101304557Y-106685885D01*
X101299500Y-106711309D01*
X101299500Y-108215201D01*
X101279815Y-108282240D01*
X101240598Y-108320739D01*
X101181344Y-108357287D01*
X101057289Y-108481342D01*
X100965187Y-108630663D01*
X100965186Y-108630666D01*
X100910001Y-108797203D01*
X100910001Y-108797204D01*
X100910000Y-108797204D01*
X100899500Y-108899983D01*
X98000500Y-108899983D01*
X98000500Y-96599983D01*
X101926901Y-96599983D01*
X101926901Y-97400001D01*
X101926902Y-97400019D01*
X101937401Y-97502796D01*
X101937402Y-97502799D01*
X101992586Y-97669331D01*
X101992588Y-97669336D01*
X102002150Y-97684838D01*
X102084689Y-97818656D01*
X102208745Y-97942712D01*
X102358067Y-98034814D01*
X102524604Y-98089999D01*
X102627392Y-98100500D01*
X103427409Y-98100499D01*
X103427417Y-98100498D01*
X103427420Y-98100498D01*
X103483703Y-98094748D01*
X103530198Y-98089999D01*
X103696735Y-98034814D01*
X103846057Y-97942712D01*
X103852480Y-97936289D01*
X104444662Y-97936289D01*
X104444663Y-97936290D01*
X104450872Y-97940801D01*
X104605143Y-98019408D01*
X104769816Y-98072914D01*
X104940830Y-98100000D01*
X105113972Y-98100000D01*
X105284985Y-98072914D01*
X105449658Y-98019408D01*
X105603926Y-97940803D01*
X105610137Y-97936289D01*
X105610138Y-97936289D01*
X105027402Y-97353553D01*
X105027401Y-97353553D01*
X104444662Y-97936289D01*
X103852480Y-97936289D01*
X103970113Y-97818656D01*
X104062215Y-97669334D01*
X104081568Y-97610930D01*
X104111592Y-97562254D01*
X104673847Y-96999999D01*
X104634352Y-96960504D01*
X104727401Y-96960504D01*
X104727401Y-97039496D01*
X104747845Y-97115796D01*
X104787341Y-97184205D01*
X104843196Y-97240060D01*
X104911605Y-97279556D01*
X104987905Y-97300000D01*
X105066897Y-97300000D01*
X105143197Y-97279556D01*
X105211606Y-97240060D01*
X105267461Y-97184205D01*
X105306957Y-97115796D01*
X105327401Y-97039496D01*
X105327401Y-96999999D01*
X105380954Y-96999999D01*
X105380954Y-97000000D01*
X105963690Y-97582736D01*
X105968204Y-97576525D01*
X106046809Y-97422257D01*
X106100315Y-97257584D01*
X106127401Y-97086571D01*
X106127401Y-96913428D01*
X106100315Y-96742415D01*
X106046809Y-96577742D01*
X105968202Y-96423471D01*
X105963691Y-96417262D01*
X105963690Y-96417261D01*
X105380954Y-96999999D01*
X105327401Y-96999999D01*
X105327401Y-96960504D01*
X105306957Y-96884204D01*
X105267461Y-96815795D01*
X105211606Y-96759940D01*
X105143197Y-96720444D01*
X105066897Y-96700000D01*
X104987905Y-96700000D01*
X104911605Y-96720444D01*
X104843196Y-96759940D01*
X104787341Y-96815795D01*
X104747845Y-96884204D01*
X104727401Y-96960504D01*
X104634352Y-96960504D01*
X104111591Y-96437743D01*
X104081567Y-96389066D01*
X104062215Y-96330666D01*
X103970113Y-96181344D01*
X103852477Y-96063708D01*
X104444662Y-96063708D01*
X104444662Y-96063709D01*
X105027401Y-96646446D01*
X105027402Y-96646446D01*
X105610138Y-96063709D01*
X105603926Y-96059196D01*
X105449660Y-95980592D01*
X105284985Y-95927085D01*
X105113972Y-95900000D01*
X104940830Y-95900000D01*
X104769816Y-95927085D01*
X104605141Y-95980592D01*
X104450881Y-96059193D01*
X104450864Y-96059203D01*
X104444662Y-96063708D01*
X103852477Y-96063708D01*
X103846057Y-96057288D01*
X103696735Y-95965186D01*
X103530198Y-95910001D01*
X103530196Y-95910000D01*
X103427411Y-95899500D01*
X102627399Y-95899500D01*
X102627381Y-95899501D01*
X102524604Y-95910000D01*
X102524601Y-95910001D01*
X102358069Y-95965185D01*
X102358064Y-95965187D01*
X102208743Y-96057289D01*
X102084690Y-96181342D01*
X101992588Y-96330663D01*
X101992586Y-96330668D01*
X101976832Y-96378210D01*
X101937402Y-96497203D01*
X101937402Y-96497204D01*
X101937401Y-96497204D01*
X101926901Y-96599983D01*
X98000500Y-96599983D01*
X98000500Y-72939982D01*
X103399500Y-72939982D01*
X103399500Y-74740017D01*
X103410000Y-74842796D01*
X103449560Y-74962180D01*
X103465186Y-75009335D01*
X103557288Y-75158656D01*
X103681344Y-75282712D01*
X103830665Y-75374814D01*
X103997202Y-75429999D01*
X104099990Y-75440500D01*
X104099995Y-75440500D01*
X105900005Y-75440500D01*
X105900010Y-75440500D01*
X106002798Y-75429999D01*
X106169335Y-75374814D01*
X106318656Y-75282712D01*
X106442712Y-75158656D01*
X106534814Y-75009335D01*
X106589999Y-74842798D01*
X106590000Y-74842793D01*
X106590912Y-74838535D01*
X106624198Y-74777104D01*
X106685412Y-74743420D01*
X106712163Y-74740500D01*
X110145638Y-74740500D01*
X110212677Y-74760185D01*
X110233319Y-74776819D01*
X115970681Y-80514180D01*
X116004166Y-80575503D01*
X116007000Y-80601861D01*
X116007000Y-81777870D01*
X116007001Y-81777876D01*
X116013408Y-81837483D01*
X116063702Y-81972328D01*
X116063706Y-81972335D01*
X116149952Y-82087544D01*
X116149955Y-82087547D01*
X116265164Y-82173793D01*
X116265171Y-82173797D01*
X116400017Y-82224091D01*
X116400016Y-82224091D01*
X116406944Y-82224835D01*
X116459627Y-82230500D01*
X118460372Y-82230499D01*
X118519983Y-82224091D01*
X118654831Y-82173796D01*
X118770046Y-82087546D01*
X118856296Y-81972331D01*
X118866872Y-81943974D01*
X118908740Y-81888041D01*
X118974204Y-81863622D01*
X119042477Y-81878472D01*
X119055940Y-81886988D01*
X119238723Y-82019788D01*
X119442429Y-82123582D01*
X119659871Y-82194234D01*
X119750000Y-82208509D01*
X119750000Y-81220747D01*
X119787708Y-81242518D01*
X119927591Y-81280000D01*
X120072409Y-81280000D01*
X120212292Y-81242518D01*
X120250000Y-81220747D01*
X120250000Y-82208508D01*
X120340128Y-82194234D01*
X120557570Y-82123582D01*
X120761276Y-82019788D01*
X120946242Y-81885402D01*
X121107905Y-81723739D01*
X121169371Y-81639137D01*
X121224701Y-81596470D01*
X121294314Y-81590491D01*
X121356109Y-81623096D01*
X121370007Y-81639134D01*
X121431714Y-81724066D01*
X121520158Y-81812510D01*
X121593432Y-81885784D01*
X121596019Y-81887993D01*
X121596730Y-81889082D01*
X121596880Y-81889232D01*
X121596848Y-81889263D01*
X121634220Y-81946495D01*
X121639500Y-81982294D01*
X121639500Y-83475500D01*
X121619815Y-83542539D01*
X121567011Y-83588294D01*
X121515500Y-83599500D01*
X112411306Y-83599500D01*
X112237341Y-83634103D01*
X112237332Y-83634106D01*
X112073459Y-83701983D01*
X112073446Y-83701990D01*
X111925965Y-83800535D01*
X111925961Y-83800538D01*
X111800538Y-83925961D01*
X111800535Y-83925965D01*
X111701990Y-84073446D01*
X111701983Y-84073459D01*
X111634106Y-84237332D01*
X111634103Y-84237341D01*
X111599500Y-84411304D01*
X111599500Y-84588695D01*
X111634103Y-84762658D01*
X111634106Y-84762667D01*
X111701983Y-84926540D01*
X111701990Y-84926553D01*
X111800535Y-85074034D01*
X111800538Y-85074038D01*
X111925961Y-85199461D01*
X111925965Y-85199464D01*
X112073446Y-85298009D01*
X112073459Y-85298016D01*
X112132056Y-85322287D01*
X112237334Y-85365894D01*
X112237336Y-85365894D01*
X112237341Y-85365896D01*
X112411304Y-85400499D01*
X112411307Y-85400500D01*
X112411309Y-85400500D01*
X122588693Y-85400500D01*
X122588694Y-85400499D01*
X122762666Y-85365895D01*
X122844606Y-85331953D01*
X122926547Y-85298013D01*
X123014959Y-85238936D01*
X123074036Y-85199464D01*
X123239464Y-85034035D01*
X123258680Y-85005276D01*
X123338013Y-84886547D01*
X123367244Y-84815977D01*
X123405895Y-84722666D01*
X123440500Y-84548691D01*
X123440500Y-84371308D01*
X123440500Y-81982294D01*
X123460185Y-81915255D01*
X123483981Y-81887993D01*
X123486557Y-81885792D01*
X123486566Y-81885786D01*
X123648286Y-81724066D01*
X123679129Y-81681613D01*
X123734460Y-81638949D01*
X123779447Y-81630500D01*
X124358693Y-81630500D01*
X124358694Y-81630499D01*
X124532666Y-81595895D01*
X124614606Y-81561953D01*
X124628054Y-81556382D01*
X124661315Y-81552808D01*
X124697511Y-81548915D01*
X124697516Y-81548917D01*
X124697522Y-81548917D01*
X124723557Y-81561951D01*
X124759992Y-81580187D01*
X124759995Y-81580192D01*
X124760000Y-81580195D01*
X124777103Y-81609024D01*
X124795647Y-81640274D01*
X124795647Y-81640281D01*
X124795650Y-81640285D01*
X124795649Y-81640295D01*
X124799500Y-81670946D01*
X124799500Y-84158481D01*
X124779815Y-84225520D01*
X124763181Y-84246162D01*
X121746162Y-87263181D01*
X121684839Y-87296666D01*
X121658481Y-87299500D01*
X109341519Y-87299500D01*
X109274480Y-87279815D01*
X109253838Y-87263181D01*
X106566840Y-84576183D01*
X106533355Y-84514860D01*
X106536589Y-84450187D01*
X106561090Y-84374785D01*
X106600500Y-84125962D01*
X106600500Y-83874038D01*
X106561090Y-83625215D01*
X106483241Y-83385621D01*
X106483239Y-83385618D01*
X106483239Y-83385616D01*
X106391321Y-83205218D01*
X106368870Y-83161155D01*
X106326147Y-83102352D01*
X106220798Y-82957350D01*
X106220794Y-82957345D01*
X106042654Y-82779205D01*
X106042649Y-82779201D01*
X105838847Y-82631131D01*
X105614383Y-82516760D01*
X105374785Y-82438910D01*
X105242942Y-82418028D01*
X105125962Y-82399500D01*
X104874038Y-82399500D01*
X104757058Y-82418028D01*
X104625214Y-82438910D01*
X104385616Y-82516760D01*
X104161153Y-82631131D01*
X103957350Y-82779201D01*
X103957345Y-82779205D01*
X103779205Y-82957345D01*
X103779201Y-82957350D01*
X103631132Y-83161151D01*
X103516760Y-83385616D01*
X103456824Y-83570080D01*
X103438910Y-83625215D01*
X103399500Y-83874038D01*
X103399500Y-84125962D01*
X103417140Y-84237334D01*
X103438910Y-84374785D01*
X103516760Y-84614383D01*
X103592311Y-84762658D01*
X103627551Y-84831821D01*
X103631132Y-84838848D01*
X103779201Y-85042649D01*
X103779205Y-85042654D01*
X103957345Y-85220794D01*
X103957350Y-85220798D01*
X104110343Y-85331953D01*
X104161155Y-85368870D01*
X104304184Y-85441747D01*
X104385616Y-85483239D01*
X104385618Y-85483239D01*
X104385621Y-85483241D01*
X104625215Y-85561090D01*
X104874038Y-85600500D01*
X104874039Y-85600500D01*
X105125961Y-85600500D01*
X105125962Y-85600500D01*
X105374785Y-85561090D01*
X105450186Y-85536589D01*
X105520024Y-85534594D01*
X105576183Y-85566840D01*
X108553453Y-88544111D01*
X108553454Y-88544112D01*
X108668190Y-88620776D01*
X108766790Y-88661617D01*
X108795671Y-88673580D01*
X108795672Y-88673580D01*
X108795677Y-88673582D01*
X108822545Y-88678925D01*
X108822551Y-88678926D01*
X108822591Y-88678934D01*
X108912937Y-88696905D01*
X108931006Y-88700500D01*
X108931007Y-88700500D01*
X122068996Y-88700500D01*
X122177457Y-88678925D01*
X122204328Y-88673580D01*
X122268069Y-88647177D01*
X122331807Y-88620777D01*
X122331808Y-88620776D01*
X122331811Y-88620775D01*
X122446543Y-88544114D01*
X126044113Y-84946543D01*
X126089125Y-84879179D01*
X126120775Y-84831811D01*
X126165984Y-84722666D01*
X126173580Y-84704329D01*
X126180477Y-84669655D01*
X126200500Y-84568993D01*
X126200500Y-79841519D01*
X126220185Y-79774480D01*
X126236819Y-79753838D01*
X132253838Y-73736819D01*
X132315161Y-73703334D01*
X132341519Y-73700500D01*
X142528996Y-73700500D01*
X142620040Y-73682389D01*
X142664328Y-73673580D01*
X142728069Y-73647177D01*
X142791807Y-73620777D01*
X142791808Y-73620776D01*
X142791811Y-73620775D01*
X142906543Y-73544114D01*
X148163837Y-68286817D01*
X148225160Y-68253333D01*
X148251518Y-68250499D01*
X149257871Y-68250499D01*
X149257872Y-68250499D01*
X149317483Y-68244091D01*
X149452331Y-68193796D01*
X149567546Y-68107546D01*
X149630734Y-68023136D01*
X149686667Y-67981267D01*
X149756359Y-67976283D01*
X149817682Y-68009768D01*
X149829260Y-68023130D01*
X149892454Y-68107546D01*
X149922771Y-68130241D01*
X150007664Y-68193793D01*
X150007671Y-68193797D01*
X150142517Y-68244091D01*
X150142516Y-68244091D01*
X150149444Y-68244835D01*
X150202127Y-68250500D01*
X151797872Y-68250499D01*
X151857483Y-68244091D01*
X151992331Y-68193796D01*
X152107546Y-68107546D01*
X152193796Y-67992331D01*
X152244091Y-67857483D01*
X152250500Y-67797873D01*
X152250499Y-66674499D01*
X152270184Y-66607461D01*
X152322987Y-66561706D01*
X152374499Y-66550500D01*
X155205561Y-66550500D01*
X155272600Y-66570185D01*
X155293242Y-66586819D01*
X161750533Y-73044111D01*
X161750534Y-73044112D01*
X161865270Y-73120776D01*
X161912978Y-73140537D01*
X161992751Y-73173580D01*
X161992752Y-73173580D01*
X161992757Y-73173582D01*
X162019625Y-73178925D01*
X162019631Y-73178926D01*
X162019671Y-73178934D01*
X162110017Y-73196905D01*
X162128086Y-73200500D01*
X162128087Y-73200500D01*
X165083001Y-73200500D01*
X165150040Y-73220185D01*
X165195795Y-73272989D01*
X165207001Y-73324500D01*
X165207000Y-73765500D01*
X165187315Y-73832540D01*
X165134511Y-73878294D01*
X165083000Y-73889500D01*
X150801004Y-73889500D01*
X150665677Y-73916418D01*
X150665667Y-73916421D01*
X150538192Y-73969222D01*
X150423454Y-74045887D01*
X149909333Y-74560008D01*
X149848010Y-74593493D01*
X149778318Y-74588509D01*
X149773782Y-74586515D01*
X149773728Y-74586647D01*
X149769229Y-74584784D01*
X149769223Y-74584782D01*
X149769219Y-74584780D01*
X149685737Y-74557655D01*
X149574534Y-74521522D01*
X149390207Y-74492328D01*
X149372352Y-74489500D01*
X149167648Y-74489500D01*
X149149793Y-74492328D01*
X148965465Y-74521522D01*
X148770776Y-74584781D01*
X148588386Y-74677715D01*
X148422786Y-74798028D01*
X148278028Y-74942786D01*
X148157713Y-75108388D01*
X148110203Y-75201630D01*
X148062228Y-75252426D01*
X147994407Y-75269220D01*
X147928272Y-75246682D01*
X147889234Y-75201628D01*
X147841861Y-75108652D01*
X147721582Y-74943105D01*
X147721582Y-74943104D01*
X147576895Y-74798417D01*
X147411349Y-74678140D01*
X147229029Y-74585244D01*
X147034413Y-74522009D01*
X146980000Y-74513390D01*
X146980000Y-75874314D01*
X146975606Y-75869920D01*
X146884394Y-75817259D01*
X146782661Y-75790000D01*
X146677339Y-75790000D01*
X146575606Y-75817259D01*
X146484394Y-75869920D01*
X146480000Y-75874314D01*
X146480000Y-74513390D01*
X146425586Y-74522009D01*
X146230970Y-74585244D01*
X146048650Y-74678140D01*
X145883105Y-74798417D01*
X145883104Y-74798417D01*
X145738417Y-74943104D01*
X145738417Y-74943105D01*
X145618140Y-75108650D01*
X145570765Y-75201629D01*
X145522790Y-75252425D01*
X145454969Y-75269220D01*
X145388834Y-75246682D01*
X145349795Y-75201629D01*
X145302419Y-75108650D01*
X145302287Y-75108390D01*
X145269011Y-75062589D01*
X145181971Y-74942786D01*
X145037213Y-74798028D01*
X144871613Y-74677715D01*
X144871612Y-74677714D01*
X144871610Y-74677713D01*
X144814653Y-74648691D01*
X144689223Y-74584781D01*
X144494534Y-74521522D01*
X144310207Y-74492328D01*
X144292352Y-74489500D01*
X144087648Y-74489500D01*
X144069793Y-74492328D01*
X143885465Y-74521522D01*
X143690776Y-74584781D01*
X143508386Y-74677715D01*
X143342786Y-74798028D01*
X143198028Y-74942786D01*
X143077715Y-75108386D01*
X143030485Y-75201080D01*
X142982510Y-75251876D01*
X142914689Y-75268671D01*
X142848554Y-75246134D01*
X142809515Y-75201080D01*
X142787899Y-75158657D01*
X142762287Y-75108390D01*
X142729011Y-75062589D01*
X142641971Y-74942786D01*
X142497213Y-74798028D01*
X142331613Y-74677715D01*
X142331612Y-74677714D01*
X142331610Y-74677713D01*
X142274653Y-74648691D01*
X142149223Y-74584781D01*
X141954534Y-74521522D01*
X141770207Y-74492328D01*
X141752352Y-74489500D01*
X141547648Y-74489500D01*
X141529793Y-74492328D01*
X141345465Y-74521522D01*
X141150776Y-74584781D01*
X140968386Y-74677715D01*
X140802786Y-74798028D01*
X140658028Y-74942786D01*
X140537713Y-75108388D01*
X140490203Y-75201630D01*
X140442228Y-75252426D01*
X140374407Y-75269220D01*
X140308272Y-75246682D01*
X140269234Y-75201628D01*
X140221861Y-75108652D01*
X140101582Y-74943105D01*
X140101582Y-74943104D01*
X139956895Y-74798417D01*
X139791349Y-74678140D01*
X139609029Y-74585244D01*
X139414413Y-74522009D01*
X139360000Y-74513390D01*
X139360000Y-75874314D01*
X139355606Y-75869920D01*
X139264394Y-75817259D01*
X139162661Y-75790000D01*
X139057339Y-75790000D01*
X138955606Y-75817259D01*
X138864394Y-75869920D01*
X138860000Y-75874314D01*
X138860000Y-74513390D01*
X138805586Y-74522009D01*
X138610970Y-74585244D01*
X138428650Y-74678140D01*
X138263105Y-74798417D01*
X138263104Y-74798417D01*
X138118417Y-74943104D01*
X138118417Y-74943105D01*
X137998140Y-75108650D01*
X137905244Y-75290968D01*
X137842009Y-75485582D01*
X137810000Y-75687682D01*
X137810000Y-75940000D01*
X138794314Y-75940000D01*
X138789920Y-75944394D01*
X138737259Y-76035606D01*
X138710000Y-76137339D01*
X138710000Y-76242661D01*
X138737259Y-76344394D01*
X138789920Y-76435606D01*
X138794314Y-76440000D01*
X137810000Y-76440000D01*
X137810000Y-76692317D01*
X137842009Y-76894417D01*
X137905244Y-77089031D01*
X137998140Y-77271349D01*
X138118417Y-77436894D01*
X138118417Y-77436895D01*
X138263104Y-77581582D01*
X138428650Y-77701859D01*
X138610968Y-77794754D01*
X138805578Y-77857988D01*
X138860000Y-77866607D01*
X138860000Y-76505686D01*
X138864394Y-76510080D01*
X138955606Y-76562741D01*
X139057339Y-76590000D01*
X139162661Y-76590000D01*
X139264394Y-76562741D01*
X139355606Y-76510080D01*
X139360000Y-76505686D01*
X139360000Y-77866606D01*
X139414421Y-77857988D01*
X139609031Y-77794754D01*
X139791349Y-77701859D01*
X139956894Y-77581582D01*
X139956895Y-77581582D01*
X140101582Y-77436895D01*
X140101582Y-77436894D01*
X140221861Y-77271347D01*
X140269234Y-77178371D01*
X140317208Y-77127575D01*
X140385028Y-77110779D01*
X140451164Y-77133316D01*
X140490203Y-77178369D01*
X140537713Y-77271611D01*
X140658028Y-77437213D01*
X140802786Y-77581971D01*
X140957749Y-77694556D01*
X140968390Y-77702287D01*
X141084607Y-77761503D01*
X141150776Y-77795218D01*
X141150778Y-77795218D01*
X141150781Y-77795220D01*
X141241856Y-77824812D01*
X141345465Y-77858477D01*
X141446557Y-77874488D01*
X141547648Y-77890500D01*
X141547649Y-77890500D01*
X141752351Y-77890500D01*
X141752352Y-77890500D01*
X141954534Y-77858477D01*
X142149219Y-77795220D01*
X142331610Y-77702287D01*
X142460482Y-77608657D01*
X142497213Y-77581971D01*
X142497215Y-77581968D01*
X142497219Y-77581966D01*
X142641966Y-77437219D01*
X142641968Y-77437215D01*
X142641971Y-77437213D01*
X142762284Y-77271614D01*
X142762286Y-77271611D01*
X142762287Y-77271610D01*
X142809516Y-77178917D01*
X142857489Y-77128123D01*
X142925310Y-77111328D01*
X142991445Y-77133865D01*
X143030483Y-77178917D01*
X143036139Y-77190016D01*
X143077715Y-77271614D01*
X143198028Y-77437213D01*
X143342786Y-77581971D01*
X143497749Y-77694556D01*
X143508390Y-77702287D01*
X143624607Y-77761503D01*
X143690776Y-77795218D01*
X143690778Y-77795218D01*
X143690781Y-77795220D01*
X143781856Y-77824812D01*
X143885465Y-77858477D01*
X143986557Y-77874488D01*
X144087648Y-77890500D01*
X144087649Y-77890500D01*
X144292351Y-77890500D01*
X144292352Y-77890500D01*
X144494534Y-77858477D01*
X144689219Y-77795220D01*
X144871610Y-77702287D01*
X145000482Y-77608657D01*
X145037213Y-77581971D01*
X145037215Y-77581968D01*
X145037219Y-77581966D01*
X145181966Y-77437219D01*
X145181968Y-77437215D01*
X145181971Y-77437213D01*
X145302284Y-77271614D01*
X145302286Y-77271611D01*
X145302287Y-77271610D01*
X145349795Y-77178369D01*
X145397770Y-77127574D01*
X145465591Y-77110779D01*
X145531725Y-77133316D01*
X145570765Y-77178370D01*
X145618140Y-77271349D01*
X145738417Y-77436894D01*
X145738417Y-77436895D01*
X145883104Y-77581582D01*
X146048650Y-77701859D01*
X146230968Y-77794754D01*
X146425578Y-77857988D01*
X146480000Y-77866607D01*
X146480000Y-76505686D01*
X146484394Y-76510080D01*
X146575606Y-76562741D01*
X146677339Y-76590000D01*
X146782661Y-76590000D01*
X146884394Y-76562741D01*
X146975606Y-76510080D01*
X146980000Y-76505686D01*
X146980000Y-77866606D01*
X147034421Y-77857988D01*
X147229031Y-77794754D01*
X147411349Y-77701859D01*
X147576894Y-77581582D01*
X147576895Y-77581582D01*
X147721582Y-77436895D01*
X147721582Y-77436894D01*
X147841861Y-77271347D01*
X147889234Y-77178371D01*
X147937208Y-77127575D01*
X148005028Y-77110779D01*
X148071164Y-77133316D01*
X148110203Y-77178369D01*
X148157713Y-77271611D01*
X148278028Y-77437213D01*
X148422786Y-77581971D01*
X148577749Y-77694556D01*
X148588390Y-77702287D01*
X148704607Y-77761503D01*
X148770776Y-77795218D01*
X148770778Y-77795218D01*
X148770781Y-77795220D01*
X148861856Y-77824812D01*
X148965465Y-77858477D01*
X149066557Y-77874488D01*
X149167648Y-77890500D01*
X149167649Y-77890500D01*
X149372351Y-77890500D01*
X149372352Y-77890500D01*
X149574534Y-77858477D01*
X149769219Y-77795220D01*
X149951610Y-77702287D01*
X150080482Y-77608657D01*
X150117213Y-77581971D01*
X150117215Y-77581968D01*
X150117219Y-77581966D01*
X150261966Y-77437219D01*
X150261968Y-77437215D01*
X150261971Y-77437213D01*
X150382284Y-77271614D01*
X150382286Y-77271611D01*
X150382287Y-77271610D01*
X150429516Y-77178917D01*
X150477489Y-77128123D01*
X150545310Y-77111328D01*
X150611445Y-77133865D01*
X150650483Y-77178917D01*
X150656139Y-77190016D01*
X150697715Y-77271614D01*
X150818028Y-77437213D01*
X150962786Y-77581971D01*
X151117749Y-77694556D01*
X151128390Y-77702287D01*
X151244607Y-77761503D01*
X151310776Y-77795218D01*
X151310778Y-77795218D01*
X151310781Y-77795220D01*
X151401856Y-77824812D01*
X151505465Y-77858477D01*
X151606557Y-77874488D01*
X151707648Y-77890500D01*
X151707649Y-77890500D01*
X151912351Y-77890500D01*
X151912352Y-77890500D01*
X152114534Y-77858477D01*
X152309219Y-77795220D01*
X152491610Y-77702287D01*
X152620482Y-77608657D01*
X152657213Y-77581971D01*
X152657215Y-77581968D01*
X152657219Y-77581966D01*
X152801966Y-77437219D01*
X152801968Y-77437215D01*
X152801971Y-77437213D01*
X152922284Y-77271614D01*
X152922286Y-77271611D01*
X152922287Y-77271610D01*
X152969516Y-77178917D01*
X153017489Y-77128123D01*
X153085310Y-77111328D01*
X153151445Y-77133865D01*
X153190483Y-77178917D01*
X153196139Y-77190016D01*
X153237715Y-77271614D01*
X153358028Y-77437213D01*
X153502786Y-77581971D01*
X153657749Y-77694556D01*
X153668390Y-77702287D01*
X153784607Y-77761503D01*
X153850776Y-77795218D01*
X153850778Y-77795218D01*
X153850781Y-77795220D01*
X153941856Y-77824812D01*
X154045465Y-77858477D01*
X154146557Y-77874488D01*
X154247648Y-77890500D01*
X154247649Y-77890500D01*
X154452351Y-77890500D01*
X154452352Y-77890500D01*
X154654534Y-77858477D01*
X154849219Y-77795220D01*
X155031610Y-77702287D01*
X155160482Y-77608657D01*
X155197213Y-77581971D01*
X155197215Y-77581968D01*
X155197219Y-77581966D01*
X155341966Y-77437219D01*
X155410021Y-77343547D01*
X155465349Y-77300882D01*
X155534963Y-77294902D01*
X155596758Y-77327507D01*
X155628044Y-77377427D01*
X155647856Y-77437215D01*
X155655186Y-77459333D01*
X155655187Y-77459336D01*
X155681618Y-77502187D01*
X155747288Y-77608656D01*
X155871344Y-77732712D01*
X156020666Y-77824814D01*
X156187203Y-77879999D01*
X156289991Y-77890500D01*
X157490008Y-77890499D01*
X157592797Y-77879999D01*
X157759334Y-77824814D01*
X157908656Y-77732712D01*
X158032712Y-77608656D01*
X158124814Y-77459334D01*
X158179999Y-77292797D01*
X158190500Y-77190009D01*
X158190499Y-75414499D01*
X158210184Y-75347461D01*
X158262987Y-75301706D01*
X158314499Y-75290500D01*
X164748481Y-75290500D01*
X164815520Y-75310185D01*
X164836162Y-75326819D01*
X171163181Y-81653837D01*
X171196666Y-81715160D01*
X171199500Y-81741518D01*
X171199500Y-82600001D01*
X171199501Y-82600019D01*
X171210000Y-82702796D01*
X171210001Y-82702799D01*
X171240778Y-82795677D01*
X171265186Y-82869334D01*
X171357288Y-83018656D01*
X171481344Y-83142712D01*
X171630666Y-83234814D01*
X171797203Y-83289999D01*
X171899991Y-83300500D01*
X173100008Y-83300499D01*
X173202797Y-83289999D01*
X173369334Y-83234814D01*
X173518656Y-83142712D01*
X173587524Y-83073843D01*
X173648843Y-83040361D01*
X173718535Y-83045345D01*
X173748082Y-83061206D01*
X173818390Y-83112287D01*
X173904561Y-83156193D01*
X174000776Y-83205218D01*
X174000778Y-83205218D01*
X174000781Y-83205220D01*
X174091856Y-83234812D01*
X174195465Y-83268477D01*
X174296557Y-83284488D01*
X174397648Y-83300500D01*
X174397649Y-83300500D01*
X174602351Y-83300500D01*
X174602352Y-83300500D01*
X174804534Y-83268477D01*
X174999219Y-83205220D01*
X175181610Y-83112287D01*
X175274590Y-83044732D01*
X175347213Y-82991971D01*
X175347215Y-82991968D01*
X175347219Y-82991966D01*
X175491966Y-82847219D01*
X175491968Y-82847215D01*
X175491971Y-82847213D01*
X175561896Y-82750968D01*
X175612287Y-82681610D01*
X175705220Y-82499219D01*
X175768477Y-82304534D01*
X175800500Y-82102352D01*
X175800500Y-81897648D01*
X175777956Y-81755312D01*
X175768477Y-81695465D01*
X175735547Y-81594117D01*
X175705220Y-81500781D01*
X175705218Y-81500778D01*
X175705218Y-81500776D01*
X175669976Y-81431610D01*
X175612287Y-81318390D01*
X175604556Y-81307749D01*
X175491971Y-81152786D01*
X175347213Y-81008028D01*
X175181613Y-80887715D01*
X175181612Y-80887714D01*
X175181610Y-80887713D01*
X175112208Y-80852351D01*
X174999223Y-80794781D01*
X174804534Y-80731522D01*
X174629995Y-80703878D01*
X174602352Y-80699500D01*
X174397648Y-80699500D01*
X174373329Y-80703351D01*
X174195465Y-80731522D01*
X174000776Y-80794781D01*
X173818391Y-80887712D01*
X173818383Y-80887717D01*
X173748085Y-80938790D01*
X173682279Y-80962269D01*
X173614225Y-80946442D01*
X173587521Y-80926153D01*
X173553222Y-80891854D01*
X173518656Y-80857288D01*
X173433128Y-80804534D01*
X173369336Y-80765187D01*
X173369331Y-80765185D01*
X173367862Y-80764698D01*
X173202797Y-80710001D01*
X173202795Y-80710000D01*
X173100016Y-80699500D01*
X173100009Y-80699500D01*
X172241518Y-80699500D01*
X172174479Y-80679815D01*
X172153837Y-80663181D01*
X170163243Y-78672587D01*
X170080434Y-78589778D01*
X188599500Y-78589778D01*
X188599500Y-78810221D01*
X188633985Y-79027952D01*
X188702103Y-79237603D01*
X188702104Y-79237606D01*
X188752214Y-79335950D01*
X188800647Y-79431004D01*
X188802187Y-79434025D01*
X188931752Y-79612358D01*
X188931756Y-79612363D01*
X189087636Y-79768243D01*
X189087641Y-79768247D01*
X189243192Y-79881260D01*
X189265978Y-79897815D01*
X189394375Y-79963237D01*
X189462393Y-79997895D01*
X189462396Y-79997896D01*
X189560635Y-80029815D01*
X189672049Y-80066015D01*
X189889778Y-80100500D01*
X189889779Y-80100500D01*
X190110221Y-80100500D01*
X190110222Y-80100500D01*
X190327951Y-80066015D01*
X190537606Y-79997895D01*
X190734022Y-79897815D01*
X190912365Y-79768242D01*
X191068242Y-79612365D01*
X191197815Y-79434022D01*
X191297895Y-79237606D01*
X191366015Y-79027951D01*
X191400500Y-78810222D01*
X191400500Y-78589778D01*
X191366015Y-78372049D01*
X191297895Y-78162394D01*
X191297895Y-78162393D01*
X191263237Y-78094375D01*
X191197815Y-77965978D01*
X191181260Y-77943192D01*
X191068247Y-77787641D01*
X191068243Y-77787636D01*
X190912363Y-77631756D01*
X190912358Y-77631752D01*
X190734025Y-77502187D01*
X190734024Y-77502186D01*
X190734022Y-77502185D01*
X190649917Y-77459331D01*
X190537606Y-77402104D01*
X190537603Y-77402103D01*
X190327952Y-77333985D01*
X190219086Y-77316742D01*
X190110222Y-77299500D01*
X189889778Y-77299500D01*
X189817201Y-77310995D01*
X189672047Y-77333985D01*
X189462396Y-77402103D01*
X189462393Y-77402104D01*
X189265974Y-77502187D01*
X189087641Y-77631752D01*
X189087636Y-77631756D01*
X188931756Y-77787636D01*
X188931752Y-77787641D01*
X188802187Y-77965974D01*
X188702104Y-78162393D01*
X188702103Y-78162396D01*
X188633985Y-78372047D01*
X188599500Y-78589778D01*
X170080434Y-78589778D01*
X168282145Y-76791488D01*
X166980475Y-75489818D01*
X188600000Y-75489818D01*
X188600000Y-75710181D01*
X188634473Y-75927835D01*
X188702567Y-76137410D01*
X188802611Y-76333756D01*
X188848932Y-76397513D01*
X189284152Y-75962292D01*
X189291049Y-75978942D01*
X189378599Y-76109970D01*
X189490030Y-76221401D01*
X189621058Y-76308951D01*
X189637705Y-76315846D01*
X189202485Y-76751065D01*
X189202485Y-76751066D01*
X189266243Y-76797388D01*
X189462589Y-76897432D01*
X189672164Y-76965526D01*
X189889819Y-77000000D01*
X190110181Y-77000000D01*
X190327835Y-76965526D01*
X190537410Y-76897432D01*
X190733760Y-76797386D01*
X190797513Y-76751066D01*
X190797514Y-76751066D01*
X190362294Y-76315846D01*
X190378942Y-76308951D01*
X190509970Y-76221401D01*
X190621401Y-76109970D01*
X190708951Y-75978942D01*
X190715846Y-75962294D01*
X191151066Y-76397514D01*
X191151066Y-76397513D01*
X191197386Y-76333760D01*
X191297432Y-76137410D01*
X191365526Y-75927835D01*
X191400000Y-75710181D01*
X191400000Y-75489818D01*
X191365526Y-75272164D01*
X191297432Y-75062589D01*
X191197388Y-74866243D01*
X191151066Y-74802485D01*
X191151065Y-74802485D01*
X190715846Y-75237704D01*
X190708951Y-75221058D01*
X190621401Y-75090030D01*
X190509970Y-74978599D01*
X190378942Y-74891049D01*
X190362292Y-74884152D01*
X190797513Y-74448932D01*
X190733756Y-74402611D01*
X190537410Y-74302567D01*
X190327835Y-74234473D01*
X190110181Y-74200000D01*
X189889819Y-74200000D01*
X189672164Y-74234473D01*
X189462589Y-74302567D01*
X189266233Y-74402616D01*
X189202485Y-74448931D01*
X189202485Y-74448932D01*
X189637706Y-74884153D01*
X189621058Y-74891049D01*
X189490030Y-74978599D01*
X189378599Y-75090030D01*
X189291049Y-75221058D01*
X189284153Y-75237706D01*
X188848932Y-74802485D01*
X188848931Y-74802485D01*
X188802616Y-74866233D01*
X188702567Y-75062589D01*
X188634473Y-75272164D01*
X188600000Y-75489818D01*
X166980475Y-75489818D01*
X166452837Y-74962180D01*
X166419352Y-74900857D01*
X166424336Y-74831165D01*
X166466208Y-74775232D01*
X166531672Y-74750815D01*
X166540518Y-74750499D01*
X169255371Y-74750499D01*
X169255372Y-74750499D01*
X169314983Y-74744091D01*
X169449831Y-74693796D01*
X169565046Y-74607546D01*
X169651296Y-74492331D01*
X169701591Y-74357483D01*
X169708000Y-74297873D01*
X169708000Y-73324500D01*
X169727685Y-73257461D01*
X169780489Y-73211706D01*
X169832000Y-73200500D01*
X177718001Y-73200500D01*
X177785040Y-73220185D01*
X177830795Y-73272989D01*
X177842001Y-73324500D01*
X177842001Y-74297876D01*
X177848408Y-74357483D01*
X177898702Y-74492328D01*
X177898706Y-74492335D01*
X177984952Y-74607544D01*
X177984955Y-74607547D01*
X178100164Y-74693793D01*
X178100171Y-74693797D01*
X178235017Y-74744091D01*
X178235016Y-74744091D01*
X178241944Y-74744835D01*
X178294627Y-74750500D01*
X181890372Y-74750499D01*
X181949983Y-74744091D01*
X182084831Y-74693796D01*
X182200046Y-74607546D01*
X182286296Y-74492331D01*
X182288961Y-74485184D01*
X182301019Y-74452858D01*
X182336591Y-74357482D01*
X182343000Y-74297873D01*
X182342999Y-70702128D01*
X182336591Y-70642517D01*
X182324788Y-70610872D01*
X182286297Y-70507671D01*
X182286293Y-70507664D01*
X182200047Y-70392455D01*
X182200044Y-70392452D01*
X182084835Y-70306206D01*
X182084828Y-70306202D01*
X181949982Y-70255908D01*
X181949983Y-70255908D01*
X181890383Y-70249501D01*
X181890381Y-70249500D01*
X181890373Y-70249500D01*
X181890364Y-70249500D01*
X178294629Y-70249500D01*
X178294623Y-70249501D01*
X178235016Y-70255908D01*
X178100171Y-70306202D01*
X178100164Y-70306206D01*
X177984955Y-70392452D01*
X177984952Y-70392455D01*
X177898706Y-70507664D01*
X177898703Y-70507669D01*
X177881073Y-70554939D01*
X177839201Y-70610872D01*
X177773737Y-70635289D01*
X177705464Y-70620437D01*
X177656059Y-70571032D01*
X177641066Y-70505025D01*
X177642999Y-70468650D01*
X177643000Y-70468613D01*
X177643000Y-68531386D01*
X177642998Y-68531347D01*
X177641333Y-68499998D01*
X177640205Y-68478759D01*
X177595745Y-68248874D01*
X177513074Y-68029810D01*
X177394570Y-67827868D01*
X177394565Y-67827861D01*
X177243643Y-67648858D01*
X177243641Y-67648856D01*
X177064638Y-67497934D01*
X177064631Y-67497929D01*
X176862689Y-67379425D01*
X176772332Y-67345326D01*
X176643626Y-67296755D01*
X176643621Y-67296754D01*
X176413743Y-67252295D01*
X176361152Y-67249501D01*
X176361129Y-67249500D01*
X176361122Y-67249500D01*
X174423878Y-67249500D01*
X174423870Y-67249500D01*
X174423847Y-67249501D01*
X174371256Y-67252295D01*
X174371255Y-67252295D01*
X174141378Y-67296754D01*
X174141376Y-67296754D01*
X174141374Y-67296755D01*
X174095156Y-67314197D01*
X173922310Y-67379425D01*
X173720368Y-67497929D01*
X173720361Y-67497934D01*
X173541358Y-67648856D01*
X173541356Y-67648858D01*
X173390434Y-67827861D01*
X173390429Y-67827868D01*
X173271925Y-68029810D01*
X173242589Y-68107547D01*
X173189255Y-68248874D01*
X173189254Y-68248876D01*
X173189254Y-68248878D01*
X173144795Y-68478755D01*
X173144795Y-68478756D01*
X173142001Y-68531347D01*
X173142000Y-68531386D01*
X173142000Y-70468613D01*
X173142001Y-70468652D01*
X173144795Y-70521243D01*
X173144795Y-70521244D01*
X173179779Y-70702128D01*
X173189255Y-70751126D01*
X173235380Y-70873350D01*
X173271925Y-70970189D01*
X173390429Y-71172131D01*
X173390434Y-71172138D01*
X173541356Y-71351141D01*
X173541358Y-71351143D01*
X173720361Y-71502065D01*
X173720368Y-71502070D01*
X173833663Y-71568554D01*
X173881520Y-71619461D01*
X173894257Y-71688160D01*
X173867831Y-71752839D01*
X173810631Y-71792964D01*
X173770905Y-71799500D01*
X169831999Y-71799500D01*
X169764960Y-71779815D01*
X169719205Y-71727011D01*
X169707999Y-71675500D01*
X169707999Y-70702129D01*
X169707998Y-70702123D01*
X169707983Y-70701987D01*
X169701591Y-70642517D01*
X169689788Y-70610872D01*
X169651297Y-70507671D01*
X169651293Y-70507664D01*
X169565047Y-70392455D01*
X169565044Y-70392452D01*
X169449835Y-70306206D01*
X169449828Y-70306202D01*
X169314982Y-70255908D01*
X169314983Y-70255908D01*
X169255383Y-70249501D01*
X169255381Y-70249500D01*
X169255373Y-70249500D01*
X169255364Y-70249500D01*
X165659629Y-70249500D01*
X165659623Y-70249501D01*
X165600016Y-70255908D01*
X165465171Y-70306202D01*
X165465164Y-70306206D01*
X165349955Y-70392452D01*
X165349952Y-70392455D01*
X165263706Y-70507664D01*
X165263703Y-70507669D01*
X165246073Y-70554939D01*
X165204201Y-70610872D01*
X165138737Y-70635289D01*
X165070464Y-70620437D01*
X165021059Y-70571032D01*
X165006066Y-70505025D01*
X165007999Y-70468650D01*
X165008000Y-70468613D01*
X165008000Y-68531386D01*
X165007998Y-68531347D01*
X165006333Y-68499998D01*
X165005205Y-68478759D01*
X164960745Y-68248874D01*
X164878074Y-68029810D01*
X164759570Y-67827868D01*
X164759565Y-67827861D01*
X164608643Y-67648858D01*
X164608641Y-67648856D01*
X164429638Y-67497934D01*
X164429631Y-67497929D01*
X164227689Y-67379425D01*
X164137332Y-67345326D01*
X164008626Y-67296755D01*
X164008621Y-67296754D01*
X163778743Y-67252295D01*
X163726152Y-67249501D01*
X163726129Y-67249500D01*
X163726122Y-67249500D01*
X161788878Y-67249500D01*
X161788870Y-67249500D01*
X161788847Y-67249501D01*
X161736256Y-67252295D01*
X161736255Y-67252295D01*
X161506378Y-67296754D01*
X161506376Y-67296754D01*
X161506374Y-67296755D01*
X161460156Y-67314197D01*
X161287310Y-67379425D01*
X161085368Y-67497929D01*
X161085361Y-67497934D01*
X160906358Y-67648856D01*
X160906356Y-67648858D01*
X160755434Y-67827861D01*
X160755429Y-67827868D01*
X160636925Y-68029810D01*
X160607589Y-68107547D01*
X160554255Y-68248874D01*
X160554254Y-68248876D01*
X160554254Y-68248878D01*
X160509795Y-68478755D01*
X160509795Y-68478756D01*
X160507001Y-68531347D01*
X160507000Y-68531386D01*
X160507000Y-69519900D01*
X160487315Y-69586939D01*
X160434511Y-69632694D01*
X160365353Y-69642638D01*
X160301797Y-69613613D01*
X160295319Y-69607581D01*
X156373541Y-65685803D01*
X165207500Y-65685803D01*
X165207500Y-66250000D01*
X166024488Y-66250000D01*
X165991575Y-66307007D01*
X165957500Y-66434174D01*
X165957500Y-66565826D01*
X165991575Y-66692993D01*
X166024488Y-66750000D01*
X165207501Y-66750000D01*
X165207501Y-67314197D01*
X165217900Y-67446332D01*
X165272877Y-67664519D01*
X165365928Y-67869374D01*
X165365931Y-67869380D01*
X165494059Y-68054323D01*
X165494069Y-68054335D01*
X165653164Y-68213430D01*
X165653176Y-68213440D01*
X165838119Y-68341568D01*
X165838125Y-68341571D01*
X166042980Y-68434622D01*
X166261167Y-68489599D01*
X166393310Y-68499999D01*
X167207499Y-68499999D01*
X167207500Y-68499998D01*
X167207500Y-67000000D01*
X167707500Y-67000000D01*
X167707500Y-68499999D01*
X168521682Y-68499999D01*
X168521697Y-68499998D01*
X168653832Y-68489599D01*
X168872019Y-68434622D01*
X169076874Y-68341571D01*
X169076880Y-68341568D01*
X169261823Y-68213440D01*
X169261835Y-68213430D01*
X169420930Y-68054335D01*
X169420940Y-68054323D01*
X169549068Y-67869380D01*
X169549071Y-67869374D01*
X169642122Y-67664519D01*
X169697099Y-67446332D01*
X169707499Y-67314196D01*
X169707500Y-67314184D01*
X169707500Y-66750000D01*
X168890512Y-66750000D01*
X168923425Y-66692993D01*
X168957500Y-66565826D01*
X168957500Y-66434174D01*
X168923425Y-66307007D01*
X168890512Y-66250000D01*
X169707499Y-66250000D01*
X169707499Y-65685818D01*
X169707498Y-65685803D01*
X177842500Y-65685803D01*
X177842500Y-66250000D01*
X178659488Y-66250000D01*
X178626575Y-66307007D01*
X178592500Y-66434174D01*
X178592500Y-66565826D01*
X178626575Y-66692993D01*
X178659488Y-66750000D01*
X177842501Y-66750000D01*
X177842501Y-67314197D01*
X177852900Y-67446332D01*
X177907877Y-67664519D01*
X178000928Y-67869374D01*
X178000931Y-67869380D01*
X178129059Y-68054323D01*
X178129069Y-68054335D01*
X178288164Y-68213430D01*
X178288176Y-68213440D01*
X178473119Y-68341568D01*
X178473125Y-68341571D01*
X178677980Y-68434622D01*
X178896167Y-68489599D01*
X179028310Y-68499999D01*
X179842499Y-68499999D01*
X179842500Y-68499998D01*
X179842500Y-67000000D01*
X180342500Y-67000000D01*
X180342500Y-68499999D01*
X181156682Y-68499999D01*
X181156697Y-68499998D01*
X181288832Y-68489599D01*
X181507019Y-68434622D01*
X181711874Y-68341571D01*
X181711880Y-68341568D01*
X181896823Y-68213440D01*
X181896835Y-68213430D01*
X182055930Y-68054335D01*
X182055940Y-68054323D01*
X182184068Y-67869380D01*
X182184071Y-67869374D01*
X182277122Y-67664519D01*
X182332099Y-67446332D01*
X182342499Y-67314196D01*
X182342500Y-67314184D01*
X182342500Y-66750000D01*
X181525512Y-66750000D01*
X181558425Y-66692993D01*
X181592500Y-66565826D01*
X181592500Y-66434174D01*
X181558425Y-66307007D01*
X181525512Y-66250000D01*
X182342499Y-66250000D01*
X182342499Y-65685817D01*
X182342498Y-65685802D01*
X182332099Y-65553667D01*
X182277122Y-65335480D01*
X182184071Y-65130625D01*
X182184068Y-65130619D01*
X182055940Y-64945676D01*
X182055930Y-64945664D01*
X181896835Y-64786569D01*
X181896823Y-64786559D01*
X181711880Y-64658431D01*
X181711874Y-64658428D01*
X181507019Y-64565377D01*
X181288832Y-64510400D01*
X181156696Y-64500000D01*
X180342500Y-64500000D01*
X180342500Y-66000000D01*
X179842500Y-66000000D01*
X179842500Y-64500000D01*
X179028317Y-64500000D01*
X179028302Y-64500001D01*
X178896167Y-64510400D01*
X178677980Y-64565377D01*
X178473125Y-64658428D01*
X178473119Y-64658431D01*
X178288176Y-64786559D01*
X178288164Y-64786569D01*
X178129069Y-64945664D01*
X178129059Y-64945676D01*
X178000931Y-65130619D01*
X178000928Y-65130625D01*
X177907877Y-65335480D01*
X177852900Y-65553667D01*
X177842500Y-65685803D01*
X169707498Y-65685803D01*
X169707498Y-65685801D01*
X169697099Y-65553667D01*
X169642122Y-65335480D01*
X169549071Y-65130625D01*
X169549068Y-65130619D01*
X169420940Y-64945676D01*
X169420930Y-64945664D01*
X169261835Y-64786569D01*
X169261823Y-64786559D01*
X169076880Y-64658431D01*
X169076874Y-64658428D01*
X168872019Y-64565377D01*
X168653832Y-64510400D01*
X168521696Y-64500000D01*
X167707500Y-64500000D01*
X167707500Y-66000000D01*
X167207500Y-66000000D01*
X167207500Y-64500000D01*
X166393317Y-64500000D01*
X166393302Y-64500001D01*
X166261167Y-64510400D01*
X166042980Y-64565377D01*
X165838125Y-64658428D01*
X165838119Y-64658431D01*
X165653176Y-64786559D01*
X165653164Y-64786569D01*
X165494069Y-64945664D01*
X165494059Y-64945676D01*
X165365931Y-65130619D01*
X165365928Y-65130625D01*
X165272877Y-65335480D01*
X165217900Y-65553667D01*
X165207500Y-65685803D01*
X156373541Y-65685803D01*
X155993625Y-65305887D01*
X155878887Y-65229222D01*
X155751412Y-65176421D01*
X155751402Y-65176418D01*
X155616076Y-65149500D01*
X155616074Y-65149500D01*
X155616073Y-65149500D01*
X147138994Y-65149500D01*
X147001006Y-65149500D01*
X147001004Y-65149500D01*
X146865677Y-65176418D01*
X146865667Y-65176421D01*
X146738192Y-65229222D01*
X146623454Y-65305887D01*
X146216160Y-65713181D01*
X146154837Y-65746666D01*
X146128479Y-65749500D01*
X145122129Y-65749500D01*
X145122123Y-65749501D01*
X145062516Y-65755908D01*
X144927671Y-65806202D01*
X144927664Y-65806206D01*
X144812455Y-65892452D01*
X144812452Y-65892455D01*
X144726206Y-66007664D01*
X144726202Y-66007671D01*
X144675908Y-66142517D01*
X144669501Y-66202116D01*
X144669500Y-66202135D01*
X144669500Y-67797870D01*
X144669501Y-67797876D01*
X144675908Y-67857483D01*
X144726202Y-67992328D01*
X144726206Y-67992335D01*
X144812452Y-68107544D01*
X144812455Y-68107547D01*
X144927664Y-68193793D01*
X144927671Y-68193797D01*
X145062517Y-68244091D01*
X145062516Y-68244091D01*
X145069444Y-68244835D01*
X145122127Y-68250500D01*
X145919481Y-68250499D01*
X145986520Y-68270183D01*
X146032275Y-68322987D01*
X146042219Y-68392146D01*
X146013194Y-68455702D01*
X146007162Y-68462180D01*
X142206162Y-72263181D01*
X142144839Y-72296666D01*
X142118481Y-72299500D01*
X131931003Y-72299500D01*
X131822590Y-72321065D01*
X131822589Y-72321065D01*
X131795671Y-72326420D01*
X131668190Y-72379224D01*
X131553454Y-72455887D01*
X124955887Y-79053454D01*
X124879222Y-79168192D01*
X124826421Y-79295667D01*
X124826418Y-79295677D01*
X124799500Y-79431004D01*
X124799500Y-79490337D01*
X124779815Y-79557376D01*
X124727011Y-79603131D01*
X124657853Y-79613075D01*
X124651310Y-79611955D01*
X124614388Y-79604611D01*
X124588692Y-79599500D01*
X124411308Y-79599500D01*
X124411303Y-79599500D01*
X124237341Y-79634103D01*
X124237333Y-79634105D01*
X124073451Y-79701988D01*
X123925967Y-79800533D01*
X123924960Y-79801360D01*
X123924329Y-79801627D01*
X123920899Y-79803920D01*
X123920464Y-79803269D01*
X123902114Y-79811060D01*
X123881238Y-79824477D01*
X123865029Y-79826807D01*
X123860648Y-79828668D01*
X123846303Y-79829500D01*
X123779447Y-79829500D01*
X123712408Y-79809815D01*
X123679129Y-79778386D01*
X123676291Y-79774480D01*
X123648286Y-79735934D01*
X123486566Y-79574214D01*
X123301538Y-79439783D01*
X123199345Y-79387713D01*
X123097755Y-79335950D01*
X122880248Y-79265278D01*
X122694812Y-79235908D01*
X122654354Y-79229500D01*
X122425646Y-79229500D01*
X122350349Y-79241426D01*
X122199753Y-79265278D01*
X122199750Y-79265278D01*
X121982244Y-79335950D01*
X121778461Y-79439783D01*
X121684531Y-79508028D01*
X121593434Y-79574214D01*
X121593432Y-79574216D01*
X121593431Y-79574216D01*
X121431716Y-79735931D01*
X121431709Y-79735940D01*
X121370007Y-79820864D01*
X121314677Y-79863530D01*
X121245063Y-79869508D01*
X121183269Y-79836901D01*
X121169372Y-79820863D01*
X121107907Y-79736263D01*
X121107902Y-79736257D01*
X120946242Y-79574597D01*
X120761276Y-79440211D01*
X120557568Y-79336417D01*
X120340124Y-79265765D01*
X120250000Y-79251490D01*
X120250000Y-80239252D01*
X120212292Y-80217482D01*
X120072409Y-80180000D01*
X119927591Y-80180000D01*
X119787708Y-80217482D01*
X119750000Y-80239252D01*
X119750000Y-79251490D01*
X119749999Y-79251490D01*
X119659875Y-79265765D01*
X119442431Y-79336417D01*
X119238719Y-79440213D01*
X119055939Y-79573010D01*
X118990132Y-79596490D01*
X118922079Y-79580664D01*
X118873384Y-79530558D01*
X118866875Y-79516033D01*
X118856296Y-79487669D01*
X118856295Y-79487667D01*
X118856293Y-79487664D01*
X118770047Y-79372455D01*
X118770044Y-79372452D01*
X118654835Y-79286206D01*
X118654828Y-79286202D01*
X118519983Y-79235908D01*
X118471243Y-79230668D01*
X118406692Y-79203929D01*
X118366845Y-79146536D01*
X118360500Y-79107379D01*
X118360500Y-72871309D01*
X118353716Y-72837201D01*
X118353716Y-72837200D01*
X118325896Y-72697341D01*
X118325895Y-72697334D01*
X118280895Y-72588696D01*
X118273960Y-72571953D01*
X118266491Y-72502484D01*
X118297766Y-72440004D01*
X118357855Y-72404352D01*
X118388521Y-72400500D01*
X126588693Y-72400500D01*
X126588694Y-72400499D01*
X126762666Y-72365895D01*
X126844606Y-72331953D01*
X126926547Y-72298013D01*
X127017359Y-72237334D01*
X127074036Y-72199464D01*
X131974790Y-67298709D01*
X132036111Y-67265226D01*
X132105803Y-67270210D01*
X132161736Y-67312082D01*
X132180427Y-67351876D01*
X132181249Y-67351610D01*
X132182753Y-67356239D01*
X132182754Y-67356243D01*
X132248443Y-67558412D01*
X132248444Y-67558414D01*
X132344951Y-67747820D01*
X132469890Y-67919786D01*
X132583818Y-68033714D01*
X132617303Y-68095037D01*
X132612319Y-68164729D01*
X132570447Y-68220662D01*
X132539471Y-68237577D01*
X132407912Y-68286646D01*
X132407906Y-68286649D01*
X132292812Y-68372809D01*
X132292809Y-68372812D01*
X132206649Y-68487906D01*
X132206645Y-68487913D01*
X132156403Y-68622620D01*
X132156401Y-68622627D01*
X132150000Y-68682155D01*
X132150000Y-69330000D01*
X133066988Y-69330000D01*
X133034075Y-69387007D01*
X133000000Y-69514174D01*
X133000000Y-69645826D01*
X133034075Y-69772993D01*
X133066988Y-69830000D01*
X132150000Y-69830000D01*
X132150000Y-70477844D01*
X132156401Y-70537372D01*
X132156403Y-70537379D01*
X132206645Y-70672086D01*
X132206649Y-70672093D01*
X132292809Y-70787187D01*
X132292812Y-70787190D01*
X132407906Y-70873350D01*
X132407913Y-70873354D01*
X132542620Y-70923596D01*
X132542627Y-70923598D01*
X132602155Y-70929999D01*
X132602172Y-70930000D01*
X133250000Y-70930000D01*
X133250000Y-70013012D01*
X133307007Y-70045925D01*
X133434174Y-70080000D01*
X133565826Y-70080000D01*
X133692993Y-70045925D01*
X133750000Y-70013012D01*
X133750000Y-70930000D01*
X134397828Y-70930000D01*
X134397844Y-70929999D01*
X134457372Y-70923598D01*
X134457379Y-70923596D01*
X134592086Y-70873354D01*
X134592093Y-70873350D01*
X134707187Y-70787190D01*
X134707190Y-70787187D01*
X134793350Y-70672093D01*
X134793354Y-70672086D01*
X134843596Y-70537379D01*
X134843598Y-70537372D01*
X134849999Y-70477844D01*
X134850000Y-70477827D01*
X134850000Y-69830000D01*
X133933012Y-69830000D01*
X133965925Y-69772993D01*
X134000000Y-69645826D01*
X134000000Y-69514174D01*
X133965925Y-69387007D01*
X133933012Y-69330000D01*
X134850000Y-69330000D01*
X134850000Y-68682172D01*
X134849999Y-68682155D01*
X134843598Y-68622627D01*
X134843596Y-68622620D01*
X134793354Y-68487913D01*
X134793350Y-68487906D01*
X134707190Y-68372812D01*
X134707187Y-68372809D01*
X134592093Y-68286649D01*
X134592088Y-68286646D01*
X134460528Y-68237577D01*
X134404595Y-68195705D01*
X134380178Y-68130241D01*
X134395030Y-68061968D01*
X134416175Y-68033720D01*
X134530104Y-67919792D01*
X134655051Y-67747816D01*
X134751557Y-67558412D01*
X134817246Y-67356243D01*
X134850500Y-67146287D01*
X134850500Y-66933713D01*
X134817246Y-66723757D01*
X134751557Y-66521588D01*
X134655051Y-66332184D01*
X134655049Y-66332181D01*
X134655048Y-66332179D01*
X134530109Y-66160213D01*
X134379786Y-66009890D01*
X134207820Y-65884951D01*
X134207115Y-65884591D01*
X134199054Y-65880485D01*
X134148259Y-65832512D01*
X134131463Y-65764692D01*
X134153999Y-65698556D01*
X134199054Y-65659515D01*
X134207816Y-65655051D01*
X134314868Y-65577274D01*
X134379786Y-65530109D01*
X134379788Y-65530106D01*
X134379792Y-65530104D01*
X134530104Y-65379792D01*
X134530106Y-65379788D01*
X134530109Y-65379786D01*
X134655048Y-65207820D01*
X134655047Y-65207820D01*
X134655051Y-65207816D01*
X134751557Y-65018412D01*
X134817246Y-64816243D01*
X134850500Y-64606287D01*
X134850500Y-64393713D01*
X134817246Y-64183757D01*
X134751557Y-63981588D01*
X134655051Y-63792184D01*
X134655049Y-63792181D01*
X134655048Y-63792179D01*
X134530109Y-63620213D01*
X134379790Y-63469894D01*
X134379785Y-63469890D01*
X134254287Y-63378711D01*
X190649500Y-63378711D01*
X190649500Y-63621288D01*
X190681161Y-63861785D01*
X190743947Y-64096104D01*
X190836773Y-64320205D01*
X190836776Y-64320212D01*
X190958064Y-64530289D01*
X190958066Y-64530292D01*
X190958067Y-64530293D01*
X191105733Y-64722736D01*
X191105739Y-64722743D01*
X191277256Y-64894260D01*
X191277263Y-64894266D01*
X191344262Y-64945676D01*
X191469711Y-65041936D01*
X191679788Y-65163224D01*
X191903900Y-65256054D01*
X192138211Y-65318838D01*
X192318586Y-65342584D01*
X192378711Y-65350500D01*
X192378712Y-65350500D01*
X192621289Y-65350500D01*
X192669388Y-65344167D01*
X192861789Y-65318838D01*
X193096100Y-65256054D01*
X193320212Y-65163224D01*
X193530289Y-65041936D01*
X193722738Y-64894265D01*
X193894265Y-64722738D01*
X194041936Y-64530289D01*
X194163224Y-64320212D01*
X194256054Y-64096100D01*
X194318838Y-63861789D01*
X194350500Y-63621288D01*
X194350500Y-63378712D01*
X194349253Y-63369243D01*
X194318838Y-63138214D01*
X194318838Y-63138211D01*
X194256054Y-62903900D01*
X194163224Y-62679788D01*
X194041936Y-62469711D01*
X193894265Y-62277262D01*
X193894260Y-62277256D01*
X193722743Y-62105739D01*
X193722736Y-62105733D01*
X193530293Y-61958067D01*
X193530292Y-61958066D01*
X193530289Y-61958064D01*
X193320212Y-61836776D01*
X193320205Y-61836773D01*
X193096104Y-61743947D01*
X192861785Y-61681161D01*
X192621289Y-61649500D01*
X192621288Y-61649500D01*
X192378712Y-61649500D01*
X192378711Y-61649500D01*
X192138214Y-61681161D01*
X191903895Y-61743947D01*
X191679794Y-61836773D01*
X191679785Y-61836777D01*
X191469706Y-61958067D01*
X191277263Y-62105733D01*
X191277256Y-62105739D01*
X191105739Y-62277256D01*
X191105733Y-62277263D01*
X190958067Y-62469706D01*
X190836777Y-62679785D01*
X190836773Y-62679794D01*
X190743947Y-62903895D01*
X190681161Y-63138214D01*
X190649500Y-63378711D01*
X134254287Y-63378711D01*
X134207820Y-63344951D01*
X134018414Y-63248444D01*
X134018413Y-63248443D01*
X134018412Y-63248443D01*
X133816243Y-63182754D01*
X133816241Y-63182753D01*
X133816240Y-63182753D01*
X133654957Y-63157208D01*
X133606287Y-63149500D01*
X133393713Y-63149500D01*
X133345042Y-63157208D01*
X133183760Y-63182753D01*
X132981585Y-63248444D01*
X132792179Y-63344951D01*
X132620213Y-63469890D01*
X132469890Y-63620213D01*
X132344951Y-63792179D01*
X132248444Y-63981585D01*
X132182753Y-64183760D01*
X132149500Y-64393713D01*
X132149500Y-64525638D01*
X132129815Y-64592677D01*
X132113181Y-64613319D01*
X126163319Y-70563181D01*
X126101996Y-70596666D01*
X126075638Y-70599500D01*
X116911306Y-70599500D01*
X116737341Y-70634103D01*
X116737332Y-70634106D01*
X116573459Y-70701983D01*
X116573446Y-70701990D01*
X116425965Y-70800535D01*
X116425961Y-70800538D01*
X116300538Y-70925961D01*
X116300535Y-70925965D01*
X116201990Y-71073446D01*
X116201983Y-71073459D01*
X116134106Y-71237332D01*
X116134103Y-71237341D01*
X116099500Y-71411304D01*
X116099500Y-72588696D01*
X116134103Y-72762658D01*
X116134105Y-72762666D01*
X116162746Y-72831811D01*
X116201985Y-72926544D01*
X116261063Y-73014960D01*
X116279122Y-73041987D01*
X116300536Y-73074036D01*
X116523182Y-73296681D01*
X116556666Y-73358002D01*
X116559500Y-73384361D01*
X116559500Y-78256637D01*
X116539815Y-78323676D01*
X116487011Y-78369431D01*
X116417853Y-78379375D01*
X116354297Y-78350350D01*
X116347819Y-78344318D01*
X111144038Y-73140537D01*
X111050497Y-73078036D01*
X111044511Y-73074036D01*
X110996547Y-73041987D01*
X110914606Y-73008046D01*
X110832666Y-72974105D01*
X110832658Y-72974103D01*
X110658696Y-72939500D01*
X110658692Y-72939500D01*
X110658691Y-72939500D01*
X106712163Y-72939500D01*
X106645124Y-72919815D01*
X106599369Y-72867011D01*
X106590912Y-72841465D01*
X106589999Y-72837203D01*
X106589999Y-72837202D01*
X106534814Y-72670665D01*
X106442712Y-72521344D01*
X106318656Y-72397288D01*
X106169335Y-72305186D01*
X106002798Y-72250001D01*
X106002796Y-72250000D01*
X105900017Y-72239500D01*
X105900010Y-72239500D01*
X104099990Y-72239500D01*
X104099982Y-72239500D01*
X103997203Y-72250000D01*
X103997202Y-72250001D01*
X103914669Y-72277349D01*
X103830667Y-72305185D01*
X103830662Y-72305187D01*
X103681342Y-72397289D01*
X103557289Y-72521342D01*
X103465187Y-72670662D01*
X103465185Y-72670667D01*
X103410000Y-72837203D01*
X103399500Y-72939982D01*
X98000500Y-72939982D01*
X98000500Y-63502706D01*
X98000618Y-63497297D01*
X98005796Y-63378711D01*
X100649500Y-63378711D01*
X100649500Y-63621288D01*
X100681161Y-63861785D01*
X100743947Y-64096104D01*
X100836773Y-64320205D01*
X100836776Y-64320212D01*
X100958064Y-64530289D01*
X100958066Y-64530292D01*
X100958067Y-64530293D01*
X101105733Y-64722736D01*
X101105739Y-64722743D01*
X101277256Y-64894260D01*
X101277263Y-64894266D01*
X101344262Y-64945676D01*
X101469711Y-65041936D01*
X101679788Y-65163224D01*
X101903900Y-65256054D01*
X102138211Y-65318838D01*
X102318586Y-65342584D01*
X102378711Y-65350500D01*
X102378712Y-65350500D01*
X102621289Y-65350500D01*
X102669388Y-65344167D01*
X102861789Y-65318838D01*
X103096100Y-65256054D01*
X103320212Y-65163224D01*
X103530289Y-65041936D01*
X103722738Y-64894265D01*
X103894265Y-64722738D01*
X104041936Y-64530289D01*
X104163224Y-64320212D01*
X104256054Y-64096100D01*
X104298183Y-63938872D01*
X117999500Y-63938872D01*
X117999500Y-64201127D01*
X118015178Y-64320205D01*
X118033730Y-64461116D01*
X118086600Y-64658431D01*
X118101602Y-64714418D01*
X118101605Y-64714428D01*
X118201953Y-64956690D01*
X118201958Y-64956700D01*
X118333075Y-65183803D01*
X118492718Y-65391851D01*
X118492726Y-65391860D01*
X118678140Y-65577274D01*
X118678148Y-65577281D01*
X118886196Y-65736924D01*
X119113299Y-65868041D01*
X119113309Y-65868046D01*
X119355571Y-65968394D01*
X119355581Y-65968398D01*
X119608884Y-66036270D01*
X119868880Y-66070500D01*
X119868887Y-66070500D01*
X120131113Y-66070500D01*
X120131120Y-66070500D01*
X120391116Y-66036270D01*
X120644419Y-65968398D01*
X120886697Y-65868043D01*
X121113803Y-65736924D01*
X121321851Y-65577282D01*
X121321855Y-65577277D01*
X121321860Y-65577274D01*
X121507274Y-65391860D01*
X121507277Y-65391855D01*
X121507282Y-65391851D01*
X121666924Y-65183803D01*
X121798043Y-64956697D01*
X121898398Y-64714419D01*
X121966270Y-64461116D01*
X122000500Y-64201120D01*
X122000500Y-63938880D01*
X121966270Y-63678884D01*
X121898398Y-63425581D01*
X121878984Y-63378711D01*
X121798046Y-63183309D01*
X121798041Y-63183299D01*
X121666924Y-62956196D01*
X121507281Y-62748148D01*
X121507274Y-62748140D01*
X121321860Y-62562726D01*
X121321851Y-62562718D01*
X121113803Y-62403075D01*
X120886700Y-62271958D01*
X120886690Y-62271953D01*
X120644428Y-62171605D01*
X120644421Y-62171603D01*
X120644419Y-62171602D01*
X120391116Y-62103730D01*
X120333339Y-62096123D01*
X120131127Y-62069500D01*
X120131120Y-62069500D01*
X119868880Y-62069500D01*
X119868872Y-62069500D01*
X119637772Y-62099926D01*
X119608884Y-62103730D01*
X119355581Y-62171602D01*
X119355571Y-62171605D01*
X119113309Y-62271953D01*
X119113299Y-62271958D01*
X118886196Y-62403075D01*
X118678148Y-62562718D01*
X118492718Y-62748148D01*
X118333075Y-62956196D01*
X118201958Y-63183299D01*
X118201953Y-63183309D01*
X118101605Y-63425571D01*
X118101602Y-63425581D01*
X118089730Y-63469890D01*
X118033730Y-63678885D01*
X117999500Y-63938872D01*
X104298183Y-63938872D01*
X104318838Y-63861789D01*
X104350500Y-63621288D01*
X104350500Y-63378712D01*
X104349253Y-63369243D01*
X104318838Y-63138214D01*
X104318838Y-63138211D01*
X104256054Y-62903900D01*
X104163224Y-62679788D01*
X104041936Y-62469711D01*
X103894265Y-62277262D01*
X103894260Y-62277256D01*
X103722743Y-62105739D01*
X103722736Y-62105733D01*
X103530293Y-61958067D01*
X103530292Y-61958066D01*
X103530289Y-61958064D01*
X103320212Y-61836776D01*
X103320205Y-61836773D01*
X103096104Y-61743947D01*
X102861785Y-61681161D01*
X102621289Y-61649500D01*
X102621288Y-61649500D01*
X102378712Y-61649500D01*
X102378711Y-61649500D01*
X102138214Y-61681161D01*
X101903895Y-61743947D01*
X101679794Y-61836773D01*
X101679785Y-61836777D01*
X101469706Y-61958067D01*
X101277263Y-62105733D01*
X101277256Y-62105739D01*
X101105739Y-62277256D01*
X101105733Y-62277263D01*
X100958067Y-62469706D01*
X100836777Y-62679785D01*
X100836773Y-62679794D01*
X100743947Y-62903895D01*
X100681161Y-63138214D01*
X100649500Y-63378711D01*
X98005796Y-63378711D01*
X98006209Y-63369244D01*
X98006209Y-63369243D01*
X98011483Y-63248443D01*
X98017386Y-63113226D01*
X98018325Y-63102496D01*
X98068151Y-62724032D01*
X98070024Y-62713402D01*
X98152648Y-62340714D01*
X98155446Y-62330276D01*
X98172161Y-62277263D01*
X98270230Y-61966227D01*
X98273917Y-61956095D01*
X98420003Y-61603412D01*
X98424561Y-61593638D01*
X98600822Y-61255045D01*
X98606217Y-61245700D01*
X98811325Y-60923744D01*
X98817515Y-60914905D01*
X99049896Y-60612060D01*
X99056834Y-60603791D01*
X99314726Y-60322352D01*
X99322352Y-60314726D01*
X99603791Y-60056834D01*
X99612060Y-60049896D01*
X99914905Y-59817515D01*
X99923744Y-59811325D01*
X100245700Y-59606217D01*
X100255045Y-59600822D01*
X100593638Y-59424561D01*
X100603412Y-59420003D01*
X100956095Y-59273917D01*
X100966227Y-59270230D01*
X101330285Y-59155443D01*
X101340714Y-59152648D01*
X101713402Y-59070024D01*
X101724032Y-59068151D01*
X102102496Y-59018325D01*
X102113224Y-59017387D01*
X102497297Y-59000617D01*
X102502706Y-59000500D01*
X102565892Y-59000500D01*
X192434108Y-59000500D01*
X192497294Y-59000500D01*
X192502702Y-59000617D01*
G37*
%TD.AperFunction*%
%TD*%
M02*
